<svg width="240" height="30" viewBox="0 0 240 30" fill="none" xmlns="http://www.w3.org/2000/svg">
<path d="M15.9933 0L19.9916 11.157L31.9866 11.457L22.4626 18.657L25.8781 30L15.9933 23.292L6.10844 30L9.524 18.657L0 11.459L11.995 11.159L15.9933 0Z" fill="#F58225"/>
<path d="M67.9714 0L71.9697 11.157L83.9647 11.457L74.4407 18.657L77.8562 30L67.9714 23.292L58.0866 30L61.5021 18.657L51.9781 11.459L63.9731 11.159L67.9714 0Z" fill="#F58225"/>
<path d="M119.95 0L123.948 11.157L135.943 11.457L126.419 18.657L129.834 30L119.95 23.292L110.065 30L113.48 18.657L103.956 11.459L115.951 11.159L119.95 0Z" fill="#F58225"/>
<path d="M171.928 0L175.926 11.157L187.921 11.457L178.397 18.657L181.813 30L171.928 23.292L162.043 30L165.458 18.657L155.934 11.459L167.929 11.159L171.928 0Z" fill="#F58225"/>
<path d="M223.906 0L227.904 11.157L239.899 11.457L230.375 18.657L233.791 30L223.906 23.292L214.021 30L217.437 18.657L207.913 11.459L219.908 11.159L223.906 0Z" fill="#F58225"/>
</svg>
