<?xml version="1.0" encoding="UTF-8" standalone="no"?>
<!DOCTYPE svg PUBLIC "-//W3C//DTD SVG 1.1//EN" "http://www.w3.org/Graphics/SVG/1.1/DTD/svg11.dtd">
<svg width="100%" height="100%" viewBox="0 0 199 199" version="1.1" xmlns="http://www.w3.org/2000/svg" xmlns:xlink="http://www.w3.org/1999/xlink" xml:space="preserve" xmlns:serif="http://www.serif.com/" style="fill-rule:evenodd;clip-rule:evenodd;stroke-linejoin:round;stroke-miterlimit:2;">
    <g>
        <g id="_x34__39_">
            <g>
                <path d="M25.476,142.135C15.726,142.135 7.802,150.067 7.802,159.811C7.802,169.556 15.734,177.483 25.476,177.483C35.221,177.483 43.147,169.556 43.147,159.811C43.147,150.066 35.22,142.135 25.476,142.135Z" style="fill:rgb(245,130,37);fill-rule:nonzero;"/>
                <path d="M165.841,2.005C147.647,2.005 132.844,16.81 132.844,35.002C132.844,53.191 147.647,67.991 165.841,67.991C184.03,67.991 198.827,53.191 198.827,35.002C198.827,16.802 184.03,2.005 165.841,2.005Z" style="fill:rgb(245,130,37);fill-rule:nonzero;"/>
                <path d="M182.065,98.535L166.465,98.651L166.521,103.638C166.765,121.817 166.999,138.98 155.644,149.106C147.341,156.5 124.505,159.267 108.706,159.536L108.706,136.503L71.083,168.88L108.706,198.191L108.706,175.136C122.074,174.933 152.191,173.07 166.018,160.745C182.695,145.897 182.384,123.33 182.116,103.425L182.065,98.535Z" style="fill:rgb(245,130,37);fill-rule:nonzero;"/>
                <path d="M15.665,95.188C15.421,77.006 15.185,59.843 26.542,49.722C34.842,42.328 57.68,39.558 73.483,39.287L73.483,62.323L111.101,29.944L73.483,0.637L73.483,23.694C60.112,23.892 29.995,25.758 16.17,38.082C-0.506,52.932 -0.201,75.493 0.07,95.401L0.126,100.297L15.725,100.175L15.665,95.188Z" style="fill:rgb(245,130,37);fill-rule:nonzero;"/>
            </g>
        </g>
    </g>
</svg>
