<svg width="19" height="19" viewBox="0 0 19 19" fill="none" xmlns="http://www.w3.org/2000/svg">
<rect width="19" height="19" rx="3" fill="#F58225"/>
<g clip-path="url(#clip0)">
<path d="M12.4446 9.22114C12.4855 9.25774 12.5179 9.30122 12.5401 9.34909C12.5622 9.39696 12.5736 9.44827 12.5736 9.50009C12.5736 9.55192 12.5622 9.60323 12.5401 9.6511C12.5179 9.69897 12.4855 9.74244 12.4446 9.77904L12.6116 9.96509L12.6115 9.96518C12.6115 9.96522 12.6114 9.96526 12.6114 9.9653L7.34404 14.693C7.21317 14.8105 7.04093 14.8725 6.86626 14.8725C6.69159 14.8725 6.51935 14.8105 6.38848 14.693C6.25673 14.5748 6.17674 14.4082 6.17674 14.228C6.17674 14.0479 6.25673 13.8813 6.38848 13.763L6.3885 13.763L11.1388 9.50009L6.38872 5.23735L6.55548 5.05109L6.3885 5.23715L6.3886 5.23724C6.32343 5.17887 6.2701 5.10806 6.23311 5.02806C6.19605 4.9479 6.17651 4.86084 6.17651 4.77214C6.17651 4.68344 6.19605 4.59638 6.23311 4.51623C6.27012 4.43617 6.3235 4.36532 6.38872 4.30693L6.55548 4.49319C6.59625 4.4565 6.64469 4.42739 6.69802 4.40753C6.75135 4.38767 6.80852 4.37744 6.86626 4.37744C6.924 4.37744 6.98117 4.38767 7.0345 4.40753C7.08783 4.42739 7.13627 4.4565 7.17705 4.49319M12.4446 9.22114L12.6116 9.0351L12.6115 9.03501C12.6115 9.03497 12.6114 9.03493 12.6114 9.03489L7.34427 4.30735C7.34423 4.30732 7.34419 4.30728 7.34415 4.30724L7.34404 4.30714L7.17705 4.49319M12.4446 9.22114L7.17705 4.49319M12.4446 9.22114L7.17705 4.49319" fill="#F5F5F5" stroke="#F5F5F5" stroke-width="0.5"/>
</g>
<defs>
<clipPath id="clip0">
<rect width="12.2941" height="12.2941" fill="white" transform="translate(3.35303 3.35297)"/>
</clipPath>
</defs>
</svg>
