<?xml version="1.0" encoding="UTF-8" standalone="no"?>
<!DOCTYPE svg PUBLIC "-//W3C//DTD SVG 1.1//EN" "http://www.w3.org/Graphics/SVG/1.1/DTD/svg11.dtd">
<svg width="100%" height="100%" viewBox="0 0 95 80" version="1.1" xmlns="http://www.w3.org/2000/svg" xmlns:xlink="http://www.w3.org/1999/xlink" xml:space="preserve" xmlns:serif="http://www.serif.com/" style="fill-rule:evenodd;clip-rule:evenodd;stroke-linejoin:round;stroke-miterlimit:2;">
    <g transform="matrix(1,0,0,1,-303.752,-1204.72)">
        <g>
            <g transform="matrix(4.16667,0,0,4.16667,356.302,1285)">
                <path d="M9.784,-19.266L-12.251,-19.266C-12.446,-19.266 -12.612,-19.078 -12.612,-18.855L-12.612,-3.325C-12.612,-3.102 -12.446,-2.913 -12.251,-2.913L-3.202,-2.913L-3.202,-0.547C-3.202,-0.262 -2.885,0 -2.658,-0.193C-2.403,-0.408 -2.148,-0.625 -1.893,-0.84C-1.705,-0.999 -1.518,-1.158 -1.33,-1.317C-1.282,-1.357 -1.212,-1.403 -1.152,-1.446C-1.116,-1.42 -1.08,-1.393 -1.054,-1.366C-0.891,-1.195 -0.689,-1.054 -0.511,-0.903C-0.233,-0.666 0.044,-0.429 0.322,-0.193C0.477,-0.06 0.629,-0.107 0.729,-0.23C0.809,-0.295 0.866,-0.4 0.866,-0.547L0.866,-2.913L9.784,-2.913C9.89,-2.913 9.97,-2.957 10.028,-3.022C10.032,-3.028 10.036,-3.032 10.041,-3.036C10.042,-3.039 10.045,-3.041 10.047,-3.044C10.106,-3.11 10.145,-3.202 10.145,-3.325L10.145,-18.855C10.145,-19.078 9.98,-19.266 9.784,-19.266ZM-3.202,-3.735L-11.89,-3.735L-11.89,-18.444L-3.202,-18.444L-3.202,-3.735ZM0.143,-1.365C-0.231,-1.685 -0.605,-2.005 -0.98,-2.324C-1.072,-2.403 -1.252,-2.401 -1.344,-2.324C-1.723,-2.003 -2.101,-1.683 -2.479,-1.363L-2.479,-18.444L0.143,-18.444L0.143,-1.365ZM0.866,-18.444L9.423,-18.444L9.423,-3.735L0.866,-3.735L0.866,-18.444Z" style="fill:rgb(245,131,34);fill-rule:nonzero;"/>
            </g>
            <g transform="matrix(4.16667,0,0,4.16667,313.603,1221.95)">
                <path d="M0,0.548L5.104,0.548C5.413,0.548 5.414,0 5.104,0L0,0C-0.31,0 -0.31,0.548 0,0.548" style="fill:rgb(245,131,34);fill-rule:nonzero;"/>
            </g>
            <g transform="matrix(4.16667,0,0,4.16667,313.603,1231.56)">
                <path d="M0,0.547L5.104,0.547C5.413,0.547 5.414,0 5.104,0L0,0C-0.31,0 -0.31,0.547 0,0.547" style="fill:rgb(245,131,34);fill-rule:nonzero;"/>
            </g>
            <g transform="matrix(4.16667,0,0,4.16667,313.603,1241.15)">
                <path d="M0,0.548L5.104,0.548C5.413,0.548 5.414,0 5.104,0L0,0C-0.31,0 -0.31,0.548 0,0.548" style="fill:rgb(245,131,34);fill-rule:nonzero;"/>
            </g>
            <g transform="matrix(4.16667,0,0,4.16667,313.603,1250.76)">
                <path d="M0,0.548L5.104,0.548C5.413,0.548 5.414,0 5.104,0L0,0C-0.31,0 -0.31,0.548 0,0.548" style="fill:rgb(245,131,34);fill-rule:nonzero;"/>
            </g>
            <g transform="matrix(-4.16667,0,0,4.16667,367.57,1224.23)">
                <path d="M-5.104,-0.548L-0,-0.548C0.31,-0.548 0.31,0 -0,0L-5.104,0C-5.414,0 -5.414,-0.548 -5.104,-0.548" style="fill:rgb(245,131,34);fill-rule:nonzero;"/>
            </g>
            <g transform="matrix(-4.16667,0,0,4.16667,367.57,1233.83)">
                <path d="M-5.104,-0.547L-0,-0.547C0.31,-0.547 0.31,0 -0,0L-5.104,0C-5.414,0 -5.414,-0.547 -5.104,-0.547" style="fill:rgb(245,131,34);fill-rule:nonzero;"/>
            </g>
            <g transform="matrix(-4.16667,0,0,4.16667,367.57,1243.44)">
                <path d="M-5.104,-0.548L-0,-0.548C0.31,-0.548 0.31,0 -0,0L-5.104,0C-5.414,0 -5.414,-0.548 -5.104,-0.548" style="fill:rgb(245,131,34);fill-rule:nonzero;"/>
            </g>
            <g transform="matrix(-4.16667,0,0,4.16667,367.57,1253.04)">
                <path d="M-5.104,-0.548L-0,-0.548C0.31,-0.548 0.31,0 -0,0L-5.104,0C-5.414,0 -5.414,-0.548 -5.104,-0.548" style="fill:rgb(245,131,34);fill-rule:nonzero;"/>
            </g>
        </g>
    </g>
</svg>
