<?xml version="1.0" encoding="UTF-8" standalone="no"?>
<!DOCTYPE svg PUBLIC "-//W3C//DTD SVG 1.1//EN" "http://www.w3.org/Graphics/SVG/1.1/DTD/svg11.dtd">
<svg width="100%" height="100%" viewBox="0 0 115 115" version="1.1" xmlns="http://www.w3.org/2000/svg" xmlns:xlink="http://www.w3.org/1999/xlink" xml:space="preserve" xmlns:serif="http://www.serif.com/" style="fill-rule:evenodd;clip-rule:evenodd;stroke-linejoin:round;stroke-miterlimit:2;">
    <g transform="matrix(1.1587,0,0,1.14956,-9.03208,-8.76657)">
        <path d="M56.528,107.664L19.372,107.664C12.982,107.664 7.795,102.476 7.795,96.086L7.795,19.203C7.795,12.814 12.982,7.626 19.372,7.626L95.467,7.626C101.857,7.626 107.044,12.814 107.044,19.203L107.044,96.086C107.044,102.476 101.857,107.664 95.467,107.664L72.522,107.664L72.522,71.694L84.548,71.694C86.194,71.694 87.529,70.359 87.529,68.713L87.529,58.717C87.529,57.923 87.213,57.162 86.652,56.6C86.09,56.039 85.329,55.723 84.535,55.723L72.522,55.723L72.522,43.022C72.599,42.415 72.641,41.786 72.912,41.238C73.548,39.948 74.632,39.51 76.051,39.453C78.96,39.337 81.656,39.349 84.453,39.395C85.264,39.407 86.047,39.093 86.625,38.524C87.203,37.954 87.528,37.177 87.528,36.365C87.529,33.838 87.529,30.283 87.529,27.767C87.529,26.083 86.163,24.718 84.479,24.718L73.449,24.718C73.449,24.718 56.528,24.718 56.528,41.62L56.528,55.537L47.643,55.537C46.852,55.537 46.093,55.852 45.533,56.411C44.973,56.971 44.659,57.73 44.659,58.521L44.659,68.707C44.659,70.357 45.996,71.694 47.646,71.694L56.528,71.694L56.528,107.664Z" style="fill:rgb(245,130,37);"/>
    </g>
</svg>
