<?xml version="1.0" encoding="UTF-8" standalone="no"?>
<!DOCTYPE svg PUBLIC "-//W3C//DTD SVG 1.1//EN" "http://www.w3.org/Graphics/SVG/1.1/DTD/svg11.dtd">
<svg width="100%" height="100%" viewBox="0 0 125 80" version="1.1" xmlns="http://www.w3.org/2000/svg" xmlns:xlink="http://www.w3.org/1999/xlink" xml:space="preserve" xmlns:serif="http://www.serif.com/" style="fill-rule:evenodd;clip-rule:evenodd;stroke-linejoin:round;stroke-miterlimit:2;">
    <g transform="matrix(1,0,0,1,-290.16,-1321.17)">
        <g>
            <g transform="matrix(4.16667,0,0,4.16667,326.106,1363.73)">
                <path d="M0,8.431C-0.001,8.565 0.052,8.694 0.148,8.789C0.245,8.885 0.378,8.938 0.516,8.938L11.933,8.935C12.212,8.935 12.439,8.722 12.449,8.452C12.451,8.383 12.469,7.676 12.317,6.705L20.653,6.704C20.931,6.704 21.16,6.489 21.169,6.22C21.175,6.05 21.281,1.998 18.659,-0.329C18.474,-0.492 18.195,-0.504 17.997,-0.356C17.966,-0.334 14.917,1.885 12.079,-0.354C11.884,-0.507 11.604,-0.503 11.415,-0.344C11.354,-0.293 10.52,0.427 9.796,1.815C9.628,1.744 9.429,1.763 9.278,1.875C9.153,1.967 6.183,4.107 3.358,1.878C3.22,1.769 3.039,1.741 2.878,1.79C2.513,1.033 2.01,0.291 1.312,-0.329C1.127,-0.492 0.848,-0.504 0.649,-0.356C0.619,-0.334 -2.43,1.885 -5.269,-0.354C-5.464,-0.507 -5.743,-0.503 -5.933,-0.344C-6.04,-0.253 -8.564,1.921 -8.627,6.2C-8.629,6.333 -8.576,6.461 -8.478,6.557C-8.381,6.653 -8.249,6.705 -8.111,6.705L0.173,6.704C0.075,7.238 0.009,7.809 0,8.431M11.806,0.698C14.504,2.52 17.257,1.254 18.244,0.678C19.778,2.273 20.073,4.684 20.127,5.705L12.111,5.706C11.85,4.685 11.389,3.539 10.578,2.565C11.006,1.659 11.501,1.033 11.806,0.698M3.086,2.929C5.784,4.753 8.536,3.487 9.524,2.91C11.058,4.506 11.352,6.916 11.407,7.936L1.052,7.938C1.234,5.251 2.506,3.566 3.086,2.929M-7.575,5.707C-7.393,3.019 -6.121,1.334 -5.542,0.698C-2.844,2.52 -0.091,1.254 0.897,0.678C1.426,1.229 1.805,1.876 2.08,2.531C1.567,3.145 0.854,4.202 0.409,5.705L-7.575,5.707Z" style="fill:rgb(69,146,30);fill-rule:nonzero;"/>
            </g>
            <g transform="matrix(4.16667,0,0,4.16667,295.757,1350.16)">
                <path d="M0,-2.228C0.001,0.378 2.191,2.499 4.882,2.499L4.883,2.499C6.185,2.499 7.41,2.006 8.333,1.112C8.461,0.989 8.578,0.858 8.69,0.723C9.05,2.988 11.071,4.731 13.509,4.731L13.51,4.731C14.812,4.731 16.037,4.238 16.959,3.344C17.729,2.598 18.205,1.647 18.344,0.622C19.237,1.759 20.644,2.499 22.229,2.499L22.23,2.499C23.532,2.499 24.758,2.006 25.68,1.112C26.603,0.217 27.111,-0.97 27.111,-2.232C27.109,-4.839 24.919,-6.959 22.229,-6.959C20.926,-6.959 19.7,-6.467 18.778,-5.572C18.009,-4.826 17.532,-3.875 17.394,-2.849C16.501,-3.987 15.094,-4.727 13.509,-4.727C12.206,-4.727 10.98,-4.234 10.057,-3.34C9.93,-3.217 9.812,-3.086 9.7,-2.952C9.339,-5.217 7.319,-6.959 4.881,-6.959C3.579,-6.959 2.353,-6.467 1.43,-5.572C0.508,-4.677 -0.001,-3.49 0,-2.228M19.507,-4.865C20.235,-5.571 21.202,-5.96 22.229,-5.961C24.351,-5.961 26.078,-4.288 26.08,-2.232C26.08,-1.236 25.679,-0.3 24.951,0.406C24.223,1.111 23.257,1.501 22.23,1.501L22.229,1.501C20.107,1.501 18.379,-0.173 18.378,-2.229C18.378,-3.224 18.779,-4.16 19.507,-4.865M10.787,-2.634C11.515,-3.339 12.481,-3.728 13.509,-3.728C15.631,-3.728 17.359,-2.055 17.359,0.001C17.36,0.995 16.959,1.931 16.23,2.638C15.502,3.343 14.537,3.732 13.51,3.732L13.509,3.732C11.386,3.732 9.659,2.059 9.658,0.003C9.658,-0.991 10.059,-1.928 10.787,-2.634M4.882,-5.961C7.004,-5.961 8.731,-4.288 8.733,-2.232C8.733,-1.236 8.332,-0.3 7.603,0.406C6.876,1.111 5.909,1.501 4.883,1.501L4.882,1.501C2.759,1.501 1.032,-0.173 1.031,-2.229C1.031,-3.224 1.432,-4.16 2.16,-4.865C2.887,-5.571 3.855,-5.96 4.882,-5.961" style="fill:rgb(69,146,30);fill-rule:nonzero;"/>
            </g>
        </g>
    </g>
</svg>
