<?xml version="1.0" encoding="UTF-8" standalone="no"?>
<!DOCTYPE svg PUBLIC "-//W3C//DTD SVG 1.1//EN" "http://www.w3.org/Graphics/SVG/1.1/DTD/svg11.dtd">
<svg width="100%" height="100%" viewBox="0 0 116 96" version="1.1" xmlns="http://www.w3.org/2000/svg" xmlns:xlink="http://www.w3.org/1999/xlink" xml:space="preserve" xmlns:serif="http://www.serif.com/" style="fill-rule:evenodd;clip-rule:evenodd;stroke-linejoin:round;stroke-miterlimit:2;">
    <g transform="matrix(1,0,0,1,-294.492,-806.82)">
        <g transform="matrix(4.16667,0,0,4.16667,381.454,903.05)">
            <path d="M0,-23.095L-2.361,-20.736C-2.48,-20.752 -2.598,-20.763 -2.716,-20.773C-3.562,-21.114 -5.066,-21.355 -6.831,-19.997L-6.872,-19.96L-7.452,-19.379C-9.633,-20.859 -11.364,-19.947 -11.851,-19.626L-14.023,-21.798L-20.871,-14.95L-18.275,-12.354C-18.255,-11.191 -17.841,-9.998 -17.038,-8.793C-16.707,-8.297 -16.32,-7.839 -15.901,-7.414C-15.366,-6.872 -14.824,-6.336 -14.285,-5.797C-14.87,-4.947 -14.618,-4.242 -14.01,-3.608C-13.378,-2.95 -12.796,-2.873 -11.939,-3.121C-11.932,-3.123 -11.924,-3.12 -11.919,-3.114C-11.305,-2.193 -10.738,-1.747 -10.127,-1.699C-9.873,-1.452 -9.622,-1.202 -9.367,-0.957C-8.611,-0.228 -7.459,-0.064 -6.547,-0.586C-6.154,-0.811 -6.087,-0.997 -5.885,-1.318C-4.344,-0.024 -3.316,0 -2.104,-1.816C-2.1,-1.822 -2.092,-1.824 -2.084,-1.823C-1.228,-1.575 -0.645,-1.652 -0.014,-2.309C0.629,-2.98 0.875,-3.727 0.155,-4.645C0.15,-4.652 -0.035,-4.894 -0.027,-4.893C0.486,-4.877 0.892,-5.203 1.116,-5.492C1.712,-6.263 1.676,-7.073 1.036,-7.871C1.316,-8.152 1.599,-8.43 1.877,-8.712C2.297,-9.137 2.683,-9.594 3.014,-10.09C3.818,-11.297 4.232,-12.489 4.252,-13.653L6.847,-16.248L0,-23.095ZM-15.485,-8.408C-16.273,-9.24 -16.863,-10.159 -17.122,-11.201C-17.179,-11.432 -17.22,-11.671 -17.243,-11.916C-17.262,-12.116 -17.268,-12.32 -17.262,-12.529L-19.895,-15.161L-14.235,-20.821L-12.301,-18.887L-12.308,-18.868L-11.432,-18.796L-11.375,-18.937C-11.029,-19.173 -9.594,-19.969 -7.678,-18.509L-5.144,-15.962C-5.017,-15.835 -4.947,-15.664 -4.948,-15.482C-4.948,-15.3 -5.019,-15.129 -5.147,-15.002L-5.314,-14.835C-5.58,-14.571 -6.01,-14.572 -6.275,-14.837L-8.868,-17.442L-9.498,-17.001L-8.796,-16.18L-8.493,-15.874C-8.79,-15.576 -9.088,-15.279 -9.386,-14.98C-9.46,-14.906 -9.502,-14.825 -9.524,-14.744C-9.538,-14.729 -9.553,-14.713 -9.568,-14.698C-11.31,-12.953 -13.059,-11.214 -14.797,-9.464C-15.144,-9.114 -15.373,-8.761 -15.485,-8.408M-7.081,-1.347C-7.282,-1.157 -7.488,-1.039 -7.788,-1.063C-8.202,-1.095 -8.489,-1.411 -8.689,-1.609C-8.813,-1.73 -8.933,-1.852 -9.056,-1.973C-8.769,-2.127 -8.466,-2.341 -8.138,-2.616C-7.936,-2.295 -7.87,-2.11 -7.476,-1.884C-7.3,-1.783 -7.113,-1.708 -6.923,-1.658C-6.956,-1.53 -7.008,-1.416 -7.081,-1.347M-3.345,-1.697C-3.734,-1.241 -4.179,-1.2 -4.747,-1.727C-4.836,-1.809 -4.922,-1.893 -5.009,-1.975C-4.885,-2.056 -4.766,-2.149 -4.656,-2.255C-4.331,-2.569 -4.01,-2.887 -3.686,-3.203C-3.651,-3.167 -3.617,-3.133 -3.582,-3.099C-3.048,-2.563 -2.977,-2.13 -3.345,-1.697M-0.637,-3.114C-1.03,-2.577 -1.631,-2.566 -2.168,-3.101C-2.436,-3.367 -2.702,-3.635 -2.969,-3.902C-2.529,-4.333 -2.086,-4.76 -1.647,-5.193C-1.4,-4.944 -1.15,-4.697 -0.902,-4.448C-0.425,-3.968 -0.343,-3.514 -0.637,-3.114M0.459,-6.286C0.26,-5.787 -0.333,-5.552 -0.805,-5.811C-0.851,-5.836 -0.895,-5.865 -0.938,-5.895C-0.514,-6.316 -0.093,-6.741 0.329,-7.163C0.512,-6.921 0.605,-6.652 0.459,-6.286M3.238,-13.827C3.245,-13.619 3.238,-13.414 3.219,-13.214C3.197,-12.97 3.156,-12.731 3.098,-12.499C2.839,-11.452 2.244,-10.53 1.451,-9.695C0.376,-8.564 -0.751,-7.481 -1.854,-6.378C-3.013,-5.22 -4.167,-4.056 -5.334,-2.907C-5.534,-2.709 -5.822,-2.393 -6.236,-2.361C-6.536,-2.337 -6.742,-2.454 -6.942,-2.645C-7.122,-2.816 -7.18,-3.245 -7.111,-3.513C-7.036,-3.804 -6.778,-4.068 -6.553,-4.299C-6.025,-4.839 -5.487,-5.369 -4.954,-5.905C-4.694,-6.166 -4.435,-6.427 -4.179,-6.692C-3.907,-6.972 -3.111,-7.567 -3.558,-7.985C-3.968,-8.369 -4.555,-7.629 -4.801,-7.381C-5.061,-7.119 -5.321,-6.859 -5.585,-6.601C-6.811,-5.405 -8.02,-4.19 -9.276,-3.026C-9.845,-2.498 -10.29,-2.539 -10.678,-2.996C-11.047,-3.428 -10.976,-3.861 -10.441,-4.396C-9.052,-5.788 -7.661,-7.178 -6.272,-8.568C-6.077,-8.763 -5.908,-8.89 -5.873,-9.188C-5.847,-9.409 -5.927,-9.604 -6.154,-9.638C-6.536,-9.696 -6.702,-9.55 -6.948,-9.304C-8.584,-7.669 -10.217,-6.031 -11.855,-4.399C-12.393,-3.864 -12.993,-3.875 -13.387,-4.412C-13.68,-4.813 -13.599,-5.267 -13.121,-5.746C-11.462,-7.412 -9.799,-9.075 -8.132,-10.734C-7.861,-11.005 -7.647,-11.307 -7.98,-11.619C-8.299,-11.917 -8.573,-11.654 -8.816,-11.41C-10.095,-10.126 -11.375,-8.845 -12.66,-7.567C-12.831,-7.397 -13.01,-7.223 -13.219,-7.109C-13.69,-6.85 -14.284,-7.086 -14.483,-7.585C-14.688,-8.096 -14.425,-8.421 -14.1,-8.744C-11.974,-10.864 -9.848,-12.982 -7.741,-15.119L-6.87,-14.245C-6.574,-13.947 -6.184,-13.797 -5.793,-13.798C-5.405,-13.798 -5.017,-13.945 -4.721,-14.24L-4.554,-14.407C-4.267,-14.692 -4.109,-15.074 -4.107,-15.48C-4.107,-15.862 -4.249,-16.219 -4.503,-16.498L-6.434,-18.449L-6.813,-18.83L-6.297,-19.348C-5.499,-19.956 -4.787,-20.17 -4.2,-20.199C-3.125,-20.296 -2.174,-19.734 -2.174,-19.734L0.211,-22.119L5.871,-16.46L3.238,-13.827Z" style="fill:rgb(245,131,34);fill-rule:nonzero;"/>
        </g>
    </g>
</svg>
