<?xml version="1.0" encoding="UTF-8" standalone="no"?>
<!DOCTYPE svg PUBLIC "-//W3C//DTD SVG 1.1//EN" "http://www.w3.org/Graphics/SVG/1.1/DTD/svg11.dtd">
<svg width="100%" height="100%" viewBox="0 0 98 98" version="1.1" xmlns="http://www.w3.org/2000/svg" xmlns:xlink="http://www.w3.org/1999/xlink" xml:space="preserve" xmlns:serif="http://www.serif.com/" style="fill-rule:evenodd;clip-rule:evenodd;stroke-linejoin:round;stroke-miterlimit:2;">
    <g transform="matrix(1,0,0,1,-1994.04,-1313.46)">
        <g transform="matrix(1,0,0,1,1994.04,1313.46)">
            <path d="M98,29.735C98,13.324 84.676,0 68.265,0L29.735,0C13.324,0 0,13.324 0,29.735L0,68.265C0,84.676 13.324,98 29.735,98L68.265,98C84.676,98 98,84.676 98,68.265L98,29.735ZM88.214,33.582C88.214,20.449 77.551,9.786 64.418,9.786L33.582,9.786C20.449,9.786 9.786,20.449 9.786,33.582L9.786,64.418C9.786,77.551 20.449,88.214 33.582,88.214L64.418,88.214C77.551,88.214 88.214,77.551 88.214,64.418L88.214,33.582Z" style="fill:rgb(245,130,37);"/>
        </g>
        <g transform="matrix(1,0,0,1,1994.04,1313.46)">
            <path d="M48.638,24.142C62.262,24.142 73.323,35.203 73.323,48.827C73.323,62.451 62.262,73.512 48.638,73.512C35.013,73.512 23.952,62.451 23.952,48.827C23.952,35.203 35.013,24.142 48.638,24.142ZM48.638,33.121C57.306,33.121 64.344,40.158 64.344,48.827C64.344,57.496 57.306,64.533 48.638,64.533C39.969,64.533 32.931,57.496 32.931,48.827C32.931,40.158 39.969,33.121 48.638,33.121Z" style="fill:rgb(245,130,37);"/>
        </g>
        <g transform="matrix(1.0126,0,0,1.0126,1993.11,1312.8)">
            <circle cx="73.922" cy="24.389" r="6.307" style="fill:rgb(245,130,37);"/>
        </g>
    </g>
</svg>
