<?xml version="1.0" encoding="UTF-8" standalone="no"?>
<!DOCTYPE svg PUBLIC "-//W3C//DTD SVG 1.1//EN" "http://www.w3.org/Graphics/SVG/1.1/DTD/svg11.dtd">
<svg width="100%" height="100%" viewBox="0 0 512 512" version="1.1" xmlns="http://www.w3.org/2000/svg" xmlns:xlink="http://www.w3.org/1999/xlink" xml:space="preserve" xmlns:serif="http://www.serif.com/" style="fill-rule:evenodd;clip-rule:evenodd;stroke-linejoin:round;stroke-miterlimit:2;">
    <g>
        <path d="M482.747,72.505L258.295,0.36C256.803,-0.12 255.197,-0.12 253.705,0.36L29.253,72.505C26.151,73.502 24.048,76.387 24.048,79.645L24.048,215.92C24.048,268.415 36.169,316.677 60.075,359.366C79.178,393.478 105.779,424.065 139.14,450.277C195.76,494.764 251.59,511.041 253.939,511.712C254.612,511.904 255.306,512.001 256,512.001C256.694,512.001 257.387,511.905 258.061,511.712C260.41,511.041 316.24,494.764 372.86,450.277C406.221,424.065 432.823,393.478 451.925,359.366C475.831,316.678 487.952,268.415 487.952,215.92L487.952,79.645C487.952,76.388 485.849,73.502 482.747,72.505ZM472.952,215.92C472.952,265.705 461.526,311.41 438.991,351.764C420.928,384.11 395.699,413.177 364.003,438.16C323.086,470.411 281.684,487.533 263.501,494.088L248.5,494.087C230.317,487.532 188.915,470.41 147.998,438.159C116.303,413.177 91.074,384.109 73.01,351.763C50.475,311.409 39.049,265.705 39.049,215.919L39.049,85.113L248.5,17.789L263.5,17.789L472.952,85.113L472.952,215.92Z" style="fill:rgb(245,130,37);fill-rule:nonzero;"/>
        <g transform="matrix(1.27601,0,0,1.27601,-70.6575,-76.2327)">
            <path d="M218.597,153.714L211.285,168.339L167.823,168.339C150.427,168.339 136.275,182.492 136.275,199.888L136.275,312.114C136.275,329.51 150.427,343.663 167.823,343.663L344.177,343.663C361.573,343.663 375.725,329.51 375.725,312.114L375.725,199.887C375.725,182.491 361.573,168.338 344.177,168.338L300.715,168.338L293.403,153.713C288.025,142.956 277.212,136.274 265.185,136.274L246.814,136.274C234.788,136.274 223.975,142.957 218.597,153.714ZM328.661,183.339L328.661,239.968C328.661,244.673 324.833,248.5 320.129,248.5L191.871,248.5C187.166,248.5 183.339,244.672 183.339,239.968L183.339,183.339L328.661,183.339ZM360.726,199.887L360.726,312.113C360.726,321.238 353.303,328.662 344.178,328.662L167.823,328.662C158.698,328.662 151.275,321.238 151.275,312.113L151.275,199.887C151.275,190.762 158.698,183.338 167.823,183.338L168.339,183.338L168.339,239.967C168.339,250.321 175.063,259.127 184.371,262.267L184.371,272.032C184.371,276.174 187.729,279.532 191.871,279.532C196.013,279.532 199.371,276.174 199.371,272.032L199.371,263.5L312.629,263.5L312.629,272.032C312.629,276.174 315.987,279.532 320.129,279.532C324.271,279.532 327.629,276.174 327.629,272.032L327.629,262.267C336.937,259.128 343.661,250.321 343.661,239.967L343.661,183.338L344.177,183.338C353.302,183.339 360.726,190.762 360.726,199.887ZM279.987,160.422L283.945,168.339L228.054,168.339L232.012,160.422C234.834,154.779 240.505,151.274 246.814,151.274L265.185,151.274C271.494,151.274 277.166,154.78 279.987,160.422Z" style="fill:rgb(245,130,37);fill-rule:nonzero;"/>
        </g>
    </g>
</svg>
