<?xml version="1.0" encoding="UTF-8" standalone="no"?>
<!DOCTYPE svg PUBLIC "-//W3C//DTD SVG 1.1//EN" "http://www.w3.org/Graphics/SVG/1.1/DTD/svg11.dtd">
<svg width="100%" height="100%" viewBox="0 0 239 397" version="1.1" xmlns="http://www.w3.org/2000/svg" xmlns:xlink="http://www.w3.org/1999/xlink" xml:space="preserve" xmlns:serif="http://www.serif.com/" style="fill-rule:evenodd;clip-rule:evenodd;stroke-linejoin:round;stroke-miterlimit:2;">
    <g transform="matrix(1,0,0,1,-2003.49,-133.209)">
        <g>
            <g transform="matrix(4.16667,0,0,4.16667,2238.58,382.58)">
                <path d="M0,-24.464C0.539,-26.682 0.811,-28.959 0.811,-31.23C0.811,-47.011 -12.027,-59.849 -27.806,-59.849C-43.584,-59.849 -56.422,-47.011 -56.422,-31.23C-56.422,-28.959 -56.15,-26.682 -55.61,-24.464C-54.846,-19.821 -53.795,-16.078 -52.488,-13.331C-49.675,-7.428 -37.842,12.076 -32.409,20.953C-39.753,21.89 -43.162,25.051 -43.162,28.026C-43.162,31.568 -38.357,35.385 -27.806,35.385C-17.253,35.385 -12.449,31.568 -12.449,28.026C-12.449,25.051 -15.857,21.89 -23.202,20.953C-17.769,12.076 -5.936,-7.428 -3.124,-13.331C-1.816,-16.078 -0.765,-19.821 0,-24.464M-16.873,28.026C-17.173,28.863 -20.868,30.965 -27.806,30.965C-34.824,30.965 -38.525,28.815 -38.746,28.058C-38.547,27.322 -35.531,25.517 -29.831,25.157C-29.764,25.268 -29.713,25.348 -29.686,25.39C-29.284,26.046 -28.572,26.443 -27.806,26.443C-27.039,26.443 -26.327,26.046 -25.925,25.39C-25.898,25.348 -25.847,25.268 -25.78,25.157C-20.155,25.512 -17.142,27.275 -16.873,28.026M-4.313,-25.433C-4.327,-25.38 -4.339,-25.321 -4.348,-25.263C-5.037,-21.054 -5.994,-17.582 -7.112,-15.231C-9.953,-9.27 -22.907,12.012 -27.806,20.011C-32.703,12.012 -45.658,-9.27 -48.497,-15.231C-49.617,-17.582 -50.574,-21.054 -51.263,-25.263C-51.273,-25.321 -51.285,-25.375 -51.298,-25.433C-51.765,-27.333 -52.002,-29.281 -52.002,-31.23C-52.002,-44.57 -41.148,-55.429 -27.806,-55.429C-14.464,-55.429 -3.609,-44.57 -3.609,-31.23C-3.609,-29.281 -3.845,-27.333 -4.313,-25.433" style="fill:rgb(245,131,34);fill-rule:nonzero;"/>
            </g>
            <g transform="matrix(4.16667,0,0,4.16667,2122.72,313.38)">
                <path d="M0,-30.71C-8.468,-30.71 -15.356,-23.823 -15.356,-15.357C-15.356,-6.887 -8.468,0 0,0C8.468,0 15.357,-6.887 15.357,-15.357C15.357,-23.823 8.468,-30.71 0,-30.71M0,-4.42C-6.031,-4.42 -10.937,-9.322 -10.937,-15.357C-10.937,-21.387 -6.031,-26.295 0,-26.295C6.031,-26.295 10.937,-21.387 10.937,-15.357C10.937,-9.322 6.031,-4.42 0,-4.42" style="fill:rgb(245,131,34);fill-rule:nonzero;"/>
            </g>
        </g>
    </g>
</svg>
