<?xml version="1.0" encoding="UTF-8" standalone="no"?>
<!DOCTYPE svg PUBLIC "-//W3C//DTD SVG 1.1//EN" "http://www.w3.org/Graphics/SVG/1.1/DTD/svg11.dtd">
<svg width="100%" height="100%" viewBox="0 0 3840 2160" version="1.1" xmlns="http://www.w3.org/2000/svg" xmlns:xlink="http://www.w3.org/1999/xlink" xml:space="preserve" xmlns:serif="http://www.serif.com/" style="fill-rule:evenodd;clip-rule:evenodd;stroke-linejoin:round;stroke-miterlimit:2;">
    <path d="M1920,319.315C2339.83,319.315 2680.68,660.166 2680.68,1080C2680.68,1499.83 2339.83,1840.68 1920,1840.68C1500.17,1840.68 1159.32,1499.83 1159.32,1080C1159.32,660.166 1500.17,319.315 1920,319.315ZM2147.61,1529.01C1754.32,1442.86 1505.92,1054.31 1591.96,661.587C1595.73,644.34 1610.92,632.167 1628.34,631.986L1795.89,630.121C1814.04,629.907 1829.88,642.871 1833.31,660.708L1869.29,848.573C1872.44,865.008 1864.28,881.671 1849.34,889.258L1739.72,944.943C1769.76,1077.37 1846.49,1195.38 1951.99,1276.31L2048.41,1200.01C2061.54,1189.62 2080.09,1189.17 2093.7,1198.91L2249.33,1310.14C2264.09,1320.7 2269.24,1340.51 2261.46,1356.91L2189.72,1508.35C2182.24,1524.14 2164.69,1532.76 2147.61,1529.01Z" style="fill:rgb(245,130,37);"/>
</svg>
