<?xml version="1.0" encoding="UTF-8" standalone="no"?>
<!DOCTYPE svg PUBLIC "-//W3C//DTD SVG 1.1//EN" "http://www.w3.org/Graphics/SVG/1.1/DTD/svg11.dtd">
<svg width="100%" height="100%" viewBox="0 0 2160 2160" version="1.1" xmlns="http://www.w3.org/2000/svg" xmlns:xlink="http://www.w3.org/1999/xlink" xml:space="preserve" xmlns:serif="http://www.serif.com/" style="fill-rule:evenodd;clip-rule:evenodd;stroke-linejoin:round;stroke-miterlimit:2;">
    <g id="whiteorange" transform="matrix(1.41161,0,0,1.41161,-1630.28,-444.534)">
        <g transform="matrix(1,0,0,1,-18.2549,-146.244)">
            <circle cx="1938.26" cy="1226.24" r="760.685" style="fill:white;"/>
        </g>
        <g transform="matrix(14.1761,-9.08098,9.08098,14.1761,1368.5,708.323)">
            <path d="M12.674,66.011C-4.237,49.101 -4.212,21.708 12.674,4.822C13.415,4.08 14.565,3.958 15.442,4.507L23.882,9.782C24.797,10.353 25.174,11.509 24.774,12.511L20.554,23.06C20.185,23.983 19.243,24.555 18.253,24.456L10.986,23.729C8.245,31.315 8.302,39.676 10.986,47.104L18.253,46.377C19.243,46.278 20.185,46.85 20.554,47.773L24.774,58.323C25.174,59.324 24.797,60.48 23.882,61.051L15.442,66.327C14.562,66.877 13.408,66.746 12.674,66.011Z" style="fill:rgb(245,130,37);fill-rule:nonzero;"/>
        </g>
    </g>
</svg>
