<?xml version="1.0" encoding="UTF-8" standalone="no"?>
<!DOCTYPE svg PUBLIC "-//W3C//DTD SVG 1.1//EN" "http://www.w3.org/Graphics/SVG/1.1/DTD/svg11.dtd">
<svg width="100%" height="100%" viewBox="0 0 115 109" version="1.1" xmlns="http://www.w3.org/2000/svg" xmlns:xlink="http://www.w3.org/1999/xlink" xml:space="preserve" xmlns:serif="http://www.serif.com/" style="fill-rule:evenodd;clip-rule:evenodd;stroke-linejoin:round;stroke-miterlimit:2;">
    <g transform="matrix(1,0,0,1,-1864.1,-1074.47)">
        <g>
            <g transform="matrix(4.16667,0,0,4.16667,1868.5,1165.78)">
                <path d="M0,-18.033L2.037,-16.895L5.049,-4.655L3.63,-3.517C3.292,-3.244 3.098,-2.838 3.098,-2.399L3.098,-0.254C3.098,0.521 3.719,1.16 4.481,1.17L5.881,1.191C5.809,1.414 5.773,1.649 5.773,1.892C5.773,3.149 6.781,4.173 8.019,4.173C9.258,4.173 10.266,3.149 10.266,1.892C10.266,1.672 10.236,1.457 10.177,1.252L19.485,1.385C19.447,1.55 19.428,1.719 19.428,1.892C19.428,3.149 20.436,4.173 21.675,4.173C22.914,4.173 23.922,3.149 23.922,1.892C23.922,1.741 23.907,1.593 23.878,1.448L24.49,1.456C25.253,1.456 25.882,0.826 25.893,0.051C25.898,-0.327 25.757,-0.688 25.496,-0.961C25.235,-1.234 24.885,-1.387 24.51,-1.392L5.902,-1.659L5.902,-1.708L6.887,-2.498C6.979,-2.484 7.068,-2.476 7.156,-2.476L22.377,-2.333C23.332,-2.333 24.148,-2.993 24.361,-3.938L26.334,-12.662C26.584,-13.773 25.898,-14.885 24.805,-15.14C23.711,-15.395 22.616,-14.698 22.365,-13.588L20.76,-6.485L8.768,-6.597L5.771,-18.775C5.633,-19.33 5.271,-19.808 4.777,-20.085L1.962,-21.658C0.978,-22.206 -0.263,-21.841 -0.803,-20.841C-1.344,-19.843 -0.983,-18.582 0,-18.033M0.174,-20.295C0.419,-20.748 0.98,-20.912 1.425,-20.664L4.239,-19.093C4.463,-18.967 4.627,-18.751 4.689,-18.499L7.791,-5.897C7.853,-5.647 8.073,-5.47 8.326,-5.468L21.198,-5.347C21.461,-5.36 21.688,-5.528 21.747,-5.787L23.452,-13.333C23.566,-13.836 24.061,-14.151 24.556,-14.035C25.051,-13.92 25.36,-13.418 25.247,-12.916L23.274,-4.191C23.177,-3.765 22.809,-3.467 22.369,-3.467L7.163,-3.61C7.087,-3.61 7.005,-3.624 6.911,-3.653C6.737,-3.706 6.548,-3.669 6.405,-3.555L4.999,-2.429C4.865,-2.322 4.787,-2.157 4.787,-1.984L4.787,-1.099C4.787,-0.789 5.032,-0.538 5.337,-0.534L24.494,-0.26C24.571,-0.259 24.643,-0.227 24.696,-0.17C24.727,-0.139 24.778,-0.068 24.777,0.036C24.775,0.194 24.647,0.322 24.486,0.322L23.033,0.303C22.818,0.303 22.624,0.42 22.528,0.612C22.431,0.804 22.451,1.036 22.578,1.209C22.728,1.411 22.806,1.649 22.806,1.892C22.806,2.525 22.299,3.039 21.675,3.039C21.051,3.039 20.544,2.525 20.544,1.892C20.544,1.57 20.679,1.328 20.793,1.182C20.925,1.014 20.951,0.782 20.859,0.588C20.768,0.393 20.576,0.268 20.364,0.264L9.214,0.106L9.207,0.106C8.982,0.106 8.779,0.242 8.692,0.452C8.604,0.666 8.653,0.912 8.814,1.075C9.032,1.293 9.151,1.583 9.151,1.892C9.151,2.525 8.643,3.039 8.019,3.039C7.396,3.039 6.888,2.525 6.888,1.892C6.888,1.572 7.017,1.275 7.252,1.053C7.419,0.896 7.475,0.651 7.393,0.435C7.311,0.218 7.108,0.075 6.88,0.071L4.495,0.037C4.34,0.035 4.213,-0.096 4.213,-0.254L4.213,-2.399C4.213,-2.488 4.253,-2.573 4.322,-2.628L6.024,-3.993C6.196,-4.131 6.272,-4.358 6.219,-4.575L3.06,-17.41C3.022,-17.562 2.924,-17.693 2.787,-17.769L0.538,-19.026C0.093,-19.274 -0.07,-19.843 0.174,-20.295" style="fill:rgb(245,131,34);fill-rule:nonzero;"/>
            </g>
            <g transform="matrix(4.16667,0,0,4.16667,1935.27,1134.31)">
                <path d="M0,-11.931L-2.647,-11.931C-3.441,-11.931 -4.087,-11.274 -4.087,-10.467L-4.087,-6.994L-4.904,-6.994C-5.413,-6.994 -5.808,-6.785 -5.989,-6.418C-6.17,-6.051 -6.1,-5.603 -5.796,-5.188L-2.431,-0.6C-2.152,-0.219 -1.748,0 -1.323,0C-0.899,0 -0.495,-0.219 -0.216,-0.6L3.15,-5.188C3.454,-5.603 3.523,-6.052 3.342,-6.418C3.161,-6.785 2.765,-6.994 2.257,-6.994L1.44,-6.994L1.44,-10.467C1.44,-11.274 0.794,-11.931 0,-11.931M2.253,-5.861L-1.11,-1.275C-1.244,-1.094 -1.403,-1.094 -1.536,-1.275L-4.899,-5.861L-3.529,-5.861C-3.221,-5.861 -2.971,-6.116 -2.971,-6.428L-2.971,-10.467C-2.971,-10.649 -2.826,-10.797 -2.647,-10.797L0,-10.797C0.179,-10.797 0.325,-10.649 0.325,-10.467L0.325,-6.428C0.325,-6.116 0.574,-5.861 0.882,-5.861L2.253,-5.861Z" style="fill:rgb(245,131,34);fill-rule:nonzero;"/>
            </g>
        </g>
    </g>
</svg>
