<?xml version="1.0" encoding="UTF-8" standalone="no"?>
<!DOCTYPE svg PUBLIC "-//W3C//DTD SVG 1.1//EN" "http://www.w3.org/Graphics/SVG/1.1/DTD/svg11.dtd">
<svg width="100%" height="100%" viewBox="0 0 3840 2160" version="1.1" xmlns="http://www.w3.org/2000/svg" xmlns:xlink="http://www.w3.org/1999/xlink" xml:space="preserve" xmlns:serif="http://www.serif.com/" style="fill-rule:evenodd;clip-rule:evenodd;stroke-linejoin:round;stroke-miterlimit:2;">
    <g id="green" transform="matrix(1,0,0,1,933.122,89.5254)">
        <g transform="matrix(7.44336,0,0,7.44336,1260.45,-3184.38)">
            <path d="M-167.323,559.71C-167.331,582.81 -161.295,605.363 -149.822,625.24L-168.425,693.158L-98.916,674.933C-79.764,685.376 -58.202,690.881 -36.259,690.89L-36.203,690.89C36.058,690.89 94.887,632.08 94.917,559.812C94.929,524.785 81.301,491.852 56.547,467.077C31.79,442.303 -1.129,428.651 -36.203,428.636C-108.478,428.636 -167.295,487.434 -167.326,559.706M-125.932,621.815L-128.527,617.694C-139.438,600.347 -145.196,580.299 -145.188,559.716C-145.164,499.648 -96.277,450.775 -36.164,450.775C-7.053,450.786 20.306,462.135 40.885,482.725C61.463,503.317 72.785,530.691 72.777,559.801C72.751,619.873 23.863,668.75 -36.205,668.75L-36.248,668.75C-55.807,668.739 -74.988,663.488 -91.716,653.562L-95.698,651.202L-136.947,662.017L-125.932,621.815ZM-36.203,690.89L-36.201,690.89L-36.203,690.89C-36.204,690.89 -36.205,690.89 -36.203,690.89" style="fill:rgb(245,130,37);fill-rule:nonzero;"/>
        </g>
        <g transform="matrix(7.44336,0,0,7.44336,1256.69,-3184.38)">
            <path d="M-68.973,504.907C-71.427,499.451 -74.01,499.342 -76.345,499.246C-78.255,499.164 -80.44,499.17 -82.623,499.17C-84.808,499.17 -88.358,499.99 -91.359,503.268C-94.363,506.547 -102.827,514.472 -102.827,530.591C-102.827,546.711 -91.085,562.287 -89.45,564.475C-87.811,566.659 -66.784,600.795 -33.486,613.926C-5.81,624.839 -0.178,622.669 5.828,622.122C11.835,621.577 25.212,614.199 27.942,606.549C30.672,598.899 30.672,592.342 29.854,590.973C29.035,589.608 26.85,588.788 23.574,587.15C20.296,585.512 4.19,577.585 1.187,576.492C-1.817,575.4 -4.001,574.854 -6.186,578.134C-8.37,581.41 -14.645,588.788 -16.557,590.973C-18.468,593.162 -20.38,593.436 -23.656,591.797C-26.933,590.153 -37.485,586.697 -50.002,575.537C-59.742,566.853 -66.317,556.129 -68.229,552.849C-70.14,549.573 -68.433,547.798 -66.791,546.165C-65.319,544.697 -63.513,542.34 -61.875,540.428C-60.24,538.514 -59.695,537.149 -58.603,534.964C-57.509,532.777 -58.056,530.863 -58.875,529.225C-59.695,527.586 -66.061,511.385 -68.975,504.906" style="fill:rgb(245,130,37);"/>
        </g>
    </g>
</svg>
