<?xml version="1.0" encoding="UTF-8" standalone="no"?>
<!DOCTYPE svg PUBLIC "-//W3C//DTD SVG 1.1//EN" "http://www.w3.org/Graphics/SVG/1.1/DTD/svg11.dtd">
<svg width="100%" height="100%" viewBox="0 0 126 79" version="1.1" xmlns="http://www.w3.org/2000/svg" xmlns:xlink="http://www.w3.org/1999/xlink" xml:space="preserve" xmlns:serif="http://www.serif.com/" style="fill-rule:evenodd;clip-rule:evenodd;stroke-linejoin:round;stroke-miterlimit:2;">
    <g transform="matrix(1.00454,0,0,1.00776,-163.054,-650.462)">
        <g>
            <path d="M242.846,688.903L252.269,688.903L252.269,691.43L245.73,691.43L245.73,693.634L252.086,693.634L252.086,695.86L245.73,695.86L245.73,698.178L252.269,698.178L252.269,700.643L242.846,700.643L242.846,688.903Z" style="fill:rgb(75,75,75);fill-rule:nonzero;"/>
            <path d="M270.473,693.477C274.016,693.659 274.311,695.428 274.311,697.315C274.311,699.514 272.502,700.696 270.617,700.696L264.562,700.696L264.562,698.178L269.28,698.178C270.079,698.178 271.271,698.178 271.271,697.051C271.271,696.516 271.062,696.175 270.209,696.085C269.832,696.03 268.43,695.952 268.218,695.948C265.018,695.864 264.273,694.272 264.273,692.335C264.273,690.134 265.82,688.93 267.708,688.93L273.763,688.93L273.763,691.446L269.331,691.446C268.324,691.456 267.237,691.327 267.237,692.466C267.237,693.186 267.772,693.331 268.454,693.397C268.691,693.397 270.262,693.479 270.473,693.477Z" style="fill:rgb(75,75,75);fill-rule:nonzero;"/>
            <path d="M259.621,693.477C263.164,693.659 263.46,695.428 263.46,697.315C263.46,699.514 261.652,700.696 259.765,700.696L253.711,700.696L253.711,698.178L258.428,698.178C259.228,698.178 260.42,698.178 260.42,697.051C260.42,696.516 260.211,696.175 259.359,696.085C258.979,696.03 257.577,695.952 257.367,695.948C254.167,695.864 253.424,694.272 253.424,692.335C253.424,690.134 254.969,688.93 256.857,688.93L262.911,688.93L262.911,691.446L258.482,691.446C257.471,691.456 256.385,691.327 256.385,692.466C256.385,693.186 256.922,693.331 257.604,693.397C257.838,693.397 259.413,693.479 259.621,693.477Z" style="fill:rgb(75,75,75);fill-rule:nonzero;"/>
            <path d="M224.475,694.266L220.885,694.266L220.885,691.448L224.485,691.448C225.691,691.448 226.073,692.221 226.073,692.798C226.073,693.585 225.654,694.266 224.475,694.266ZM217.976,699.542L213.835,694.641L217.976,690.055L217.976,699.542ZM206.956,698.178L200.313,698.178L200.313,695.86L206.668,695.86L206.668,693.634L200.313,693.634L200.313,691.43L207.322,691.446L210.128,694.641L206.956,698.178ZM225.444,688.928L215.329,688.928L212.026,692.571L208.831,688.903L197.469,688.903L197.469,700.643L208.464,700.643L211.922,696.764L215.303,700.671L220.833,700.671L220.833,696.684L224.711,696.684C226.206,696.684 228.931,696.634 228.931,692.518C228.931,689.583 226.86,688.928 225.444,688.928Z" style="fill:rgb(75,75,75);fill-rule:nonzero;"/>
            <path d="M236.879,694.108L233.29,694.108L233.29,691.448L236.892,691.448C238.098,691.448 238.477,692.221 238.477,692.798C238.477,693.583 238.059,694.108 236.879,694.108ZM239.368,695.323C240.941,694.538 241.36,693.489 241.36,692.073C241.36,689.559 239.317,688.93 237.9,688.93L230.407,688.93L230.407,700.671L233.29,700.671L233.29,696.528L237.063,696.528C238.059,696.528 238.452,697.524 238.477,698.52L238.556,700.671L241.36,700.671L241.255,698.259C241.255,696.37 240.732,695.479 239.368,695.323Z" style="fill:rgb(75,75,75);fill-rule:nonzero;"/>
            <rect x="231.562" y="668.635" width="2.882" height="11.754" style="fill:rgb(75,75,75);"/>
            <path d="M207.965,668.649L217.385,668.649L217.385,671.176L210.85,671.176L210.85,673.38L217.203,673.38L217.203,675.606L210.85,675.606L210.85,677.925L217.385,677.925L217.385,680.389L207.965,680.389L207.965,668.649Z" style="fill:rgb(75,75,75);fill-rule:nonzero;"/>
            <path d="M225.57,673.827L221.98,673.827L221.98,671.167L225.583,671.167C226.789,671.167 227.168,671.94 227.168,672.516C227.168,673.303 226.75,673.827 225.57,673.827ZM228.06,675.042C229.633,674.259 230.052,673.208 230.052,671.792C230.052,669.276 228.008,668.649 226.591,668.649L219.098,668.649L219.098,680.389L221.98,680.389L221.98,676.249L225.752,676.249C226.75,676.249 227.143,677.243 227.168,678.239L227.249,680.389L230.052,680.389L229.947,677.977C229.947,676.091 229.423,675.2 228.06,675.042Z" style="fill:rgb(75,75,75);fill-rule:nonzero;"/>
            <path d="M181.008,675.235L182.727,671.132L184.518,675.235L181.008,675.235ZM201.318,668.649L197.781,676.524L194.255,668.649L189.735,668.649L189.735,679.956L184.703,668.649L180.89,668.649L175.753,680.389L178.794,680.389L179.918,677.768L185.672,677.768L186.813,680.389L192.618,680.389L192.618,671.675L196.469,680.389L199.09,680.389L203.034,671.819L203.034,680.389L205.917,680.389L205.917,668.649L201.318,668.649Z" style="fill:rgb(75,75,75);fill-rule:nonzero;"/>
            <path d="M246.484,675.241L248.201,671.137L250.009,675.241L246.484,675.241ZM264.189,668.643L264.189,676.772L259.329,668.643L255.069,668.643L255.069,679.669L250.157,668.649L246.343,668.649L242.372,677.743C242.372,677.743 240.695,677.743 240.526,677.702C239.829,677.559 238.745,677.069 238.731,674.999L238.731,674.147C238.731,671.395 240.226,671.194 242.141,671.194L243.921,671.194L243.921,668.643L240.157,668.643C238.847,668.643 235.996,669.643 235.9,674.466C235.834,677.716 237.25,680.395 240.445,680.395L244.246,680.395L245.373,677.774L251.125,677.774L252.265,680.395L257.95,680.395L257.95,671.798L263.14,680.395L267.071,680.395L267.071,668.643L264.189,668.643Z" style="fill:rgb(75,75,75);fill-rule:nonzero;"/>
        </g>
    </g>
</svg>
