<?xml version="1.0" encoding="UTF-8" standalone="no"?>
<!DOCTYPE svg PUBLIC "-//W3C//DTD SVG 1.1//EN" "http://www.w3.org/Graphics/SVG/1.1/DTD/svg11.dtd">
<svg width="100%" height="100%" viewBox="0 0 126 79" version="1.1" xmlns="http://www.w3.org/2000/svg" xmlns:xlink="http://www.w3.org/1999/xlink" xml:space="preserve" xmlns:serif="http://www.serif.com/" style="fill-rule:evenodd;clip-rule:evenodd;stroke-linejoin:round;stroke-miterlimit:2;">
    <g transform="matrix(0.465459,0,0,0.465459,5.50897,1.495)">
        <g>
            <g id="Mark">
                <g id="_Group_">
                    <g id="_Group_2_" serif:id="_Group_2">
                        <g id="_Path_3_" serif:id="_Path_3" transform="matrix(1,0,0,1,0,-0.1)">
                            <path d="M65.1,53.6C67.372,50.903 68.487,47.414 68.2,43.9C64.705,44.24 61.476,45.926 59.2,48.6C57.3,50.8 55.5,54.5 56,58C59.4,58.2 62.9,56.2 65.1,53.6" style="fill:rgb(75,75,75);fill-rule:nonzero;"/>
                        </g>
                        <g id="_Path_4_" serif:id="_Path_4" transform="matrix(1,0,0,1,0,-0.1)">
                            <path d="M68.2,58.5C63.2,58.2 58.9,61.3 56.5,61.3C54.1,61.3 50.4,58.6 46.5,58.7C41.267,58.858 36.481,61.744 33.9,66.3C28.5,75.6 32.5,89.3 37.7,96.9C40.2,100.6 43.3,104.8 47.3,104.6C51.1,104.5 52.6,102.1 57.2,102.1C61.8,102.1 63.2,104.6 67.2,104.5C71.4,104.4 74,100.8 76.5,97C78.272,94.33 79.684,91.439 80.7,88.4C80.6,88.3 72.6,85.3 72.6,76.1C72.5,68.4 78.9,64.7 79.2,64.5C75.7,59.3 70.1,58.7 68.2,58.5" style="fill:rgb(75,75,75);fill-rule:nonzero;"/>
                        </g>
                    </g>
                    <g id="_Group_3_" serif:id="_Group_3">
                        <g id="_Compound_Path_" transform="matrix(1,0,0,1,0,-0.1)">
                            <path d="M118.1,48.1C129,48.1 136.6,55.6 136.6,66.5C136.6,77.4 128.9,85 117.9,85L105.8,85L105.8,104.2L97.1,104.2L97.1,48.1L118.1,48.1ZM105.8,77.7L115.8,77.7C123.4,77.7 127.7,73.6 127.7,66.5C127.7,59.4 123.4,55.4 115.8,55.4L105.8,55.4L105.8,77.7Z" style="fill:rgb(75,75,75);fill-rule:nonzero;"/>
                        </g>
                        <g id="_Compound_Path_2_" serif:id="_Compound_Path_2" transform="matrix(1,0,0,1,0,-0.1)">
                            <path d="M138.7,92.6C138.7,85.4 144.2,81.3 154.3,80.7L165.1,80L165.1,76.9C165.1,72.4 162.1,69.9 156.8,69.9C152.4,69.9 149.2,72.2 148.6,75.6L140.7,75.6C140.9,68.3 147.8,63 157,63C167,63 173.4,68.2 173.4,76.3L173.4,104.2L165.4,104.2L165.4,97.5L165.2,97.5C162.9,101.9 157.9,104.7 152.4,104.7C144.4,104.6 138.7,99.8 138.7,92.6ZM165.1,89L165.1,85.9L155.4,86.5C150,86.8 147.1,88.9 147.1,92.4C147.1,95.9 150.1,98 154.7,98C160.7,98 165.1,94.2 165.1,89Z" style="fill:rgb(75,75,75);fill-rule:nonzero;"/>
                        </g>
                        <g id="_Path_5_" serif:id="_Path_5" transform="matrix(1,0,0,1,0,-0.1)">
                            <path d="M180.9,119.2L180.9,112.5C181.761,112.624 182.63,112.691 183.5,112.7C187.3,112.7 189.5,111.1 190.8,106.9L191.6,104.4L176.9,63.6L186,63.6L196.3,96.7L196.5,96.7L206.8,63.6L215.7,63.6L200.4,106.5C196.9,116.3 192.9,119.6 184.4,119.6C183.227,119.527 182.059,119.394 180.9,119.2Z" style="fill:rgb(75,75,75);fill-rule:nonzero;"/>
                        </g>
                    </g>
                </g>
            </g>
        </g>
    </g>
</svg>
