<?xml version="1.0" encoding="UTF-8" standalone="no"?>
<!DOCTYPE svg PUBLIC "-//W3C//DTD SVG 1.1//EN" "http://www.w3.org/Graphics/SVG/1.1/DTD/svg11.dtd">
<svg width="100%" height="100%" viewBox="0 0 126 79" version="1.1" xmlns="http://www.w3.org/2000/svg" xmlns:xlink="http://www.w3.org/1999/xlink" xml:space="preserve" xmlns:serif="http://www.serif.com/" style="fill-rule:evenodd;clip-rule:evenodd;stroke-linejoin:round;stroke-miterlimit:2;">
    <g transform="matrix(0.605305,0,0,0.605305,-12.4816,-2.629)">
        <g id="Mark">
            <g transform="matrix(1.65206,0,0,1.65206,20.6194,4.34326)">
                <path d="M16.11,47.561L16.109,47.562C14.896,45.125 14.213,42.386 14.213,39.5C14.213,36.593 14.906,33.835 16.136,31.383L16.171,31.313C19.196,25.349 25.4,21.22 32.493,21.22C36.929,21.196 41.222,22.813 44.539,25.76L39.212,31.086C37.33,29.51 34.948,28.651 32.493,28.665C27.759,28.665 23.696,31.786 22.266,36.066L22.25,36.116C21.905,37.164 21.719,38.281 21.719,39.44C21.719,40.621 21.913,41.761 22.271,42.828L22.271,42.828C23.709,47.094 27.764,50.2 32.488,50.2C34.813,50.2 36.871,49.657 38.507,48.638L38.546,48.614C40.47,47.404 41.804,45.534 42.294,43.118L32.488,43.118L32.488,36.036L49.497,36.036C49.765,37.167 49.907,38.324 49.921,39.486C49.921,45.415 47.763,50.051 44.435,53.172L44.435,53.172C41.24,56.168 36.966,57.766 32.488,57.766C25.352,57.766 19.114,53.587 16.11,47.561Z" style="fill:rgb(75,75,75);fill-rule:nonzero;"/>
            </g>
            <g id="Pay">
                <g transform="matrix(1,0,0,1,0,0.1)">
                    <path d="M136.8,73.3L136.8,85.8L131.3,85.8L131.3,52.9L144.2,52.9C147.8,52.9 150.7,53.8 152.7,55.7C154.788,57.577 155.927,60.295 155.8,63.1C155.947,65.908 154.805,68.635 152.7,70.5C150.6,72.4 147.8,73.3 144.2,73.3L136.8,73.3ZM136.8,68.9L144.2,68.9C145.89,69.041 147.562,68.459 148.8,67.3C149.804,66.175 150.341,64.707 150.3,63.2C150.31,63.067 150.315,62.933 150.315,62.799C150.315,59.765 147.818,57.269 144.785,57.269C144.589,57.269 144.394,57.279 144.2,57.3L136.8,57.3L136.8,68.9Z" style="fill:rgb(75,75,75);fill-rule:nonzero;"/>
                </g>
                <g transform="matrix(1,0,0,1,0,0.1)">
                    <path d="M175.1,85.8C174.887,85.214 174.72,84.612 174.6,84L174.3,82.2C173.506,83.359 172.486,84.346 171.3,85.1C170.084,85.9 168.656,86.318 167.2,86.3C165.051,86.412 162.938,85.696 161.3,84.3C159.89,82.871 159.161,80.903 159.3,78.9C159.19,76.702 160.258,74.604 162.1,73.4C164.471,71.951 167.225,71.254 170,71.4L174.3,71.4L174.3,69.2C174.356,68.093 173.959,67.009 173.2,66.2C172.313,65.439 171.167,65.046 170,65.1C168.926,65.045 167.866,65.363 167,66C166.31,66.565 165.906,67.408 165.9,68.3L160.6,68.3L160.6,68.2C160.576,66.178 161.55,64.269 163.2,63.1C165.261,61.533 167.815,60.752 170.4,60.9C172.893,60.746 175.356,61.531 177.3,63.1C179.1,64.5 179.9,66.6 179.9,69.3L179.9,80.2C179.913,81.17 179.98,82.138 180.1,83.1C180.239,84.022 180.474,84.927 180.8,85.8L175.1,85.8ZM168.3,81.9C169.605,81.938 170.892,81.59 172,80.9C172.958,80.339 173.725,79.503 174.2,78.5L174.2,74.9L169.8,74.9C168.429,74.82 167.076,75.247 166,76.1C165.137,76.775 164.622,77.804 164.6,78.9C164.557,79.73 164.887,80.538 165.5,81.1C166.336,81.632 167.309,81.91 168.3,81.9Z" style="fill:rgb(75,75,75);fill-rule:nonzero;"/>
                </g>
                <g transform="matrix(1,0,0,1,0,0.1)">
                    <path d="M193.3,76L193.8,78.4L193.9,78.4L199.3,61.3L205.3,61.3L195.2,89.5C194.603,91.132 193.685,92.629 192.5,93.9C191.166,95.183 189.346,95.838 187.5,95.7C186.998,95.713 186.496,95.68 186,95.6L184.5,95.3L185.1,91C185.37,90.99 185.641,91.023 185.9,91.1C186.164,91.151 186.436,91.151 186.7,91.1C187.61,91.149 188.494,90.78 189.1,90.1C189.714,89.377 190.22,88.569 190.6,87.7L191.5,85.5L182.6,61.3L188.6,61.3L193.3,76Z" style="fill:rgb(75,75,75);fill-rule:nonzero;"/>
                </g>
            </g>
        </g>
    </g>
</svg>
