<?xml version="1.0" encoding="UTF-8" standalone="no"?>
<!DOCTYPE svg PUBLIC "-//W3C//DTD SVG 1.1//EN" "http://www.w3.org/Graphics/SVG/1.1/DTD/svg11.dtd">
<svg width="100%" height="100%" viewBox="0 0 126 79" version="1.1" xmlns="http://www.w3.org/2000/svg" xmlns:xlink="http://www.w3.org/1999/xlink" xml:space="preserve" xmlns:serif="http://www.serif.com/" style="fill-rule:evenodd;clip-rule:evenodd;stroke-linejoin:round;stroke-miterlimit:2;">
    <g transform="matrix(1.00454,0,0,1.00773,-0.000302838,-195.496)">
        <g>
            <path d="M83.175,236.799C82.916,236.962 82.643,237.102 82.356,237.222C81.969,237.377 81.605,237.459 81.267,237.459C80.747,237.459 80.348,237.384 80.079,237.228C79.809,237.079 79.667,236.82 79.672,236.45C79.672,236.023 79.771,235.69 79.974,235.43C80.18,235.18 80.486,234.978 80.865,234.828C81.243,234.699 81.707,234.595 82.241,234.52C82.718,234.46 83.659,234.351 83.779,234.35C83.9,234.35 83.981,234.283 83.927,234.603C83.903,234.742 83.63,235.859 83.505,236.365C83.469,236.518 83.267,236.74 83.175,236.799ZM86.871,228.957C86.077,228.515 84.837,228.291 83.139,228.291C82.3,228.291 81.458,228.358 80.611,228.49C79.989,228.584 79.926,228.6 79.54,228.683C78.747,228.857 78.623,229.652 78.623,229.652L78.369,230.701C78.225,231.371 78.606,231.343 78.775,231.292C79.123,231.187 79.31,231.082 80.018,230.922C80.694,230.77 81.408,230.654 81.977,230.659C82.813,230.659 83.449,230.751 83.872,230.927C84.293,231.112 84.503,231.425 84.503,231.874C84.505,231.981 84.507,232.081 84.469,232.17C84.434,232.252 84.368,232.332 84.167,232.359C82.975,232.429 82.12,232.538 81.087,232.689C80.072,232.832 79.181,233.077 78.437,233.417C77.644,233.768 77.051,234.239 76.641,234.836C76.244,235.435 76.043,236.161 76.042,237.016C76.042,237.824 76.332,238.484 76.894,238.995C77.463,239.5 78.202,239.75 79.097,239.75C79.655,239.746 80.094,239.705 80.406,239.627C80.716,239.549 81.055,239.438 81.413,239.283C81.679,239.171 81.968,239.01 82.272,238.807C82.578,238.604 82.788,238.459 83.06,238.281L83.069,238.298L82.993,238.635C82.992,238.638 82.988,238.64 82.988,238.642L82.991,238.649C82.902,239.054 83.147,239.39 83.547,239.432L83.553,239.438L83.587,239.438L83.59,239.44C83.856,239.44 84.769,239.44 85.197,239.438L85.494,239.438C85.513,239.438 85.516,239.432 85.524,239.426C85.932,239.377 86.325,239.043 86.418,238.642L87.943,232.062C87.977,231.907 88.005,231.729 88.021,231.522C88.041,231.314 88.064,231.144 88.058,231.019C88.061,230.089 87.66,229.4 86.871,228.957Z" style="fill:rgb(75,75,75);fill-rule:nonzero;"/>
            <path d="M60.636,228.436C60.191,228.436 59.603,228.799 59.325,229.236C59.325,229.236 56.333,234.366 56.04,234.878C55.879,235.154 55.717,234.979 55.689,234.877C55.669,234.752 54.765,229.27 54.765,229.27C54.662,228.829 54.2,228.45 53.624,228.452L51.759,228.455C51.308,228.455 51.027,228.814 51.127,229.25C51.127,229.25 52.554,237.334 52.832,239.235C52.971,240.285 52.818,240.473 52.818,240.473L50.968,243.697C50.698,244.133 50.846,244.492 51.294,244.492L53.456,244.49C53.903,244.49 54.496,244.134 54.765,243.696L63.081,229.628C63.081,229.628 63.877,228.426 63.143,228.436C62.643,228.445 60.636,228.436 60.636,228.436Z" style="fill:rgb(75,75,75);fill-rule:nonzero;"/>
            <path d="M38.888,227.121C38.628,226.615 38.24,226.204 37.743,225.894C37.229,225.575 36.628,225.357 35.93,225.224C35.227,225.099 34.407,225.038 33.465,225.029L29.107,225.032C28.653,225.038 28.211,225.392 28.106,225.827L25.167,238.606C25.065,239.042 25.347,239.403 25.799,239.403L27.889,239.403C28.338,239.403 28.788,239.051 28.887,238.606L29.607,235.504C29.703,235.071 30.15,234.711 30.603,234.711L31.199,234.711C33.753,234.709 35.734,234.187 37.157,233.141C38.579,232.098 39.289,230.715 39.286,229.003C39.289,228.252 39.159,227.624 38.888,227.121ZM34.379,231.297C33.749,231.757 32.877,231.988 31.744,231.988L31.232,231.988C30.781,231.988 30.496,231.63 30.597,231.19L31.225,228.482C31.32,228.046 31.77,227.683 32.222,227.688L32.905,227.683C33.703,227.683 34.309,227.819 34.72,228.092C35.123,228.355 35.328,228.773 35.319,229.335C35.332,230.18 35.011,230.834 34.379,231.297Z" style="fill:rgb(75,75,75);fill-rule:nonzero;"/>
            <path d="M76.796,227.167C76.536,226.662 76.144,226.254 75.647,225.937C75.137,225.619 74.532,225.399 73.832,225.27C73.139,225.148 72.314,225.078 71.376,225.077L67.007,225.078C66.557,225.086 66.116,225.44 66.011,225.875L63.076,238.655C62.968,239.09 63.259,239.453 63.702,239.45L65.798,239.447C66.241,239.45 66.694,239.09 66.8,238.655L67.508,235.555C67.607,235.12 68.06,234.756 68.511,234.762L69.107,234.762C71.665,234.762 73.647,234.237 75.067,233.191C76.483,232.139 77.194,230.762 77.194,229.048C77.19,228.299 77.063,227.669 76.796,227.167ZM72.29,231.348C71.665,231.803 70.787,232.032 69.656,232.032L69.137,232.032C68.687,232.036 68.398,231.673 68.503,231.238L69.13,228.525C69.224,228.095 69.68,227.73 70.123,227.735L70.809,227.73C71.611,227.735 72.21,227.869 72.624,228.134C73.03,228.405 73.227,228.823 73.23,229.38C73.232,230.229 72.918,230.883 72.29,231.348Z" style="fill:rgb(75,75,75);fill-rule:nonzero;"/>
            <path d="M45.258,236.79C45,236.953 44.726,237.092 44.438,237.212C44.053,237.366 43.686,237.448 43.348,237.448C42.831,237.448 42.43,237.375 42.161,237.218C41.891,237.07 41.75,236.81 41.753,236.44C41.753,236.012 41.853,235.681 42.058,235.42C42.263,235.169 42.567,234.968 42.946,234.818C43.325,234.689 43.79,234.586 44.324,234.509C44.8,234.449 45.742,234.342 45.863,234.34C45.982,234.34 46.063,234.273 46.009,234.593C45.985,234.733 45.714,235.849 45.588,236.356C45.551,236.509 45.35,236.73 45.258,236.79ZM48.952,228.947C48.159,228.505 46.919,228.281 45.222,228.281C44.383,228.281 43.54,228.347 42.693,228.479C42.071,228.574 42.009,228.591 41.622,228.674C40.829,228.848 40.707,229.642 40.707,229.642L40.451,230.69C40.306,231.362 40.69,231.334 40.86,231.281C41.205,231.177 41.394,231.074 42.101,230.913C42.775,230.759 43.49,230.645 44.06,230.649C44.896,230.649 45.531,230.74 45.954,230.916C46.376,231.101 46.585,231.416 46.585,231.864C46.587,231.971 46.59,232.073 46.551,232.159C46.517,232.243 46.45,232.322 46.25,232.348C45.058,232.42 44.204,232.529 43.169,232.678C42.152,232.822 41.263,233.067 40.519,233.407C39.726,233.759 39.134,234.23 38.724,234.827C38.325,235.426 38.125,236.152 38.125,237.006C38.125,237.815 38.415,238.473 38.977,238.985C39.545,239.49 40.286,239.74 41.179,239.74C41.739,239.736 42.174,239.695 42.49,239.617C42.799,239.538 43.138,239.427 43.495,239.273C43.762,239.161 44.05,238.999 44.355,238.797C44.66,238.594 44.872,238.449 45.142,238.272L45.151,238.288L45.075,238.624C45.075,238.628 45.071,238.63 45.071,238.634L45.074,238.639C44.986,239.045 45.229,239.381 45.63,239.42L45.635,239.427L45.67,239.427L45.671,239.432C45.939,239.432 46.851,239.429 47.278,239.427L47.577,239.427C47.597,239.427 47.599,239.421 47.606,239.416C48.015,239.364 48.407,239.033 48.501,238.634L50.025,232.051C50.06,231.898 50.088,231.718 50.103,231.512C50.124,231.304 50.146,231.133 50.139,231.01C50.143,230.078 49.742,229.39 48.952,228.947Z" style="fill:rgb(75,75,75);fill-rule:nonzero;"/>
            <path d="M94.069,225.182L92.196,225.182C91.776,225.182 91.358,225.5 91.227,225.906C91.219,225.931 91.202,225.952 91.195,225.977C91.195,225.977 91.158,226.15 91.092,226.446L88.514,238.138C88.451,238.415 88.409,238.596 88.397,238.642L88.402,238.65C88.315,239.053 88.558,239.379 88.953,239.421L88.965,239.438L90.903,239.438C91.325,239.438 91.747,239.114 91.875,238.708C91.882,238.685 91.899,238.666 91.904,238.642L94.704,225.976L94.7,225.974C94.794,225.542 94.516,225.182 94.069,225.182Z" style="fill:rgb(75,75,75);fill-rule:nonzero;"/>
            <path d="M96.903,227.76C96.839,227.778 96.771,227.792 96.695,227.801C96.618,227.814 96.55,227.819 96.492,227.819C96.284,227.819 96.126,227.763 96.019,227.652C95.911,227.54 95.857,227.361 95.857,227.115L95.857,226.035L95.625,226.035L95.625,225.747L95.857,225.747L95.857,225.164L96.198,225.164L96.198,225.747L96.903,225.747L96.903,226.035L96.198,226.035L96.198,226.961C96.198,227.067 96.202,227.15 96.205,227.21C96.211,227.271 96.227,227.326 96.256,227.379C96.283,227.428 96.319,227.463 96.367,227.486C96.414,227.508 96.485,227.519 96.581,227.519C96.637,227.519 96.695,227.51 96.755,227.494C96.815,227.479 96.86,227.464 96.886,227.453L96.903,227.453L96.903,227.76Z" style="fill:rgb(75,75,75);fill-rule:nonzero;"/>
            <path d="M100.285,227.78L99.941,227.78L99.941,226.622C99.941,226.536 99.938,226.451 99.929,226.369C99.921,226.288 99.905,226.223 99.879,226.174C99.851,226.122 99.812,226.083 99.758,226.057C99.706,226.03 99.631,226.016 99.534,226.016C99.438,226.016 99.342,226.04 99.247,226.089C99.15,226.135 99.055,226.197 98.96,226.271C98.962,226.299 98.964,226.331 98.967,226.368C98.97,226.405 98.972,226.441 98.972,226.477L98.972,227.78L98.63,227.78L98.63,226.622C98.63,226.533 98.625,226.447 98.618,226.367C98.61,226.285 98.592,226.221 98.567,226.174C98.539,226.121 98.5,226.082 98.447,226.055C98.395,226.03 98.321,226.016 98.222,226.016C98.128,226.016 98.035,226.039 97.939,226.086C97.846,226.131 97.753,226.19 97.658,226.261L97.658,227.78L97.317,227.78L97.317,225.747L97.658,225.747L97.658,225.971C97.766,225.884 97.873,225.814 97.98,225.765C98.085,225.716 98.197,225.69 98.319,225.69C98.456,225.69 98.574,225.719 98.67,225.778C98.766,225.836 98.838,225.916 98.886,226.021C99.023,225.904 99.15,225.819 99.264,225.768C99.378,225.717 99.501,225.69 99.628,225.69C99.853,225.69 100.018,225.759 100.125,225.893C100.23,226.029 100.285,226.219 100.285,226.46L100.285,227.78Z" style="fill:rgb(75,75,75);fill-rule:nonzero;"/>
        </g>
    </g>
</svg>
