<?xml version="1.0" encoding="UTF-8" standalone="no"?>
<!DOCTYPE svg PUBLIC "-//W3C//DTD SVG 1.1//EN" "http://www.w3.org/Graphics/SVG/1.1/DTD/svg11.dtd">
<svg width="100%" height="100%" viewBox="0 0 126 79" version="1.1" xmlns="http://www.w3.org/2000/svg" xmlns:xlink="http://www.w3.org/1999/xlink" xml:space="preserve" xmlns:serif="http://www.serif.com/" style="fill-rule:evenodd;clip-rule:evenodd;stroke-linejoin:round;stroke-miterlimit:2;">
    <g transform="matrix(1.00454,0,0,1.00776,0.00077617,-81.7602)">
        <g>
            <path d="M57.721,132.102L51.594,132.102L55.423,108.568L61.552,108.568L57.721,132.102Z" style="fill:rgb(75,75,75);fill-rule:nonzero;"/>
            <path d="M46.439,108.568L40.598,124.755L39.906,121.269L39.906,121.27L37.844,110.687C37.844,110.687 37.596,108.568 34.938,108.568L25.281,108.568L25.168,108.967C25.168,108.967 28.122,109.58 31.579,111.656L36.901,132.102L43.285,132.102L53.034,108.568L46.439,108.568Z" style="fill:rgb(75,75,75);fill-rule:nonzero;"/>
            <path d="M87.892,123.778L91.111,114.969L92.923,123.778L87.892,123.778ZM94.634,132.102L100.261,132.102L95.355,108.568L90.43,108.568C88.155,108.568 87.6,110.321 87.6,110.321L78.462,132.102L84.849,132.102L86.127,128.607L93.916,128.607L94.634,132.102Z" style="fill:rgb(75,75,75);fill-rule:nonzero;"/>
            <path d="M78.941,114.227L79.815,109.173C79.815,109.173 77.117,108.147 74.305,108.147C71.264,108.147 64.043,109.476 64.043,115.938C64.043,122.019 72.519,122.094 72.519,125.286C72.519,128.479 64.917,127.909 62.407,125.895L61.497,131.177C61.497,131.177 64.232,132.508 68.414,132.508C72.594,132.508 78.904,130.342 78.904,124.451C78.904,118.332 70.352,117.761 70.352,115.101C70.352,112.44 76.32,112.782 78.941,114.227Z" style="fill:rgb(75,75,75);fill-rule:nonzero;"/>
            <path d="M39.906,121.27L37.844,110.687C37.844,110.687 37.596,108.568 34.938,108.568L25.281,108.568L25.168,108.967C25.168,108.967 29.811,109.928 34.263,113.531C38.52,116.977 39.906,121.27 39.906,121.27Z" style="fill:rgb(75,75,75);fill-rule:nonzero;"/>
        </g>
    </g>
</svg>
