<?xml version="1.0" encoding="UTF-8" standalone="no"?>
<!DOCTYPE svg PUBLIC "-//W3C//DTD SVG 1.1//EN" "http://www.w3.org/Graphics/SVG/1.1/DTD/svg11.dtd">
<svg width="100%" height="100%" viewBox="0 0 116 78" version="1.1" xmlns="http://www.w3.org/2000/svg" xmlns:xlink="http://www.w3.org/1999/xlink" xml:space="preserve" xmlns:serif="http://www.serif.com/" style="fill-rule:evenodd;clip-rule:evenodd;stroke-linejoin:round;stroke-miterlimit:2;">
    <g transform="matrix(1,0,0,1,-294.493,-496.389)">
        <g transform="matrix(4.16667,0,0,4.16667,409.984,519.251)">
            <path d="M0,7.603C0,4.577 -2.607,2.115 -5.811,2.115C-6.02,2.115 -6.234,2.127 -6.444,2.148C-6.432,1.983 -6.427,1.822 -6.427,1.665C-6.427,-2.277 -9.664,-5.487 -13.642,-5.487C-15.467,-5.487 -17.209,-4.808 -18.546,-3.58C-19.875,-2.358 -20.687,-0.704 -20.833,1.077C-21.098,1.044 -21.367,1.026 -21.632,1.026C-24.988,1.026 -27.718,3.731 -27.718,7.058C-27.718,10.366 -25.002,13.07 -21.669,13.088L-15.589,13.09C-15.436,13.09 -15.29,13.027 -15.185,12.917C-15.08,12.808 -15.025,12.661 -15.033,12.511C-15.033,12.506 -15.034,12.501 -15.034,12.496L-15.034,8.004C-15.034,7.699 -15.283,7.453 -15.59,7.453L-16.369,7.453L-13.945,4.496C-13.887,4.425 -13.831,4.425 -13.773,4.496L-11.349,7.453L-12.128,7.453C-12.435,7.453 -12.684,7.699 -12.684,8.004L-12.684,12.501C-12.685,12.514 -12.685,12.527 -12.685,12.539C-12.685,12.843 -12.436,13.09 -12.129,13.09L-5.861,13.09L-5.781,13.088C-2.593,13.074 0,10.612 0,7.603M-5.789,11.986L-11.572,11.987L-11.572,8.555L-11.048,8.555C-10.396,8.555 -10.154,8.197 -10.079,8.042C-10.008,7.894 -9.882,7.494 -10.268,7.023L-12.909,3.801C-13.151,3.505 -13.497,3.337 -13.859,3.337C-14.221,3.337 -14.567,3.505 -14.809,3.801L-17.451,7.023C-17.836,7.494 -17.711,7.894 -17.639,8.042C-17.565,8.197 -17.322,8.555 -16.67,8.555L-16.146,8.555L-16.146,11.987L-21.553,11.987L-21.658,11.986C-24.386,11.971 -26.606,9.76 -26.606,7.058C-26.606,4.341 -24.374,2.128 -21.632,2.128C-21.413,2.128 -21.192,2.144 -20.972,2.171L-20.399,2.248C-20.248,2.266 -20.095,2.225 -19.976,2.128C-19.858,2.035 -19.783,1.896 -19.771,1.744L-19.725,1.173C-19.602,-0.336 -18.915,-1.738 -17.79,-2.771C-16.659,-3.811 -15.186,-4.384 -13.642,-4.384C-10.277,-4.384 -7.54,-1.67 -7.54,1.665C-7.54,1.8 -7.544,1.94 -7.554,2.082L-7.598,2.728C-7.61,2.89 -7.548,3.048 -7.43,3.162C-7.312,3.274 -7.15,3.331 -6.986,3.314L-6.334,3.246C-6.16,3.228 -5.983,3.218 -5.811,3.218C-3.221,3.218 -1.113,5.186 -1.113,7.603C-1.113,10.006 -3.209,11.974 -5.789,11.986" style="fill:rgb(245,131,34);fill-rule:nonzero;"/>
        </g>
    </g>
</svg>
