<?xml version="1.0" encoding="UTF-8" standalone="no"?>
<!DOCTYPE svg PUBLIC "-//W3C//DTD SVG 1.1//EN" "http://www.w3.org/Graphics/SVG/1.1/DTD/svg11.dtd">
<svg width="100%" height="100%" viewBox="0 0 2481 3508" version="1.1" xmlns="http://www.w3.org/2000/svg" xmlns:xlink="http://www.w3.org/1999/xlink" xml:space="preserve" xmlns:serif="http://www.serif.com/" style="fill-rule:evenodd;clip-rule:evenodd;stroke-linejoin:round;stroke-miterlimit:2;">
    <g id="iPhone678">
        <path id="Frame" d="M680.769,61.941L680.77,61.935C680.77,61.935 1809.15,61.846 1810.38,61.843C1838.34,61.771 2073.54,68.173 2073.41,303.798L2073.5,305.547L2073.41,782.348L2085.26,782.348L2085.26,1035.29L2074.1,1035.29L2074.1,3187.12C2074.1,3187.12 2077.18,3446.39 1839.43,3446C1601.67,3445.61 674.343,3446 674.343,3446C674.343,3446 409.072,3455.18 409.072,3176.32L409.823,3167.71L409.822,1345.44L396.773,1345.44L396.773,1094.01L408.527,1094.01L408.527,1036.2L395.744,1036.2L395.744,782.898L409.81,782.898L409.81,632.645L396.885,632.645L396.885,494.692L411.065,494.692L411.065,332.02C411.065,332.02 385.754,62.372 680.769,61.941ZM1242.98,3091.81C1314.83,3091.81 1373.17,3150.15 1373.17,3222C1373.17,3293.85 1314.83,3352.19 1242.98,3352.19C1171.13,3352.19 1112.79,3293.85 1112.79,3222C1112.79,3150.15 1171.13,3091.81 1242.98,3091.81ZM516.186,474.818L517.483,1941.23L516.74,1949.74L517.696,3029.67L1973.02,3029.67L1973.02,474.818L516.186,474.818Z" style="fill:rgb(245,130,37);"/>
    </g>
</svg>
