<?xml version="1.0" encoding="UTF-8" standalone="no"?>
<!DOCTYPE svg PUBLIC "-//W3C//DTD SVG 1.1//EN" "http://www.w3.org/Graphics/SVG/1.1/DTD/svg11.dtd">
<svg width="100%" height="100%" viewBox="0 0 76 78" version="1.1" xmlns="http://www.w3.org/2000/svg" xmlns:xlink="http://www.w3.org/1999/xlink" xml:space="preserve" xmlns:serif="http://www.serif.com/" style="fill-rule:evenodd;clip-rule:evenodd;stroke-linejoin:round;stroke-miterlimit:2;">
    <g transform="matrix(1,0,0,1,-307.623,-652.516)">
        <g>
            <g transform="matrix(4.16667,0,0,4.16667,314.187,664.15)">
                <path d="M0,12.663C0.099,13.003 -0.075,13.544 -0.061,13.555C-0.061,13.555 -0.061,13.558 -0.064,13.558L-0.061,13.558L-0.061,13.555C-0.053,13.569 0.494,13.58 0.776,13.787C1.046,14.014 1.218,14.544 1.229,14.55L1.228,14.552L1.229,14.55C1.245,14.558 1.691,14.226 2.038,14.229C2.385,14.237 2.824,14.574 2.84,14.572C2.85,14.558 3.035,14.036 3.31,13.809C3.596,13.613 4.143,13.619 4.157,13.602L4.157,13.605C4.157,13.605 4.151,13.602 4.157,13.602C4.162,13.594 3.999,13.052 4.106,12.71C4.226,12.373 4.664,12.044 4.667,12.025C4.667,12.014 4.234,11.671 4.117,11.329C4.022,10.989 4.199,10.453 4.185,10.439L4.189,10.437L4.185,10.434C4.189,10.437 4.185,10.439 4.185,10.439C4.175,10.426 3.63,10.42 3.347,10.207C3.077,9.989 2.904,9.451 2.896,9.442C2.88,9.437 2.434,9.765 2.088,9.765C1.738,9.757 1.298,9.42 1.282,9.423C1.27,9.431 1.09,9.959 0.815,10.18C0.526,10.384 -0.016,10.379 -0.029,10.392L-0.029,10.387L-0.032,10.387L-0.029,10.392C-0.039,10.398 0.123,10.945 0.017,11.287C-0.101,11.619 -0.541,11.95 -0.548,11.97C-0.54,11.986 -0.11,12.329 0,12.663M2.102,8.186C2.539,8.194 2.949,8.277 3.338,8.426L9.075,2.669C8.572,1.261 8.995,-0.356 10.158,-1.529C11.27,-2.65 12.753,-3.063 14.059,-2.614L11.372,0.112L11.811,2.048L13.672,2.542L16.349,-0.165C16.736,1.192 16.307,2.699 15.205,3.814C14.07,4.963 12.534,5.37 11.202,4.869L5.463,10.627C5.621,11.05 5.706,11.511 5.698,11.989C5.677,14.063 4.028,15.726 2.024,15.701C0.012,15.679 -1.595,13.981 -1.575,11.909C-1.552,9.826 0.094,8.166 2.102,8.186" style="fill:rgb(245,130,31);fill-rule:nonzero;"/>
            </g>
            <g transform="matrix(4.16667,0,0,4.16667,341.613,654.86)">
                <path d="M0,5.735L-0.54,6.276L-3.513,3.158C-3.804,3.226 -4.298,3.295 -4.523,3.059L-6.288,0.851C-6.616,0.506 -6.258,0.264 -6.123,0.126L-5.876,-0.126C-5.753,-0.251 -5.591,-0.541 -5.263,-0.194L-3.061,1.57C-2.837,1.804 -2.905,2.318 -2.971,2.621L0,5.735Z" style="fill:rgb(245,130,31);fill-rule:nonzero;"/>
            </g>
            <g transform="matrix(4.16667,0,0,4.16667,355.592,719.33)">
                <path d="M0,-7.912C0.076,-7.864 0.156,-7.797 0.24,-7.708L4.726,-3.008C5.384,-2.318 5.423,-1.243 4.814,-0.622C4.202,0 3.164,-0.055 2.506,-0.743L-1.977,-5.445C-2.07,-5.544 -2.137,-5.635 -2.184,-5.721L0,-7.912Z" style="fill:rgb(245,130,31);fill-rule:nonzero;"/>
            </g>
        </g>
    </g>
</svg>
