<svg width="181" height="36" viewBox="0 0 181 36" fill="none" xmlns="http://www.w3.org/2000/svg">
<rect width="181" height="36" rx="5" fill="white"/>
<path d="M10.2741 10.237H12.0451C12.2358 10.237 12.3935 10.2847 12.5181 10.38C12.6428 10.4753 12.7271 10.5963 12.7711 10.743L16.0271 21.699C16.0858 21.897 16.1371 22.1097 16.1811 22.337C16.2325 22.5643 16.2801 22.8027 16.3241 23.052C16.3755 22.8027 16.4268 22.5643 16.4781 22.337C16.5295 22.1023 16.5881 21.8897 16.6541 21.699L20.3611 10.743C20.4051 10.6183 20.4895 10.5047 20.6141 10.402C20.7461 10.292 20.9038 10.237 21.0871 10.237H21.7031C21.8938 10.237 22.0478 10.2847 22.1651 10.38C22.2898 10.4753 22.3778 10.5963 22.4291 10.743L26.1141 21.699C26.2461 22.0803 26.3635 22.5167 26.4661 23.008C26.5101 22.766 26.5505 22.535 26.5871 22.315C26.6238 22.095 26.6715 21.8897 26.7301 21.699L29.9971 10.743C30.0338 10.611 30.1145 10.4937 30.2391 10.391C30.3711 10.2883 30.5288 10.237 30.7121 10.237H32.3731L27.4561 26H25.5421L21.5491 13.977C21.4685 13.7497 21.3951 13.4857 21.3291 13.185C21.2925 13.3317 21.2558 13.4747 21.2191 13.614C21.1898 13.746 21.1568 13.867 21.1201 13.977L17.1051 26H15.1911L10.2741 10.237ZM34.1343 26V9.797H36.0923V16.353C36.569 15.847 37.097 15.4437 37.6763 15.143C38.2557 14.835 38.923 14.681 39.6783 14.681C40.287 14.681 40.8223 14.7837 41.2843 14.989C41.7537 15.187 42.1423 15.473 42.4503 15.847C42.7657 16.2137 43.004 16.6573 43.1653 17.178C43.3267 17.6987 43.4073 18.2743 43.4073 18.905V26H41.4493V18.905C41.4493 18.0617 41.255 17.409 40.8663 16.947C40.485 16.4777 39.8983 16.243 39.1063 16.243C38.527 16.243 37.9843 16.3823 37.4783 16.661C36.9797 16.9397 36.5177 17.3173 36.0923 17.794V26H34.1343ZM54.5429 26H53.6739C53.4833 26 53.3293 25.9707 53.2119 25.912C53.0946 25.8533 53.0176 25.7287 52.9809 25.538L52.7609 24.504C52.4676 24.768 52.1816 25.0063 51.9029 25.219C51.6243 25.4243 51.3309 25.6003 51.0229 25.747C50.7149 25.8863 50.3849 25.9927 50.0329 26.066C49.6883 26.1393 49.3033 26.176 48.8779 26.176C48.4453 26.176 48.0383 26.1173 47.6569 26C47.2829 25.8753 46.9566 25.692 46.6779 25.45C46.3993 25.208 46.1756 24.9037 46.0069 24.537C45.8456 24.163 45.7649 23.723 45.7649 23.217C45.7649 22.777 45.8859 22.3553 46.1279 21.952C46.3699 21.5413 46.7586 21.1783 47.2939 20.863C47.8366 20.5477 48.5443 20.291 49.4169 20.093C50.2896 19.8877 51.3566 19.7703 52.6179 19.741V18.872C52.6179 18.0067 52.4309 17.354 52.0569 16.914C51.6903 16.4667 51.1439 16.243 50.4179 16.243C49.9413 16.243 49.5379 16.3053 49.2079 16.43C48.8853 16.5473 48.6029 16.683 48.3609 16.837C48.1263 16.9837 47.9209 17.1193 47.7449 17.244C47.5763 17.3613 47.4076 17.42 47.2389 17.42C47.1069 17.42 46.9896 17.387 46.8869 17.321C46.7916 17.2477 46.7146 17.1597 46.6559 17.057L46.3039 16.43C46.9199 15.836 47.5836 15.3923 48.2949 15.099C49.0063 14.8057 49.7946 14.659 50.6599 14.659C51.2833 14.659 51.8369 14.7617 52.3209 14.967C52.8049 15.1723 53.2119 15.4583 53.5419 15.825C53.8719 16.1917 54.1213 16.6353 54.2899 17.156C54.4586 17.6767 54.5429 18.2487 54.5429 18.872V26ZM49.4609 24.801C49.8056 24.801 50.1209 24.768 50.4069 24.702C50.6929 24.6287 50.9606 24.5297 51.2099 24.405C51.4666 24.273 51.7086 24.1153 51.9359 23.932C52.1706 23.7487 52.3979 23.5397 52.6179 23.305V20.984C51.7159 21.0133 50.9496 21.0867 50.3189 21.204C49.6883 21.314 49.1749 21.4607 48.7789 21.644C48.3829 21.8273 48.0933 22.0437 47.9099 22.293C47.7339 22.5423 47.6459 22.821 47.6459 23.129C47.6459 23.4223 47.6936 23.6753 47.7889 23.888C47.8843 24.1007 48.0126 24.2767 48.1739 24.416C48.3353 24.548 48.5259 24.647 48.7459 24.713C48.9659 24.7717 49.2043 24.801 49.4609 24.801ZM60.8863 26.176C60.0063 26.176 59.328 25.9303 58.8513 25.439C58.382 24.9477 58.1473 24.24 58.1473 23.316V16.496H56.8053C56.688 16.496 56.589 16.463 56.5083 16.397C56.4277 16.3237 56.3873 16.2137 56.3873 16.067V15.286L58.2133 15.055L58.6643 11.612C58.679 11.502 58.7267 11.414 58.8073 11.348C58.888 11.2747 58.9907 11.238 59.1153 11.238H60.1053V15.077H63.2953V16.496H60.1053V23.184C60.1053 23.6533 60.219 24.0017 60.4463 24.229C60.6737 24.4563 60.967 24.57 61.3263 24.57C61.5317 24.57 61.7077 24.5443 61.8543 24.493C62.0083 24.4343 62.1403 24.372 62.2503 24.306C62.3603 24.24 62.452 24.1813 62.5253 24.13C62.606 24.0713 62.6757 24.042 62.7343 24.042C62.837 24.042 62.9287 24.1043 63.0093 24.229L63.5813 25.164C63.244 25.4793 62.837 25.7287 62.3603 25.912C61.8837 26.088 61.3923 26.176 60.8863 26.176ZM72.0964 16.694C72.0084 16.8553 71.8727 16.936 71.6894 16.936C71.5794 16.936 71.4547 16.8957 71.3154 16.815C71.176 16.7343 71.0037 16.6463 70.7984 16.551C70.6004 16.4483 70.362 16.3567 70.0834 16.276C69.8047 16.188 69.4747 16.144 69.0934 16.144C68.7634 16.144 68.4664 16.188 68.2024 16.276C67.9384 16.3567 67.711 16.4703 67.5204 16.617C67.337 16.7637 67.194 16.936 67.0914 17.134C66.996 17.3247 66.9484 17.5337 66.9484 17.761C66.9484 18.047 67.029 18.2853 67.1904 18.476C67.359 18.6667 67.579 18.8317 67.8504 18.971C68.1217 19.1103 68.4297 19.235 68.7744 19.345C69.119 19.4477 69.471 19.5613 69.8304 19.686C70.197 19.8033 70.5527 19.9353 70.8974 20.082C71.242 20.2287 71.55 20.412 71.8214 20.632C72.0927 20.852 72.309 21.1233 72.4704 21.446C72.639 21.7613 72.7234 22.1427 72.7234 22.59C72.7234 23.1033 72.6317 23.58 72.4484 24.02C72.265 24.4527 71.9937 24.8303 71.6344 25.153C71.275 25.4683 70.835 25.7177 70.3144 25.901C69.7937 26.0843 69.1924 26.176 68.5104 26.176C67.733 26.176 67.029 26.0513 66.3984 25.802C65.7677 25.5453 65.2324 25.219 64.7924 24.823L65.2544 24.075C65.313 23.9797 65.3827 23.9063 65.4634 23.855C65.544 23.8037 65.6504 23.778 65.7824 23.778C65.9144 23.778 66.0537 23.8293 66.2004 23.932C66.347 24.0347 66.523 24.1483 66.7284 24.273C66.941 24.3977 67.194 24.5113 67.4874 24.614C67.788 24.7167 68.162 24.768 68.6094 24.768C68.9907 24.768 69.3244 24.7203 69.6104 24.625C69.8964 24.5223 70.1347 24.3867 70.3254 24.218C70.516 24.0493 70.6554 23.855 70.7434 23.635C70.8387 23.415 70.8864 23.1803 70.8864 22.931C70.8864 22.623 70.802 22.37 70.6334 22.172C70.472 21.9667 70.2557 21.7943 69.9844 21.655C69.713 21.5083 69.4014 21.3837 69.0494 21.281C68.7047 21.171 68.349 21.0573 67.9824 20.94C67.623 20.8227 67.2674 20.6907 66.9154 20.544C66.5707 20.39 66.2627 20.1993 65.9914 19.972C65.72 19.7447 65.5 19.466 65.3314 19.136C65.17 18.7987 65.0894 18.3917 65.0894 17.915C65.0894 17.4897 65.1774 17.0827 65.3534 16.694C65.5294 16.298 65.786 15.9533 66.1234 15.66C66.4607 15.3593 66.875 15.121 67.3664 14.945C67.8577 14.769 68.4187 14.681 69.0494 14.681C69.7827 14.681 70.439 14.7983 71.0184 15.033C71.605 15.2603 72.111 15.5757 72.5364 15.979L72.0964 16.694ZM88.5324 26H86.8824C86.6917 26 86.5377 25.9523 86.4204 25.857C86.3031 25.7617 86.2151 25.6407 86.1564 25.494L84.6824 21.688H77.6094L76.1354 25.494C76.0841 25.626 75.9961 25.7433 75.8714 25.846C75.7467 25.9487 75.5927 26 75.4094 26H73.7594L80.0624 10.237H82.2294L88.5324 26ZM78.2034 20.148H84.0884L81.6134 13.735C81.4521 13.339 81.2944 12.844 81.1404 12.25C81.0597 12.5507 80.9791 12.8293 80.8984 13.086C80.8251 13.3353 80.7517 13.5553 80.6784 13.746L78.2034 20.148ZM90.2085 29.773V14.857H91.3745C91.6532 14.857 91.8292 14.9927 91.9025 15.264L92.0675 16.584C92.5442 16.0047 93.0869 15.539 93.6955 15.187C94.3115 14.835 95.0192 14.659 95.8185 14.659C96.4565 14.659 97.0359 14.7837 97.5565 15.033C98.0772 15.275 98.5209 15.638 98.8875 16.122C99.2542 16.5987 99.5365 17.1927 99.7345 17.904C99.9325 18.6153 100.032 19.433 100.032 20.357C100.032 21.1783 99.9215 21.9447 99.7015 22.656C99.4815 23.36 99.1662 23.9723 98.7555 24.493C98.3449 25.0063 97.8389 25.4133 97.2375 25.714C96.6435 26.0073 95.9725 26.154 95.2245 26.154C94.5352 26.154 93.9449 26.0403 93.4535 25.813C92.9695 25.5857 92.5405 25.263 92.1665 24.845V29.773H90.2085ZM95.1695 16.243C94.5315 16.243 93.9705 16.3897 93.4865 16.683C93.0099 16.9763 92.5699 17.3907 92.1665 17.926V23.316C92.5259 23.8 92.9182 24.141 93.3435 24.339C93.7762 24.537 94.2565 24.636 94.7845 24.636C95.8185 24.636 96.6142 24.2657 97.1715 23.525C97.7289 22.7843 98.0075 21.7283 98.0075 20.357C98.0075 19.631 97.9415 19.0077 97.8095 18.487C97.6849 17.9663 97.5015 17.541 97.2595 17.211C97.0175 16.8737 96.7205 16.628 96.3685 16.474C96.0165 16.32 95.6169 16.243 95.1695 16.243ZM102.347 29.773V14.857H103.513C103.792 14.857 103.968 14.9927 104.041 15.264L104.206 16.584C104.683 16.0047 105.226 15.539 105.834 15.187C106.45 14.835 107.158 14.659 107.957 14.659C108.595 14.659 109.175 14.7837 109.695 15.033C110.216 15.275 110.66 15.638 111.026 16.122C111.393 16.5987 111.675 17.1927 111.873 17.904C112.071 18.6153 112.17 19.433 112.17 20.357C112.17 21.1783 112.06 21.9447 111.84 22.656C111.62 23.36 111.305 23.9723 110.894 24.493C110.484 25.0063 109.978 25.4133 109.376 25.714C108.782 26.0073 108.111 26.154 107.363 26.154C106.674 26.154 106.084 26.0403 105.592 25.813C105.108 25.5857 104.679 25.263 104.305 24.845V29.773H102.347ZM107.308 16.243C106.67 16.243 106.109 16.3897 105.625 16.683C105.149 16.9763 104.709 17.3907 104.305 17.926V23.316C104.665 23.8 105.057 24.141 105.482 24.339C105.915 24.537 106.395 24.636 106.923 24.636C107.957 24.636 108.753 24.2657 109.31 23.525C109.868 22.7843 110.146 21.7283 110.146 20.357C110.146 19.631 110.08 19.0077 109.948 18.487C109.824 17.9663 109.64 17.541 109.398 17.211C109.156 16.8737 108.859 16.628 108.507 16.474C108.155 16.32 107.756 16.243 107.308 16.243Z" fill="#F58225"/>
<line x1="128" y1="3" x2="128" y2="33" stroke="#F58225" stroke-width="2"/>
<g clip-path="url(#clip0)">
<path d="M151.997 27.1583L152.376 27.3825C153.965 28.3259 155.788 28.8247 157.646 28.8257H157.65C163.358 28.8257 168.003 24.1815 168.005 18.4736C168.006 15.7073 166.93 13.1065 164.975 11.1497C163.02 9.19314 160.42 8.11487 157.654 8.11373C151.942 8.11373 147.297 12.7572 147.295 18.4651C147.294 20.4211 147.841 22.3261 148.878 23.9741L149.124 24.3659L148.078 28.1859L151.997 27.1583ZM145.087 31.1449L146.854 24.691C145.764 22.8022 145.191 20.6595 145.191 18.4646C145.194 11.5974 150.783 6.0105 157.651 6.0105C160.983 6.01192 164.111 7.30893 166.464 9.6631C168.816 12.0173 170.11 15.1466 170.109 18.4746C170.106 25.3414 164.517 30.9295 157.651 30.9295C157.65 30.9295 157.651 30.9295 157.651 30.9295H157.645C155.56 30.9287 153.511 30.4057 151.692 29.4132L145.087 31.1449Z" fill="white"/>
<path d="M145.621 18.4764C145.62 20.5952 146.174 22.6638 147.226 24.4875L145.52 30.7179L151.896 29.0461C153.653 30.0034 155.631 30.5087 157.643 30.5094H157.649C164.277 30.5094 169.673 25.1153 169.676 18.4858C169.677 15.2731 168.427 12.2525 166.156 9.97969C163.886 7.70704 160.866 6.45479 157.648 6.45337C151.019 6.45337 145.623 11.8467 145.621 18.4764H145.621ZM157.648 30.5093H157.649H157.648C157.648 30.5093 157.648 30.5093 157.648 30.5093Z" fill="white"/>
<path d="M145.191 18.4769C145.191 20.6718 145.764 22.8148 146.854 24.7035L145.087 31.1569L151.691 29.4252C153.511 30.4175 155.56 30.9406 157.645 30.9414H157.65C164.516 30.9414 170.106 25.3534 170.109 18.4866C170.11 15.1584 168.815 12.0291 166.463 9.67506C164.111 7.32108 160.983 6.02389 157.65 6.02246C150.783 6.02246 145.194 11.6094 145.191 18.4765L145.191 18.4769ZM149.124 24.378L148.878 23.9865C147.841 22.3382 147.294 20.4332 147.295 18.4775C147.297 12.7699 151.942 8.12607 157.654 8.12607C160.42 8.12712 163.02 9.20548 164.975 11.1619C166.93 13.1185 168.006 15.7196 168.005 18.4856C168.003 24.1935 163.358 28.8377 157.65 28.8377H157.646C155.787 28.8367 153.965 28.3377 152.375 27.3946L151.997 27.1703L148.078 28.198L149.124 24.378ZM157.65 30.9414H157.65H157.65C157.65 30.9414 157.65 30.9414 157.65 30.9414Z" fill="#F58225"/>
<path fill-rule="evenodd" clip-rule="evenodd" d="M154.536 13.2695C154.303 12.7511 154.058 12.7407 153.836 12.7316C153.654 12.7238 153.447 12.7244 153.239 12.7244C153.032 12.7244 152.695 12.8023 152.409 13.1138C152.124 13.4253 151.32 14.1783 151.32 15.7099C151.32 17.2416 152.435 18.7216 152.591 18.9295C152.746 19.1371 154.744 22.3806 157.908 23.6283C160.538 24.6652 161.073 24.4591 161.644 24.4071C162.215 24.3553 163.486 23.6542 163.745 22.9274C164.005 22.2005 164.005 21.5774 163.927 21.4473C163.849 21.3176 163.641 21.2397 163.33 21.0841C163.019 20.9285 161.488 20.1752 161.203 20.0714C160.918 19.9676 160.71 19.9157 160.502 20.2274C160.295 20.5387 159.699 21.2397 159.517 21.4473C159.335 21.6553 159.154 21.6814 158.842 21.5256C158.531 21.3694 157.528 21.041 156.339 19.9806C155.414 19.1555 154.789 18.1365 154.607 17.8249C154.426 17.5136 154.588 17.3449 154.744 17.1898C154.884 17.0503 155.055 16.8263 155.211 16.6446C155.366 16.4628 155.418 16.3331 155.522 16.1255C155.626 15.9177 155.574 15.7358 155.496 15.5801C155.418 15.4244 154.813 13.885 154.536 13.2694" fill="#F58225"/>
</g>
<defs>
<clipPath id="clip0">
<rect width="25" height="25" fill="white" transform="translate(145 6)"/>
</clipPath>
</defs>
</svg>
