<?xml version="1.0" encoding="UTF-8" standalone="no"?>
<!DOCTYPE svg PUBLIC "-//W3C//DTD SVG 1.1//EN" "http://www.w3.org/Graphics/SVG/1.1/DTD/svg11.dtd">
<svg width="100%" height="100%" viewBox="0 0 240 30" version="1.1" xmlns="http://www.w3.org/2000/svg" xmlns:xlink="http://www.w3.org/1999/xlink" xml:space="preserve" xmlns:serif="http://www.serif.com/" style="fill-rule:evenodd;clip-rule:evenodd;stroke-linejoin:round;stroke-miterlimit:2;">
    <path d="M15.993,0L19.992,11.157L31.987,11.457L22.463,18.657L25.878,30L15.993,23.292L6.108,30L9.524,18.657L0,11.459L11.995,11.159L15.993,0Z" style="fill:rgb(245,130,37);fill-rule:nonzero;"/>
    <path d="M67.971,0L71.97,11.157L83.965,11.457L74.441,18.657L77.856,30L67.971,23.292L58.087,30L61.502,18.657L51.978,11.459L63.973,11.159L67.971,0Z" style="fill:rgb(245,130,37);fill-rule:nonzero;"/>
    <path d="M119.95,0L123.948,11.157L135.943,11.457L126.419,18.657L129.834,30L119.95,23.292L110.065,30L113.48,18.657L103.956,11.459L115.951,11.159L119.95,0Z" style="fill:rgb(245,130,37);fill-rule:nonzero;"/>
    <path d="M171.928,0L175.926,11.157L187.921,11.457L178.397,18.657L181.813,30L171.928,23.292L162.043,30L165.458,18.657L155.934,11.459L167.929,11.159L171.928,0Z" style="fill:rgb(245,130,37);fill-rule:nonzero;"/>
    <path d="M223.906,0L227.904,11.157L239.899,11.457L230.375,18.657L233.791,30L223.906,23.292L214.021,30L217.437,18.657L207.913,11.459L219.908,11.159L223.906,0Z" style="fill:rgb(245,130,37);fill-rule:nonzero;"/>
</svg>
