<?xml version="1.0" encoding="UTF-8" standalone="no"?>
<!DOCTYPE svg PUBLIC "-//W3C//DTD SVG 1.1//EN" "http://www.w3.org/Graphics/SVG/1.1/DTD/svg11.dtd">
<svg width="100%" height="100%" viewBox="0 0 19 19" version="1.1" xmlns="http://www.w3.org/2000/svg" xmlns:xlink="http://www.w3.org/1999/xlink" xml:space="preserve" xmlns:serif="http://www.serif.com/" style="fill-rule:evenodd;clip-rule:evenodd;stroke-linejoin:round;stroke-miterlimit:2;">
    <path id="green" d="M19,3C19,1.344 17.656,0 16,0L3,0C1.344,0 0,1.344 0,3L0,16C0,17.656 1.344,19 3,19L16,19C17.656,19 19,17.656 19,16L19,3ZM6.009,5.3L10.81,9.549C10.81,9.549 6.017,13.692 6.017,13.692C5.6,14.053 5.554,14.685 5.915,15.103C6.276,15.52 6.908,15.566 7.325,15.205L12.983,10.314C13.201,10.126 13.327,9.852 13.329,9.564C13.33,9.275 13.207,9 12.991,8.809L7.334,3.802C6.921,3.437 6.288,3.475 5.923,3.888C5.557,4.302 5.595,4.934 6.009,5.3Z" style="fill:rgb(69,146,30);"/>
</svg>
