<?xml version="1.0" encoding="UTF-8" standalone="no"?>
<!DOCTYPE svg PUBLIC "-//W3C//DTD SVG 1.1//EN" "http://www.w3.org/Graphics/SVG/1.1/DTD/svg11.dtd">
<svg width="100%" height="100%" viewBox="0 0 480 480" version="1.1" xmlns="http://www.w3.org/2000/svg" xmlns:xlink="http://www.w3.org/1999/xlink" xml:space="preserve" xmlns:serif="http://www.serif.com/" style="fill-rule:evenodd;clip-rule:evenodd;stroke-linejoin:round;stroke-miterlimit:2;">
    <g>
        <g>
            <path d="M408,288.64L408,88C408,39.399 368.601,0 320,0C271.399,0 232,39.399 232,88L232,392C232,431.764 199.765,464 160,464C120.236,464 88,431.764 88,392L88,191.36C115.517,187.368 135.947,163.805 136,136L136,48C136,43.582 132.418,40 128,40L120,40L120,8C120,3.582 116.418,0 112,0L48,0C43.582,0 40,3.582 40,8L40,40L32,40C27.582,40 24,43.582 24,48L24,136C24.053,163.805 44.483,187.367 72,191.36L72,392C72,440.601 111.399,480 160,480C208.601,480 248,440.601 248,392L248,88C248,48.235 280.236,16 320,16C359.765,16 392,48.235 392,88L392,288.64C364.483,292.632 344.053,316.195 344,344L344,432C344,436.418 347.582,440 352,440L360,440L360,472C360,476.418 363.582,480 368,480L432,480C436.418,480 440,476.418 440,472L440,440L448,440C452.418,440 456,436.418 456,432L456,344C455.947,316.195 435.517,292.633 408,288.64ZM56,16L104,16L104,40L56,40L56,16ZM40,136L40,56L120,56L120,136C120,158.091 102.091,176 80,176C57.909,176 40,158.091 40,136ZM424,464L376,464L376,440L424,440L424,464ZM440,424L360,424L360,344C360,321.909 377.909,304 400,304C422.091,304 440,321.909 440,344L440,424Z" style="fill:rgb(245,130,37);fill-rule:nonzero;"/>
        </g>
    </g>
</svg>
