<?xml version="1.0" encoding="UTF-8" standalone="no"?>
<!DOCTYPE svg PUBLIC "-//W3C//DTD SVG 1.1//EN" "http://www.w3.org/Graphics/SVG/1.1/DTD/svg11.dtd">
<svg width="100%" height="100%" viewBox="0 0 106 106" version="1.1" xmlns="http://www.w3.org/2000/svg" xmlns:xlink="http://www.w3.org/1999/xlink" xml:space="preserve" xmlns:serif="http://www.serif.com/" style="fill-rule:evenodd;clip-rule:evenodd;">
    <g transform="matrix(1.13594,0,0,1.13594,-347.283,-323.851)">
        <g>
            <g transform="matrix(4.16667,0,0,4.16667,383.559,335.92)">
                <path d="M0,-4.384C-0.087,-4.569 -0.309,-4.646 -0.492,-4.558L-6.872,-1.498C-7.074,-1.773 -7.397,-1.953 -7.764,-1.953C-8.195,-1.953 -8.563,-1.705 -8.747,-1.347L-12.226,-2.346C-12.423,-2.402 -12.627,-2.289 -12.684,-2.092C-12.74,-1.897 -12.626,-1.692 -12.43,-1.635L-9.388,-0.762L-8.844,-0.607C-8.735,-0.109 -8.293,0.262 -7.764,0.262C-7.654,0.262 -7.55,0.241 -7.45,0.211C-7.162,0.125 -6.926,-0.073 -6.789,-0.334C-6.719,-0.469 -6.673,-0.618 -6.663,-0.779L-0.731,-3.624L-0.173,-3.892C0.01,-3.98 0.088,-4.201 0,-4.384" style="fill:rgb(245,131,34);fill-rule:nonzero;"/>
            </g>
            <g transform="matrix(4.16667,0,0,4.16667,352.239,287.36)">
                <path d="M0,21.242C5.865,21.242 10.62,16.487 10.62,10.621C10.62,4.755 5.865,0 0,0C-5.865,0 -10.62,4.755 -10.62,10.621C-10.62,16.487 -5.865,21.242 0,21.242Z" style="fill:none;fill-rule:nonzero;stroke:rgb(245,130,31);stroke-width:1px;"/>
            </g>
        </g>
    </g>
</svg>
