<?xml version="1.0" encoding="UTF-8" standalone="no"?>
<!DOCTYPE svg PUBLIC "-//W3C//DTD SVG 1.1//EN" "http://www.w3.org/Graphics/SVG/1.1/DTD/svg11.dtd">
<svg width="100%" height="100%" viewBox="0 0 408 408" version="1.1" xmlns="http://www.w3.org/2000/svg" xmlns:xlink="http://www.w3.org/1999/xlink" xml:space="preserve" xmlns:serif="http://www.serif.com/" style="fill-rule:evenodd;clip-rule:evenodd;stroke-linejoin:round;stroke-miterlimit:2;">
    <g>
        <g>
            <g>
                <path d="M406.962,226.838C406.961,226.836 406.961,226.835 406.96,226.833L330.016,33.633C328.383,29.528 323.73,27.524 319.625,29.157C319.622,29.158 319.619,29.159 319.616,29.161L7.464,153.457C6.191,154.007 5.087,154.885 4.264,156.001C1.668,157.35 0.028,160.02 0,162.945L0,370.945C0,375.363 3.582,378.945 8,378.945L344,378.945C348.418,378.945 352,375.363 352,370.945L352,257.345L402.496,237.233C406.6,235.596 408.599,230.942 406.962,226.838ZM336,362.945L16,362.945L16,170.945L336,170.945L336,362.945ZM133.48,154.985L267.432,101.609C279.387,114.175 295.952,121.317 313.296,121.385L326.656,154.985L133.48,154.985ZM352,240.161L352,162.945C352,158.527 348.418,154.945 344,154.945L343.872,154.945L326.92,112.369C326.732,112.014 326.513,111.676 326.264,111.361C325.406,107.508 321.838,104.879 317.904,105.201C301.766,106.672 285.979,99.874 275.96,87.137C273.467,84.06 269.085,83.295 265.696,85.345C265.316,85.39 264.939,85.46 264.568,85.553L101.032,150.673C99.053,151.449 97.47,152.988 96.64,154.945L46.976,154.945L318.112,46.985L389.144,225.345L352,240.161Z" style="fill:rgb(245,130,37);fill-rule:nonzero;"/>
                <path d="M37.712,308.937C53.244,313.528 65.398,325.667 70.008,341.193C71.019,344.582 74.136,346.904 77.672,346.905C78.087,346.879 78.499,346.817 78.904,346.721C79.263,346.823 79.63,346.898 80,346.945L272,346.945C272.33,346.902 272.656,346.835 272.976,346.745C276.973,347.717 281.001,345.266 281.974,341.269C281.977,341.254 281.981,341.24 281.984,341.225C286.582,325.683 298.738,313.527 314.28,308.929C318.049,307.777 320.391,304.021 319.768,300.129C319.875,299.741 319.952,299.345 320,298.945L320,234.945C319.953,234.544 319.873,234.148 319.76,233.761C320.387,229.868 318.044,226.11 314.272,224.961C298.73,220.364 286.577,208.203 281.992,192.657C280.834,188.862 277.041,186.514 273.128,187.169C272.758,187.066 272.381,186.991 272,186.945L80,186.945C79.597,186.993 79.198,187.073 78.808,187.185C74.917,186.565 71.163,188.906 70.008,192.673C65.407,208.212 53.252,220.364 37.712,224.961C33.943,226.113 31.601,229.869 32.224,233.761C32.12,234.15 32.045,234.545 32,234.945L32,298.945C32.046,299.321 32.121,299.693 32.224,300.057C31.568,303.974 33.915,307.772 37.712,308.937ZM48,238.193C64.064,231.741 76.796,219.009 83.248,202.945L268.744,202.945C275.199,219.009 287.934,231.741 304,238.193L304,295.697C287.941,302.156 275.211,314.886 268.752,330.945L83.248,330.945C76.789,314.886 64.059,302.156 48,295.697L48,238.193Z" style="fill:rgb(245,130,37);fill-rule:nonzero;"/>
                <path d="M176,314.945C202.51,314.945 224,293.455 224,266.945C224,240.435 202.51,218.945 176,218.945C149.49,218.945 128,240.435 128,266.945C128.026,293.444 149.501,314.919 176,314.945ZM176,234.945C193.673,234.945 208,249.272 208,266.945C208,284.618 193.673,298.945 176,298.945C158.327,298.945 144,284.618 144,266.945C144,249.272 158.327,234.945 176,234.945Z" style="fill:rgb(245,130,37);fill-rule:nonzero;"/>
                <path d="M88,278.945C94.627,278.945 100,273.572 100,266.945C100,260.318 94.627,254.945 88,254.945C81.373,254.945 76,260.318 76,266.945C76,273.573 81.373,278.945 88,278.945ZM88,262.945C90.209,262.945 92,264.736 92,266.945C92,269.154 90.209,270.945 88,270.945C85.791,270.945 84,269.154 84,266.945C84,264.736 85.791,262.945 88,262.945Z" style="fill:rgb(245,130,37);fill-rule:nonzero;"/>
                <path d="M264,278.945C270.627,278.945 276,273.572 276,266.945C276,260.318 270.627,254.945 264,254.945C257.373,254.945 252,260.318 252,266.945C252,273.573 257.373,278.945 264,278.945ZM264,262.945C266.209,262.945 268,264.736 268,266.945C268,269.154 266.209,270.945 264,270.945C261.791,270.945 260,269.154 260,266.945C260,264.736 261.791,262.945 264,262.945Z" style="fill:rgb(245,130,37);fill-rule:nonzero;"/>
            </g>
        </g>
    </g>
</svg>
