<?xml version="1.0" encoding="UTF-8" standalone="no"?>
<!DOCTYPE svg PUBLIC "-//W3C//DTD SVG 1.1//EN" "http://www.w3.org/Graphics/SVG/1.1/DTD/svg11.dtd">
<svg width="100%" height="100%" viewBox="0 0 512 512" version="1.1" xmlns="http://www.w3.org/2000/svg" xmlns:xlink="http://www.w3.org/1999/xlink" xml:space="preserve" xmlns:serif="http://www.serif.com/" style="fill-rule:evenodd;clip-rule:evenodd;stroke-linejoin:round;stroke-miterlimit:2;">
    <g>
        <g>
            <path d="M256,91C198.109,91 151,138.109 151,196C151,253.891 198.109,301 256,301C313.891,301 361,253.891 361,196C361,138.109 313.891,91 256,91ZM271,211L241,211L241,256C241,264.291 234.291,271 226,271C217.709,271 211,264.291 211,256L211,136C211,127.709 217.709,121 226,121L271,121C295.814,121 316,141.186 316,166C316,190.814 295.814,211 271,211Z" style="fill:rgb(245,130,37);fill-rule:nonzero;"/>
        </g>
    </g>
    <g>
        <g>
            <path d="M271,151L241,151L241,181L271,181C279.276,181 286,174.276 286,166C286,157.724 279.276,151 271,151Z" style="fill:rgb(245,130,37);fill-rule:nonzero;"/>
        </g>
    </g>
    <g>
        <g>
            <path d="M256,0C148.48,0 61,88.48 61,196C61,238.437 74.447,278.808 99.892,312.748L244.003,505.994C246.83,509.773 251.283,512 256,512C260.717,512 265.17,509.773 267.997,505.994L412.108,312.748C437.553,278.808 451,238.437 451,196C451,88.48 363.52,0 256,0ZM256,331C181.557,331 121,270.443 121,196C121,121.557 181.557,61 256,61C330.443,61 391,121.557 391,196C391,270.443 330.443,331 256,331Z" style="fill:rgb(245,130,37);fill-rule:nonzero;"/>
        </g>
    </g>
</svg>
