<?xml version="1.0" encoding="UTF-8" standalone="no"?>
<!DOCTYPE svg PUBLIC "-//W3C//DTD SVG 1.1//EN" "http://www.w3.org/Graphics/SVG/1.1/DTD/svg11.dtd">
<svg width="100%" height="100%" viewBox="0 0 126 79" version="1.1" xmlns="http://www.w3.org/2000/svg" xmlns:xlink="http://www.w3.org/1999/xlink" xml:space="preserve" xmlns:serif="http://www.serif.com/" style="fill-rule:evenodd;clip-rule:evenodd;stroke-linejoin:round;stroke-miterlimit:2;">
    <g transform="matrix(0.182322,-2.23281e-17,-2.23281e-17,-0.182323,24.6262,77.8743)">
        <g>
            <g>
                <g id="g10">
                    <g id="g12">
                        <g id="g14">
                            <g id="g24" transform="matrix(1,0,0,1,385.183,91.677)">
                                <path id="path26" d="M0,0C-0.289,10.415 -0.289,17.82 -0.289,28.287C-0.289,41.343 -0.072,54.407 0,67.447L-9.62,67.447L-9.62,35.138C-11.166,37.013 -11.527,37.518 -12.663,38.566C-15.279,40.849 -19.598,43.454 -25.939,43.454C-27.798,43.454 -36.306,43.342 -42.953,36.069C-51,27.428 -50.333,15.741 -50.333,13.995C-50.205,10.242 -49.719,6.06 -48.174,2.183C-45.585,-4.483 -39.457,-12.707 -26.754,-12.707C-25.385,-12.707 -17.977,-12.707 -12.374,-7.156C-11.35,-6.329 -10.656,-5.406 -9.042,-3.227L-8.625,-11.455L0.441,-11.455C0.193,-7.156 0.152,-4.258 0,0M-9.452,15.023C-9.452,14.059 -9.524,10.816 -10.56,7.513C-13.076,-0.1 -18.775,-4.258 -25.133,-4.258C-30.262,-4.258 -35.387,-1.453 -38.237,4.616C-39.814,8.011 -40.432,11.896 -40.223,15.645C-40.223,16.993 -40.151,20.128 -38.823,23.953C-35.315,33.962 -27.36,34.942 -24.723,34.942C-18.603,34.942 -12.984,30.832 -10.56,23.387C-10.15,21.801 -9.331,18.896 -9.452,15.023M-57.044,34.42C-54.427,34.42 -53.107,33.958 -50.51,33.132L-50.51,42.595C-51,42.595 -53.901,43.045 -56.326,43.045C-60.231,43.045 -65.183,42.102 -68.988,37.518C-69.634,36.788 -70.505,35.335 -71.645,33.437L-72.127,42.419L-81.217,42.419C-80.9,35.664 -80.736,30.956 -80.736,24.302C-80.736,16.496 -80.78,10.989 -80.78,3.259L-80.78,-11.455L-71.019,-11.455L-71.019,14.918C-70.678,20.027 -70.441,26.79 -65.183,31.386C-61.684,34.42 -58.244,34.42 -57.044,34.42M-100.33,-11.455L-92.098,-11.455L-92.098,26.156C-92.869,30.884 -93.35,33.264 -94.795,35.439C-97.605,40.143 -103.745,43.454 -112.206,43.454C-113.767,43.454 -119.94,43.454 -125.691,40.769C-126.899,40.143 -127.802,39.525 -129.103,38.903L-129.103,30.434C-126.899,31.687 -120.714,35.54 -114.02,35.54C-107.482,35.54 -103.452,31.779 -102.104,28.259C-101.329,26.056 -101.213,23.371 -101.132,21.151C-103.625,21.276 -106.282,21.376 -108.87,21.376C-114.184,21.376 -120.546,21.151 -125.864,18.546C-129.994,16.568 -135.649,12.743 -135.649,4.11C-135.649,3.167 -135.532,2.111 -135.307,1.027C-134.734,-2.725 -132.895,-6.125 -130.21,-8.4C-127.188,-10.961 -123.134,-11.956 -119.017,-12.205C-112.872,-12.386 -108.702,-10.507 -106.037,-8.625C-103.745,-6.879 -102.344,-5.202 -100.33,-2.902L-100.33,-11.455ZM-100.896,12.815C-100.896,9.259 -101.213,7.188 -101.714,5.535C-101.911,4.816 -102.529,3.026 -104.126,0.931C-107.253,-3.323 -111.363,-4.776 -115.22,-4.776C-119.651,-4.776 -125.547,-2.468 -125.547,3.857C-125.547,10.138 -120.04,12.815 -115.22,13.995C-113.767,14.292 -111.475,14.569 -108.136,14.569C-105.724,14.569 -103.308,14.497 -100.896,14.292L-100.896,12.815ZM-152.136,-12.281C-145.674,-12.281 -142.179,-10.836 -139.16,-9.484L-139.883,-0.823C-141.745,-1.642 -145.999,-3.725 -151.121,-3.725C-151.847,-3.725 -155.182,-3.725 -157.956,-2.256C-166.127,1.782 -168.134,10.018 -168.134,16.146C-168.134,25.201 -163.591,30.434 -159.003,32.943C-154.845,35.271 -151.121,35.138 -149.624,35.138C-145.803,34.946 -142.785,33.589 -141.255,32.835L-140.754,41.596C-142.468,42.021 -146.477,43.35 -151.121,43.454C-161.901,43.775 -168.64,38.77 -172.585,33.589C-177.084,27.713 -178.288,20.545 -178.095,14.569C-177.71,0.249 -169.539,-7.477 -162.379,-10.379C-160.476,-11.238 -157.069,-12.205 -152.136,-12.281M-191.87,-5.527C-185.641,0.751 -183.851,9.287 -183.943,16.178C-184.236,29.415 -191.167,37.314 -197.73,40.769C-200.017,41.897 -203.955,43.35 -209.469,43.35C-221.554,43.35 -229.316,37.089 -233.032,30.651C-235.673,26.056 -236.637,20.746 -236.781,15.32C-236.881,4.503 -233.032,-1.866 -228.421,-6.349C-227.305,-7.281 -226.197,-8.139 -224.989,-8.858C-221.971,-10.836 -217.641,-12.482 -210.513,-12.482C-205.046,-12.482 -201.446,-11.455 -199.126,-10.379C-196.706,-9.351 -194.073,-7.702 -191.87,-5.527M-193.977,15.998C-193.977,10.11 -195.807,1.485 -203.039,-2.597C-204.488,-3.323 -206.977,-4.483 -210.513,-4.483C-211.307,-4.483 -214.233,-4.379 -217.035,-3.022C-217.641,-2.697 -218.243,-2.372 -219.675,-1.32C-221.144,-0.217 -223.175,2.007 -224.793,5.759C-226.197,9.063 -226.675,12.614 -226.583,16.178C-226.41,23.648 -223.3,28.957 -220.053,31.687C-217.926,33.465 -214.522,35.54 -209.469,35.54C-201.129,35.439 -197.433,29.712 -195.602,25.333C-195.012,23.756 -193.977,20.248 -193.977,15.998M-243.508,34.42C-240.895,34.42 -239.562,33.958 -236.978,33.132L-236.978,42.595C-237.455,42.595 -240.361,43.045 -242.777,43.045C-246.714,43.045 -251.651,42.102 -255.468,37.518C-256.066,36.788 -256.993,35.335 -258.101,33.437L-258.586,42.419L-267.649,42.419C-267.36,35.664 -267.115,30.956 -267.115,24.302C-267.115,16.496 -267.264,10.989 -267.264,3.259L-267.264,-11.455L-257.479,-11.455L-257.479,14.918C-257.186,20.027 -256.889,26.79 -251.651,31.386C-248.147,34.42 -244.712,34.42 -243.508,34.42M-288.808,55.238L-278.433,55.238L-278.433,65.874L-288.808,65.874L-288.808,55.238ZM-304.657,-26.545C-300.644,-21.244 -300.327,-15.741 -300.038,-4.451L-300.158,42.419L-309.181,42.419L-309.181,34.095C-309.49,34.592 -311.232,37.314 -313.531,39.172C-315.919,41.271 -320.362,43.571 -326.415,43.474C-331.825,43.474 -336.087,41.403 -338.186,40.023C-341.686,37.711 -343.52,35.335 -344.52,33.846C-348.742,28.03 -349.862,21.051 -349.862,15.123C-349.862,13.638 -349.862,8.541 -348.264,3.761C-347.851,2.408 -346.041,-3.62 -340.719,-8.103C-337.769,-10.507 -333.258,-12.907 -326.415,-12.582C-322.594,-12.386 -317.352,-11.133 -313.531,-7.907C-312.315,-6.859 -311.597,-6.153 -309.903,-3.845L-309.979,-11.238C-310.192,-13.638 -310.317,-16.038 -311.232,-18.414C-311.713,-19.891 -312.54,-21.244 -313.648,-22.5C-316.236,-25.494 -319.548,-27.051 -325.901,-27.276C-332.142,-27.276 -337.267,-25.799 -339.611,-24.988C-342.2,-24.045 -343.817,-23.017 -344.933,-22.395L-345.936,-31.779C-344.419,-32.389 -343.304,-32.802 -341.686,-33.356C-339.097,-34.179 -333.422,-35.632 -326.511,-35.632C-319.062,-35.632 -314.326,-33.93 -311.107,-32.184C-307.551,-30.105 -305.866,-28.227 -304.657,-26.545M-309.49,15.123C-309.49,13.77 -309.49,8.428 -312.604,3.556C-315.827,-1.525 -320.663,-3.949 -324.89,-3.949C-328.514,-3.949 -332.238,-2.38 -334.775,-0C-338.572,3.761 -339.679,9.793 -339.679,15.552C-339.611,23.684 -337.267,28.259 -333.422,31.779C-331.945,33.264 -328.927,35.223 -324.982,35.223C-322.281,35.223 -318.865,34.187 -316.044,31.911C-309.181,26.176 -309.49,15.645 -309.49,15.123M-278.698,42.419L-288.174,42.419L-288.174,-11.462L-278.698,-11.462L-278.698,42.419Z" style="fill:rgb(75,75,75);fill-rule:nonzero;"/>
                            </g>
                            <g id="g28" transform="matrix(1,0,0,1,221.347,286.089)">
                                <path id="path30" d="M0,0C-0.134,1.567 -1.01,2.064 -1.958,2.064L-19.673,2.064C-20.71,2.064 -21.48,1.651 -21.636,-0.324L-22.267,-14.363C-22.267,-15.199 -21.664,-16.421 -20.381,-16.421L-1.238,-16.421C-0.028,-16.421 0.636,-15.25 0.636,-14.262L0,0ZM-11.892,-12.701C-13.013,-12.701 -13.705,-12.505 -14.988,-12.282C-14.926,-11.814 -14.865,-11.306 -14.854,-10.776C-14.173,-11.077 -12.846,-11.267 -12.059,-11.267C-10.732,-11.267 -8.802,-10.793 -8.802,-8.897C-8.802,-6.794 -11.027,-6.509 -12.221,-6.509C-12.372,-6.509 -12.723,-6.481 -13.548,-6.571C-13.944,-6.604 -14.725,-6.872 -14.725,-6.872L-14.725,-1.071L-7.151,-1.071L-7.151,-2.242L-12.885,-2.242L-12.885,-5.193C-12.829,-5.249 -12.494,-5.171 -12.249,-5.143C-11.881,-5.126 -11.474,-5.109 -11.334,-5.109C-9.192,-5.109 -6.626,-6.18 -6.626,-8.835C-6.626,-11.981 -10.191,-12.701 -11.892,-12.701" style="fill:rgb(75,75,75);fill-rule:nonzero;"/>
                            </g>
                            <g id="g32" transform="matrix(1,0,0,1,248.384,285.702)">
                                <path id="path34" d="M0,0C-0.195,1.322 -1.16,2.449 -2.32,2.449L-20.052,2.449C-21.073,2.449 -21.742,1.461 -21.742,0.703L-20.733,-13.972C-20.582,-15.372 -19.344,-16.036 -18.513,-16.036L0.608,-16.036C1.612,-15.964 2.32,-15.205 2.32,-14.368C2.32,-14.201 0.653,-4.752 0,0M-9.399,-12.31C-13.37,-12.31 -14.642,-8.791 -14.642,-5.873C-14.642,-2.61 -13.398,-0.469 -9.611,-0.469C-8.735,-0.469 -7.664,-0.68 -6.822,-0.926C-6.866,-1.339 -6.928,-1.774 -6.956,-2.248C-7.497,-1.93 -8.713,-1.757 -9.354,-1.757C-11.245,-1.757 -12.611,-2.638 -12.784,-5.193L-12.784,-5.873C-12.388,-5.053 -10.637,-4.657 -9.823,-4.657C-7.53,-4.657 -5.271,-6.387 -5.271,-8.841C-5.271,-11.54 -7.53,-12.31 -9.399,-12.31" style="fill:rgb(75,75,75);fill-rule:nonzero;"/>
                            </g>
                            <g id="g36" transform="matrix(1,0,0,1,238.286,279.71)">
                                <path id="path38" d="M0,0C-1.445,0 -2.259,-0.987 -2.259,-2.276C-2.259,-3.542 -1.104,-5.026 0.541,-5.026C1.779,-5.026 2.772,-4.206 2.772,-2.767C2.772,-1.383 1.567,0 0,0" style="fill:rgb(75,75,75);fill-rule:nonzero;"/>
                            </g>
                            <g id="g40" transform="matrix(1,0,0,1,190.813,264.576)">
                                <path id="path42" d="M0,0L-19.45,0C-21.586,0 -21.742,-1.205 -21.904,-2.426C-22.122,-4.01 -24.654,-19.455 -24.682,-19.623C-24.972,-21.385 -24.046,-22.679 -22.897,-22.679L-1.796,-22.679C0.195,-22.618 0.558,-21.201 0.742,-19.595L1.947,-1.991C1.947,-1.077 1.205,0 0,0M-5.455,-4.786L-12.74,-18.111L-15.211,-18.111L-7.814,-5.544L-15.088,-5.544C-15.032,-4.864 -14.965,-4.406 -14.893,-3.955L-5.455,-3.955L-5.455,-4.786Z" style="fill:rgb(75,75,75);fill-rule:nonzero;"/>
                            </g>
                            <g id="g44" transform="matrix(1,0,0,1,222.436,262.46)">
                                <path id="path46" d="M0,0C0.072,1.11 -1.238,2.114 -2.147,2.114L-21.664,2.114C-22.479,2.114 -23.773,1.188 -23.795,0.123L-24.648,-18.145C-24.648,-19.154 -23.789,-20.565 -22.423,-20.565L-1.316,-20.565C0.134,-20.565 0.831,-19.043 0.831,-18.078L0,0ZM-11.976,-15.992C-14.101,-15.992 -17.174,-14.882 -17.174,-11.931C-17.174,-10.096 -15.913,-8.936 -13.788,-8.026C-15.668,-7.173 -16.404,-6.286 -16.404,-4.842C-16.404,-2.064 -13.476,-1.512 -11.78,-1.512C-10.241,-1.512 -6.9,-1.941 -6.9,-4.73C-6.9,-6.13 -8.121,-7.379 -9.638,-8.077C-7.446,-8.986 -6.582,-10.447 -6.582,-11.992C-6.582,-15.211 -9.923,-15.992 -11.976,-15.992" style="fill:rgb(75,75,75);fill-rule:nonzero;"/>
                            </g>
                            <g id="g48" transform="matrix(1,0,0,1,210.72,255.035)">
                                <path id="path50" d="M0,0C0.937,0 2.627,1.818 2.644,2.616C2.683,4.066 1.06,4.512 0.134,4.512C-0.814,4.512 -2.516,4.189 -2.516,2.7C-2.516,1.818 -0.937,0 0,0" style="fill:rgb(75,75,75);fill-rule:nonzero;"/>
                            </g>
                            <g id="g52" transform="matrix(1,0,0,1,210.529,253.579)">
                                <path id="path54" d="M0,0C-1.266,0 -3.023,-2.108 -3.023,-3.018C-3.023,-4.802 -1.266,-5.528 0,-5.528C1.205,-5.528 3.096,-4.97 3.096,-3.129C3.096,-1.88 1.355,0 0,0" style="fill:rgb(75,75,75);fill-rule:nonzero;"/>
                            </g>
                            <g id="g56" transform="matrix(1,0,0,1,252.072,262.645)">
                                <path id="path58" d="M0,0C-0.273,1.355 -1.166,1.896 -2.309,1.93L-21.815,1.93C-22.858,1.93 -23.773,0.848 -23.773,0C-23.773,-0.167 -22.451,-17.392 -22.451,-17.392C-22.283,-19.193 -21.982,-20.749 -19.963,-20.749L1.132,-20.749C2.259,-20.749 3.034,-19.729 3.034,-18.652C3.034,-18.513 1.054,-5.098 0,0M-5.784,-11.128C-6.314,-15.071 -8.534,-16.181 -11.384,-16.181C-12.26,-16.181 -13.844,-15.975 -14.508,-15.657C-14.452,-14.67 -14.391,-14.313 -14.368,-13.917C-13.515,-14.24 -12.427,-14.53 -11.613,-14.53C-8.846,-14.53 -7.826,-12.143 -7.826,-10.14C-7.826,-10.001 -7.814,-9.544 -7.915,-9.259C-8.958,-10.598 -9.85,-10.654 -10.86,-10.654C-13.738,-10.654 -16.125,-8.724 -16.125,-5.673C-16.125,-2.778 -13.844,-1.696 -11.552,-1.696C-7.625,-1.696 -6.214,-4.858 -5.784,-8.969C-5.684,-9.834 -5.65,-10.246 -5.784,-11.128" style="fill:rgb(75,75,75);fill-rule:nonzero;"/>
                            </g>
                            <g id="g60" transform="matrix(1,0,0,1,240.644,259.49)">
                                <path id="path62" d="M0,0C-1.612,0 -2.521,-1.049 -2.521,-2.583C-2.521,-4.1 -1.255,-5.912 0.513,-5.912C2.053,-5.912 2.973,-4.842 2.973,-3.358C2.973,-1.79 2.053,0 0,0" style="fill:rgb(75,75,75);fill-rule:nonzero;"/>
                            </g>
                            <g id="g64" transform="matrix(1,0,0,1,284.007,192.889)">
                                <path id="path66" d="M0,0L-29.707,124.061L-29.824,124.061L-29.841,124.134L-43.11,124.134L-43.099,122.11L-42.966,122.11L-42.965,122.037L-31.871,122.037L-3.207,2.354L-143.226,2.415L-114.791,122.037L-103.521,122.037L-103.559,124.061L-103.692,124.061L-103.693,124.134L-116.966,124.134L-146.701,0.123L-146.55,0.123L-146.568,0.05L0,0Z" style="fill:rgb(75,75,75);fill-rule:nonzero;"/>
                            </g>
                            <g id="g68" transform="matrix(1,0,0,1,237.668,364.465)">
                                <path id="path70" d="M0,0C-0.667,0.301 -1.394,0.487 -2.17,0.487L-51.919,0.487C-54.869,0.487 -57.268,-1.917 -57.268,-4.873L-57.257,-53.539L-57.123,-53.539L-57.123,-53.612L-53.503,-53.612L-53.514,-4.946C-53.514,-3.981 -52.739,-3.194 -51.785,-3.194L-42.682,-3.194L-42.682,-38.602L-52.901,-38.602L-39.14,-53.483L-39.074,-53.483L-39.006,-53.556L-14.815,-53.556L-1.072,-38.675L-1.273,-38.675L-1.206,-38.602L-11.273,-38.602L-11.273,-3.194L-2.037,-3.194C-1.619,-3.194 -1.256,-3.398 -0.954,-3.66C-0.649,-3.978 -0.452,-4.406 -0.452,-4.873L-0.452,-53.539L-0.319,-53.539L-0.319,-53.612L3.301,-53.612L3.301,-4.946C3.301,-2.715 1.933,-0.806 0,0" style="fill:rgb(75,75,75);fill-rule:nonzero;"/>
                            </g>
                            <g id="g72" transform="matrix(1,0,0,1,189.233,235.402)">
                                <path id="path74" d="M0,0C-0.313,0.167 -0.658,0.28 -1.044,0.28L-22.285,0.28C-23.835,0.174 -24.951,-0.361 -25.135,-2.09C-25.33,-4.076 -28.983,-25.506 -29.011,-25.673C-29.166,-26.447 -28.654,-27.546 -27.762,-28.019C-27.464,-28.207 -27.126,-28.334 -26.741,-28.334L-2.958,-28.334C-1.435,-28.334 -0.079,-26.298 -0.113,-24.932L1.488,-2.236C1.488,-1.354 0.898,-0.404 0,0" style="fill:rgb(75,75,75);fill-rule:nonzero;"/>
                            </g>
                            <g id="g76" transform="matrix(1,0,0,1,256.996,232.977)">
                                <path id="path78" d="M0,0C-0.146,1.323 -0.762,2.143 -1.79,2.47C-2.168,2.613 -2.588,2.705 -3.084,2.705L-24.33,2.705C-26.02,2.705 -26.667,1.322 -26.667,0.073C-26.667,0.073 -24.916,-23.588 -25.044,-22.913C-24.884,-24.362 -24.224,-25.288 -23.247,-25.654C-22.897,-25.81 -22.514,-25.909 -22.082,-25.909L1.567,-25.909C2.973,-25.909 3.715,-24.386 3.715,-23.321C3.715,-23.153 0.848,-7.424 0,0" style="fill:rgb(75,75,75);fill-rule:nonzero;"/>
                            </g>
                            <g id="g80" transform="matrix(1,0,0,1,211.42,228.955)">
                                <path id="path82" d="M0,0C-0.288,0.139 -0.6,0.232 -0.958,0.232C-3.898,0.215 -4.177,-3.656 -4.249,-6.651C-4.318,-9.382 -4.056,-12.94 -1.96,-13.761C-1.638,-13.913 -1.28,-14.014 -0.858,-14.014C2.031,-14.014 2.388,-9.669 2.388,-6.434C2.388,-3.916 1.838,-0.731 0,0" style="fill:rgb(75,75,75);fill-rule:nonzero;"/>
                            </g>
                            <g id="g84" transform="matrix(1,0,0,1,210.399,212.925)">
                                <path id="path86" d="M0,0C-1.102,-0.004 -2.005,0.206 -2.753,0.594C-4.979,1.848 -5.715,4.81 -5.79,8.896C-5.823,10.765 -5.639,12.79 -4.992,14.458L-5.032,14.458L-5.001,14.459C-4.17,16.623 -2.585,18.207 0.287,18.207C1.644,18.221 2.691,17.889 3.516,17.299C4.35,16.656 4.932,15.72 5.324,14.543L5.328,14.543C5.813,13.082 6.018,11.299 6.046,9.259C6.152,4.066 4.752,0 0,0M13.665,14.474L13.654,14.474L13.44,19.468C13.568,20.617 12.856,21.862 11.815,22.389C11.461,22.596 11.072,22.731 10.651,22.731L-10.651,22.731C-11.694,22.731 -13.055,21.772 -13.245,20.422L-13.499,14.547L-13.515,14.547L-14.318,-2.677C-14.318,-3.356 -13.961,-4.813 -12.943,-5.457C-12.615,-5.699 -12.22,-5.862 -11.725,-5.862L11.992,-5.862C13.699,-5.862 14.452,-3.827 14.452,-2.705L13.665,14.474Z" style="fill:rgb(75,75,75);fill-rule:nonzero;"/>
                            </g>
                            <g id="g88" transform="matrix(1,0,0,1,232.325,297.045)">
                                <path id="path90" d="M0,0C0.742,-0.178 1.361,-0.385 2.008,-0.429C2.772,-0.491 2.956,-0.491 3.124,-0.491C3.932,-0.491 5.745,-0.407 5.745,1.121C5.745,1.883 5.192,2.35 4.549,2.632C3.912,2.949 3.157,3.074 2.745,3.079L1.216,3.079C1.259,3.411 1.216,3.758 1.222,4.144L2.627,4.144C3.258,4.144 5.087,4.591 5.087,5.572C5.087,6.324 4.553,6.712 3.945,6.915C3.315,7.165 2.574,7.207 2.248,7.207C1.511,7.207 0.61,7.001 -0.263,6.782C-0.332,7.045 -0.395,7.323 -0.441,7.747C0.145,7.954 0.703,8.082 1.434,8.144C2.231,8.227 3.469,8.144 3.469,8.144C3.963,8.144 4.786,7.959 5.509,7.577C6.228,7.161 6.822,6.535 6.822,5.645C6.822,4.463 5.745,3.933 4.463,3.671C4.53,3.658 4.591,3.63 4.658,3.615C4.636,3.61 4.618,3.602 4.596,3.598C4.996,3.523 5.391,3.414 5.758,3.268C6.795,2.82 7.592,2.074 7.592,0.937C7.592,-1.282 4.061,-1.567 3.174,-1.567C2.093,-1.567 1.067,-1.366 -0,-1.128L0,0ZM12.478,9.583C12.406,9.948 12.097,10.222 11.686,10.414C11.305,10.631 10.821,10.765 10.291,10.765L-5.321,10.765C-5.929,10.765 -7.212,10.358 -7.212,9.293L-6.392,-2.504C-6.268,-3.542 -5.941,-4.053 -5.539,-4.326C-5.193,-4.625 -4.771,-4.691 -4.351,-4.691L13.22,-4.691C14.196,-4.652 14.675,-3.955 14.675,-3.224C14.675,-3.073 13.281,5.327 12.478,9.583" style="fill:rgb(75,75,75);fill-rule:nonzero;"/>
                            </g>
                            <g id="g92" transform="matrix(1,0,0,1,206.545,296.987)">
                                <path id="path94" d="M0,0C0.513,0.323 5.807,3.425 5.807,5.438C5.807,6.171 5.349,6.543 4.823,6.736C4.292,6.976 3.658,7.017 3.336,7.017C2.544,7.017 1.574,6.806 0.636,6.466C0.565,6.835 0.498,7.178 0.452,7.541C1.601,7.87 2.806,8.071 3.882,8.071C4.611,8.071 5.53,7.93 6.289,7.555C7.03,7.148 7.592,6.499 7.592,5.472C7.592,3.012 3.096,0.932 1.707,-0.357L1.932,-0.357C1.905,-0.38 1.865,-0.407 1.841,-0.429L7.924,-0.429C7.906,-0.717 7.905,-1 7.926,-1.5L0,-1.5L0,0ZM13.839,9.254C13.832,9.821 13.44,10.197 12.971,10.435C12.531,10.697 11.993,10.821 11.624,10.821L-3.988,10.821C-4.758,10.821 -5.94,10.408 -5.996,9.131L-6.587,-2.85C-6.587,-3.407 -6.168,-4.111 -5.539,-4.407C-5.32,-4.538 -5.079,-4.63 -4.808,-4.63L12.795,-4.63C13.404,-4.63 14.424,-3.882 14.424,-3.046L13.839,9.254Z" style="fill:rgb(75,75,75);fill-rule:nonzero;"/>
                            </g>
                            <g id="g96" transform="matrix(1,0,0,1,186.424,295.489)">
                                <path id="path98" d="M0,0L-1.692,0L-0.736,7.87C-0.779,7.85 -0.841,7.818 -0.888,7.794L-0.87,7.943C-1.507,7.637 -2.752,6.983 -2.854,6.93L-3.62,7.641L-0.268,9.432L1.024,9.432L0,0ZM8.338,12.115C8.081,12.238 7.777,12.322 7.374,12.322L-8.239,12.322C-9.778,12.322 -10.23,11.864 -10.369,11.089C-11.139,6.911 -12.4,-1.444 -12.422,-1.595C-12.514,-2.214 -12.302,-2.583 -11.958,-2.804C-11.686,-3.038 -11.285,-3.135 -10.849,-3.135L6.744,-3.135C7.452,-3.135 8.372,-2.8 8.562,-1.205C8.534,-1.863 9.338,10.397 9.338,10.397C9.338,11.203 9.07,11.849 8.338,12.115" style="fill:rgb(75,75,75);fill-rule:nonzero;"/>
                            </g>
                            <g id="g100" transform="matrix(1,0,0,1,185.487,277.448)">
                                <path id="path102" d="M0,0L-0.007,-0.073L1.519,-0.073C1.518,-0.658 1.463,-1.034 1.521,-1.422L-0.208,-1.422C-0.32,-2.22 -0.442,-3.051 -0.526,-3.96L-2.41,-3.96L-2.16,-1.495L-2.302,-1.495L-2.294,-1.422L-8.08,-1.422C-8.02,-0.924 -7.895,-0.028 -7.895,-0.028C-7.895,-0.028 -3.7,4.986 -1.513,7.468L0.61,7.468L-0.141,0L0,0ZM8.934,9.08C8.934,9.671 8.436,10.302 7.818,10.568C7.591,10.69 7.349,10.776 7.099,10.776L-10.616,10.776C-11.832,10.776 -12.496,10.112 -12.864,9.153C-13.461,7.664 -15.078,-5.187 -15.106,-5.355C-15.249,-6.443 -14.706,-7.246 -14.054,-7.556C-13.828,-7.693 -13.588,-7.781 -13.349,-7.781L5.766,-7.781C6.987,-7.781 7.718,-7.051 7.913,-5.651C7.818,-6.337 8.934,9.08 8.934,9.08" style="fill:rgb(75,75,75);fill-rule:nonzero;"/>
                            </g>
                            <g id="g104" transform="matrix(1,0,0,1,184.181,283.405)">
                                <path id="path106" d="M0,0L-4.758,-6.013L-4.564,-6.013L-4.622,-6.087L-0.545,-6.087L0.136,-0.074L-0.032,-0.286L0,0Z" style="fill:rgb(75,75,75);fill-rule:nonzero;"/>
                            </g>
                        </g>
                    </g>
                </g>
            </g>
        </g>
    </g>
</svg>
