<?xml version="1.0" encoding="UTF-8" standalone="no"?>
<!DOCTYPE svg PUBLIC "-//W3C//DTD SVG 1.1//EN" "http://www.w3.org/Graphics/SVG/1.1/DTD/svg11.dtd">
<svg width="100%" height="100%" viewBox="0 0 126 79" version="1.1" xmlns="http://www.w3.org/2000/svg" xmlns:xlink="http://www.w3.org/1999/xlink" xml:space="preserve" xmlns:serif="http://www.serif.com/" style="fill-rule:evenodd;clip-rule:evenodd;stroke-linejoin:round;stroke-miterlimit:2;">
    <g transform="matrix(1.00454,0,0,1.00776,-163.407,-81.7602)">
        <g>
            <path d="M214.323,119.602L214.218,119.594L214.112,119.58L214.013,119.565L213.915,119.55L213.725,119.519L213.627,119.505L213.519,119.488L213.414,119.474L213.292,119.466L213.155,119.458L213.012,119.45L212.852,119.45L212.677,119.458L212.479,119.474L212.26,119.488L212.108,119.512L211.964,119.535L211.834,119.58L211.721,119.625L211.614,119.678L211.517,119.739L211.439,119.816L211.37,119.884L211.326,119.967L211.288,120.051L211.272,120.141L211.272,120.233L211.295,120.332L211.326,120.43L211.386,120.529L211.462,120.628L211.614,120.771L211.797,120.885L212.009,120.984L212.237,121.067L212.479,121.144L212.729,121.227L212.98,121.319L213.223,121.417L213.451,121.546L213.664,121.705L213.853,121.896L214.013,122.131L214.134,122.419L214.211,122.76L214.24,123.171L214.211,123.649L214.158,124.006L214.066,124.317L213.944,124.605L213.793,124.855L213.619,125.076L213.42,125.265L213.208,125.432L212.974,125.577L212.729,125.691L212.479,125.789L212.221,125.865L211.956,125.926L211.697,125.972L211.448,125.994L211.198,126.01L210.962,126.016L210.634,126.016L210.331,126.01L210.065,126.01L209.815,126.003L209.587,125.994L209.383,125.979L209.201,125.964L209.026,125.941L208.866,125.926L208.723,125.896L208.578,125.872L208.449,125.835L208.319,125.804L208.199,125.758L208.077,125.714L207.948,125.668L208.289,123.99L208.358,124.006L208.44,124.029L208.547,124.058L208.677,124.09L208.813,124.119L208.965,124.15L209.132,124.187L209.313,124.218L209.504,124.248L209.702,124.279L209.906,124.301L210.119,124.324L210.338,124.331L210.561,124.339L210.778,124.339L210.999,124.331L211.22,124.286L211.395,124.225L211.53,124.142L211.637,124.036L211.713,123.929L211.774,123.807L211.813,123.687L211.842,123.573L211.858,123.352L211.79,123.162L211.659,123.01L211.47,122.882L211.242,122.768L210.977,122.654L210.681,122.547L210.385,122.426L210.081,122.29L209.793,122.131L209.527,121.933L209.284,121.698L209.094,121.409L208.958,121.067L208.889,120.658L208.896,120.173L208.935,119.876L208.989,119.594L209.064,119.337L209.154,119.094L209.276,118.867L209.413,118.669L209.573,118.479L209.763,118.313L209.984,118.169L210.226,118.047L210.498,117.933L210.802,117.85L211.145,117.78L211.517,117.728L211.925,117.697L212.375,117.689L212.654,117.689L212.912,117.697L213.148,117.706L213.36,117.713L213.55,117.728L213.725,117.743L213.876,117.758L214.013,117.774L214.142,117.788L214.249,117.811L214.347,117.827L214.439,117.842L214.515,117.856L214.583,117.865L214.65,117.88L214.711,117.888L214.323,119.602Z" style="fill:rgb(75,75,75);"/>
            <path d="M214.323,119.602L214.218,119.594L214.112,119.58L214.013,119.565L213.915,119.55L213.725,119.519L213.627,119.505L213.519,119.488L213.414,119.474L213.292,119.466L213.155,119.458L213.012,119.45L212.852,119.45L212.677,119.458L212.479,119.474L212.26,119.488L212.108,119.512L211.964,119.535L211.834,119.58L211.721,119.625L211.614,119.678L211.517,119.739L211.439,119.816L211.37,119.884L211.326,119.967L211.288,120.051L211.272,120.141L211.272,120.233L211.295,120.332L211.326,120.43L211.386,120.529L211.462,120.628L211.614,120.771L211.797,120.885L212.009,120.984L212.237,121.067L212.479,121.144L212.729,121.227L212.98,121.319L213.223,121.417L213.451,121.546L213.664,121.705L213.853,121.896L214.013,122.131L214.134,122.419L214.211,122.76L214.24,123.171L214.211,123.649L214.158,124.006L214.066,124.317L213.944,124.605L213.793,124.855L213.619,125.076L213.42,125.265L213.208,125.432L212.974,125.577L212.729,125.691L212.479,125.789L212.221,125.865L211.956,125.926L211.697,125.972L211.448,125.994L211.198,126.01L210.962,126.016L210.634,126.016L210.331,126.01L210.065,126.01L209.815,126.003L209.587,125.994L209.383,125.979L209.201,125.964L209.026,125.941L208.866,125.926L208.723,125.896L208.578,125.872L208.449,125.835L208.319,125.804L208.199,125.758L208.077,125.714L207.948,125.668L208.289,123.99L208.358,124.006L208.44,124.029L208.547,124.058L208.677,124.09L208.813,124.119L208.965,124.15L209.132,124.187L209.313,124.218L209.504,124.248L209.702,124.279L209.906,124.301L210.119,124.324L210.338,124.331L210.561,124.339L210.778,124.339L210.999,124.331L211.22,124.286L211.395,124.225L211.53,124.142L211.637,124.036L211.713,123.929L211.774,123.807L211.813,123.687L211.842,123.573L211.858,123.352L211.79,123.162L211.659,123.01L211.47,122.882L211.242,122.768L210.977,122.654L210.681,122.547L210.385,122.426L210.081,122.29L209.793,122.131L209.527,121.933L209.284,121.698L209.094,121.409L208.958,121.067L208.889,120.658L208.896,120.173L208.935,119.876L208.989,119.594L209.064,119.337L209.154,119.094L209.276,118.867L209.413,118.669L209.573,118.479L209.763,118.313L209.984,118.169L210.226,118.047L210.498,117.933L210.802,117.85L211.145,117.78L211.517,117.728L211.925,117.697L212.375,117.689L212.654,117.689L212.912,117.697L213.148,117.706L213.36,117.713L213.55,117.728L213.725,117.743L213.876,117.758L214.013,117.774L214.142,117.788L214.249,117.811L214.347,117.827L214.439,117.842L214.515,117.856L214.583,117.865L214.65,117.88L214.711,117.888L214.323,119.602Z" style="fill:rgb(75,75,75);"/>
            <path d="M216.123,116.013L218.227,116.013L217.915,117.85L219.183,117.85L218.909,119.565L217.572,119.527L216.845,123.762L216.837,123.914L216.874,124.044L216.951,124.142L217.05,124.225L217.187,124.279L217.338,124.324L217.504,124.354L217.687,124.37L217.854,124.363L218.005,124.347L218.143,124.324L218.264,124.294L218.363,124.263L218.431,124.241L218.477,124.225L218.491,124.218L218.227,125.63L218.173,125.668L218.12,125.698L218.066,125.728L218.014,125.758L217.96,125.781L217.899,125.804L217.832,125.827L217.763,125.85L217.687,125.872L217.61,125.888L217.52,125.903L217.43,125.919L217.331,125.934L217.216,125.949L217.094,125.964L216.965,125.979L216.388,125.979L216.084,125.956L215.819,125.926L215.577,125.881L215.372,125.827L215.196,125.758L215.053,125.684L214.924,125.592L214.825,125.493L214.749,125.387L214.695,125.258L214.658,125.128L214.635,124.985L214.628,124.825L214.628,124.658L214.674,124.294L216.123,116.013Z" style="fill:rgb(75,75,75);"/>
            <path d="M216.123,116.013L218.227,116.013L217.915,117.85L219.183,117.85L218.909,119.565L217.572,119.527L216.845,123.762L216.837,123.914L216.874,124.044L216.951,124.142L217.05,124.225L217.187,124.279L217.338,124.324L217.504,124.354L217.687,124.37L217.854,124.363L218.005,124.347L218.143,124.324L218.264,124.294L218.363,124.263L218.431,124.241L218.477,124.225L218.491,124.218L218.227,125.63L218.173,125.668L218.12,125.698L218.066,125.728L218.014,125.758L217.96,125.781L217.899,125.804L217.832,125.827L217.763,125.85L217.687,125.872L217.61,125.888L217.52,125.903L217.43,125.919L217.331,125.934L217.216,125.949L217.094,125.964L216.965,125.979L216.388,125.979L216.084,125.956L215.819,125.926L215.577,125.881L215.372,125.827L215.196,125.758L215.053,125.684L214.924,125.592L214.825,125.493L214.749,125.387L214.695,125.258L214.658,125.128L214.635,124.985L214.628,124.825L214.628,124.658L214.674,124.294L216.123,116.013Z" style="fill:rgb(75,75,75);"/>
            <path d="M220.86,122.426L220.837,122.555L220.83,122.691L220.845,122.836L220.875,122.98L220.928,123.125L220.99,123.263L221.073,123.406L221.163,123.534L221.27,123.664L221.383,123.779L221.505,123.892L221.641,123.982L221.779,124.067L221.93,124.134L222.082,124.187L222.234,124.218L222.431,124.248L222.621,124.271L222.819,124.294L223.016,124.309L223.213,124.317L223.418,124.317L223.615,124.309L223.82,124.294L224.025,124.263L224.23,124.225L224.443,124.18L224.647,124.112L224.861,124.029L225.08,123.936L225.293,123.816L225.513,123.687L225.209,125.554L225.087,125.614L224.967,125.676L224.845,125.72L224.732,125.767L224.618,125.804L224.495,125.843L224.374,125.872L224.245,125.896L224.108,125.919L223.957,125.934L223.798,125.949L223.623,125.964L223.425,125.972L223.222,125.972L222.985,125.979L222.734,125.979L222.363,125.972L221.984,125.934L221.604,125.881L221.224,125.789L220.853,125.676L220.497,125.53L220.154,125.342L219.835,125.121L219.539,124.863L219.282,124.552L219.062,124.202L218.878,123.8L218.75,123.352L218.667,122.843L218.644,122.282L218.682,121.66L218.712,121.417L218.757,121.135L218.818,120.841L218.901,120.52L219.016,120.196L219.152,119.868L219.326,119.535L219.539,119.216L219.781,118.912L220.077,118.624L220.412,118.366L220.792,118.138L221.231,117.948L221.726,117.811L222.271,117.721L222.887,117.689L223.183,117.697L223.494,117.728L223.806,117.78L224.117,117.856L224.42,117.971L224.717,118.108L224.99,118.29L225.24,118.502L225.467,118.76L225.658,119.065L225.809,119.413L225.916,119.816L225.977,120.27L225.984,120.786L225.931,121.363L225.816,122.002L225.779,122.465L220.246,122.465L220.594,120.968L223.919,120.968L223.935,120.78L223.926,120.597L223.91,120.43L223.881,120.279L223.828,120.134L223.775,120.004L223.699,119.891L223.623,119.785L223.533,119.694L223.433,119.618L223.319,119.55L223.205,119.488L223.084,119.444L222.962,119.413L222.833,119.39L222.697,119.375L222.552,119.383L222.416,119.405L222.287,119.437L222.158,119.481L222.028,119.542L221.916,119.611L221.8,119.694L221.703,119.785L221.604,119.891L221.512,120.004L221.43,120.127L221.361,120.257L221.292,120.393L221.239,120.544L221.194,120.696L221.163,120.855L220.86,122.426Z" style="fill:rgb(75,75,75);"/>
            <path d="M238.963,118.305L238.865,118.252L238.767,118.206L238.659,118.153L238.546,118.099L238.431,118.054L238.304,118.009L238.174,117.963L238.039,117.918L237.894,117.88L237.748,117.85L237.59,117.819L237.431,117.796L237.256,117.78L237.082,117.766L236.52,117.766L236.322,117.78L236.117,117.804L235.905,117.842L235.692,117.902L235.48,117.986L235.268,118.092L235.054,118.228L234.85,118.396L234.651,118.593L234.461,118.836L234.281,119.117L234.113,119.45L233.954,119.83L233.81,120.257L233.689,120.742L233.642,121.014L233.613,121.28L233.597,121.546L233.606,121.804L233.627,122.062L233.68,122.305L233.749,122.533L233.832,122.76L233.946,122.966L234.082,123.162L234.243,123.337L234.425,123.497L234.629,123.634L234.864,123.747L235.123,123.846L235.411,123.914L235.51,123.936L235.625,123.959L235.762,123.975L235.913,123.99L236.079,124.006L236.443,124.006L236.634,123.99L236.831,123.967L237.028,123.929L237.218,123.876L237.408,123.816L237.597,123.732L237.771,123.634L237.931,123.512L238.083,123.376L237.743,125.403L237.696,125.44L237.651,125.486L237.59,125.54L237.522,125.583L237.439,125.644L237.332,125.698L237.21,125.751L237.074,125.796L236.899,125.85L236.702,125.888L236.475,125.919L236.208,125.949L235.913,125.964L235.57,125.972L235.185,125.964L234.758,125.941L234.409,125.903L234.06,125.827L233.711,125.714L233.362,125.561L233.028,125.38L232.708,125.151L232.406,124.886L232.125,124.583L231.873,124.241L231.662,123.862L231.479,123.437L231.344,122.973L231.252,122.465L231.221,121.926L231.237,121.334L231.319,120.703L231.381,120.393L231.448,120.089L231.525,119.793L231.602,119.512L231.683,119.246L231.782,118.981L231.882,118.73L231.988,118.495L232.103,118.259L232.216,118.039L232.345,117.827L232.48,117.63L232.618,117.439L232.77,117.258L232.921,117.091L233.081,116.931L233.255,116.779L233.43,116.635L233.613,116.506L233.803,116.384L234.007,116.27L234.212,116.173L234.425,116.081L234.645,115.997L234.881,115.921L235.114,115.861L235.358,115.807L235.617,115.762L235.874,115.723L236.147,115.694L236.421,115.679L236.709,115.67L236.954,115.679L237.188,115.694L237.416,115.717L237.643,115.747L237.856,115.777L238.061,115.822L238.258,115.861L238.44,115.906L238.615,115.951L238.767,115.997L238.912,116.043L239.032,116.088L239.139,116.126L239.229,116.157L239.298,116.187L239.344,116.203L238.963,118.305Z" style="fill:rgb(75,75,75);"/>
            <path d="M238.963,118.305L238.865,118.252L238.767,118.206L238.659,118.153L238.546,118.099L238.431,118.054L238.304,118.009L238.174,117.963L238.039,117.918L237.894,117.88L237.748,117.85L237.59,117.819L237.431,117.796L237.256,117.78L237.082,117.766L236.52,117.766L236.322,117.78L236.117,117.804L235.905,117.842L235.692,117.902L235.48,117.986L235.268,118.092L235.054,118.228L234.85,118.396L234.651,118.593L234.461,118.836L234.281,119.117L234.113,119.45L233.954,119.83L233.81,120.257L233.689,120.742L233.642,121.014L233.613,121.28L233.597,121.546L233.606,121.804L233.627,122.062L233.68,122.305L233.749,122.533L233.832,122.76L233.946,122.966L234.082,123.162L234.243,123.337L234.425,123.497L234.629,123.634L234.864,123.747L235.123,123.846L235.411,123.914L235.51,123.936L235.625,123.959L235.762,123.975L235.913,123.99L236.079,124.006L236.443,124.006L236.634,123.99L236.831,123.967L237.028,123.929L237.218,123.876L237.408,123.816L237.597,123.732L237.771,123.634L237.931,123.512L238.083,123.376L237.743,125.403L237.696,125.44L237.651,125.486L237.59,125.54L237.522,125.583L237.439,125.644L237.332,125.698L237.21,125.751L237.074,125.796L236.899,125.85L236.702,125.888L236.475,125.919L236.208,125.949L235.913,125.964L235.57,125.972L235.185,125.964L234.758,125.941L234.409,125.903L234.06,125.827L233.711,125.714L233.362,125.561L233.028,125.38L232.708,125.151L232.406,124.886L232.125,124.583L231.873,124.241L231.662,123.862L231.479,123.437L231.344,122.973L231.252,122.465L231.221,121.926L231.237,121.334L231.319,120.703L231.381,120.393L231.448,120.089L231.525,119.793L231.602,119.512L231.683,119.246L231.782,118.981L231.882,118.73L231.988,118.495L232.103,118.259L232.216,118.039L232.345,117.827L232.48,117.63L232.618,117.439L232.77,117.258L232.921,117.091L233.081,116.931L233.255,116.779L233.43,116.635L233.613,116.506L233.803,116.384L234.007,116.27L234.212,116.173L234.425,116.081L234.645,115.997L234.881,115.921L235.114,115.861L235.358,115.807L235.617,115.762L235.874,115.723L236.147,115.694L236.421,115.679L236.709,115.67L236.954,115.679L237.188,115.694L237.416,115.717L237.643,115.747L237.856,115.777L238.061,115.822L238.258,115.861L238.44,115.906L238.615,115.951L238.767,115.997L238.912,116.043L239.032,116.088L239.139,116.126L239.229,116.157L239.298,116.187L239.344,116.203L238.963,118.305Z" style="fill:rgb(75,75,75);"/>
            <g transform="matrix(0.995481,0,0,0.9923,162.306,81.1306)">
                <path d="M95.779,45.196L93.666,45.196L93.82,44.348L93.82,44.27L93.697,44.424L93.438,44.683L93.164,44.891L92.889,45.043L92.744,45.113L92.599,45.166L92.309,45.242L92.006,45.288L91.708,45.311L91.556,45.311L91.159,45.28L90.792,45.196L90.457,45.066L90.151,44.891L89.877,44.668L89.633,44.409L89.419,44.125L89.236,43.805L89.085,43.459L88.963,43.101L88.879,42.726L88.817,42.335L88.795,41.945L88.802,41.548L88.839,41.157L88.909,40.768L89.023,40.315L89.16,39.888L89.322,39.498L89.511,39.131L89.708,38.786L89.938,38.48L90.173,38.206L90.427,37.953L90.693,37.73L90.975,37.539L91.265,37.371L91.556,37.241L91.86,37.133L92.164,37.065L92.469,37.019L92.781,37.004L93.004,37.01L93.217,37.035L93.416,37.073L93.774,37.188L93.927,37.255L94.216,37.425L94.452,37.616L94.643,37.815L94.849,38.106L94.894,38.198L95.428,35.191L97.503,35.191L95.779,45.196ZM92.324,43.345L92.538,43.33L92.736,43.285L92.92,43.231L93.096,43.147L93.255,43.056L93.408,42.939L93.553,42.811L93.682,42.671L93.796,42.519L93.903,42.35L94.002,42.174L94.087,41.992L94.162,41.799L94.224,41.601L94.277,41.394L94.352,40.975L94.376,40.753L94.369,40.332L94.315,39.941L94.201,39.581L94.124,39.43L94.033,39.284L93.934,39.16L93.82,39.054L93.69,38.962L93.553,38.901L93.408,38.863L93.248,38.847L93.041,38.863L92.851,38.893L92.676,38.954L92.5,39.031L92.348,39.131L92.195,39.253L91.935,39.529L91.822,39.695L91.614,40.056L91.455,40.461L91.334,40.889L91.288,41.112L91.249,41.449L91.265,41.815L91.318,42.189L91.419,42.549L91.57,42.863L91.769,43.115L92.02,43.285L92.324,43.345Z" style="fill:rgb(75,75,75);"/>
            </g>
            <g transform="matrix(0.995481,0,0,0.9923,162.306,81.1306)">
                <path d="M45.5,43.498L45.193,45.196L43.271,45.196L43.325,44.883L43.393,44.386L43.424,44.27L43.195,44.516L43.051,44.631L42.708,44.845L42.318,45.028L42.112,45.105L41.89,45.173L41.671,45.228L41.448,45.273L41.221,45.303L40.779,45.326L40.358,45.273L40.091,45.204L39.848,45.127L39.634,45.028L39.443,44.913L39.276,44.791L39.125,44.653L39.001,44.507L38.895,44.355L38.804,44.195L38.727,44.025L38.667,43.858L38.62,43.69L38.567,43.337L38.552,43.169L38.552,43L38.574,42.702L38.62,42.419L38.697,42.152L38.796,41.891L38.918,41.647L39.054,41.425L39.215,41.212L39.398,41.019L39.59,40.844L39.803,40.683L40.024,40.538L40.252,40.415L40.496,40.31L40.748,40.224L41.007,40.156L41.274,40.109L41.288,40.109L42.166,40.002L42.769,39.957L43.211,39.963L43.791,39.986L43.866,39.994L43.889,39.994L43.951,39.804L43.988,39.642L44.003,39.498L43.973,39.329L43.904,39.175L43.813,39.038L43.69,38.923L43.546,38.825L43.386,38.756L43.202,38.709L42.791,38.686L42.325,38.679L42.082,38.686L41.586,38.725L41.343,38.748L40.877,38.808L40.458,38.885L40.275,38.923L39.97,39.015L39.779,39.115L40.32,37.271L40.656,37.141L40.839,37.088L41.206,37.01L41.602,36.95L42.021,36.92L42.471,36.904L43.202,36.904L43.738,36.92L43.951,36.934L44.18,36.973L44.416,37.026L44.659,37.096L44.896,37.188L45.125,37.295L45.353,37.425L45.568,37.57L45.756,37.739L45.925,37.921L46.079,38.128L46.192,38.358L46.269,38.604L46.313,38.863L46.313,39.153L46.269,39.459L45.5,43.498ZM43.661,41.501L43.653,41.464L43.622,41.425L43.577,41.402L43.416,41.372L43.088,41.364L42.479,41.433L42.143,41.516L41.815,41.655L41.51,41.823L41.305,41.976L41.13,42.16L41.052,42.259L40.999,42.367L40.955,42.489L40.93,42.61L40.924,42.871L40.961,43.077L41.037,43.231L41.137,43.345L41.251,43.422L41.381,43.467L41.503,43.49L41.625,43.498L41.853,43.49L42.258,43.436L42.434,43.39L42.585,43.337L42.86,43.2L43.075,43.039L43.241,42.863L43.403,42.588L43.44,42.504L43.524,42.198L43.661,41.501Z" style="fill:rgb(75,75,75);"/>
            </g>
            <path d="M191.627,125.979L189.563,125.979L191.287,116.013L194.876,116.013L195.219,121.926L197.701,116.013L201.451,116.013L199.689,125.979L197.625,125.979L198.93,118.533L198.848,118.533L195.757,125.979L193.428,125.979L193.412,125.668L193.359,124.84L193.291,123.664L193.214,122.312L193.138,120.954L193.07,119.763L193.017,118.898L193.001,118.533L192.888,118.533L191.627,125.979Z" style="fill:rgb(75,75,75);"/>
            <path d="M191.627,125.979L189.563,125.979L191.287,116.013L194.876,116.013L195.219,121.926L197.701,116.013L201.451,116.013L199.689,125.979L197.625,125.979L198.93,118.533L198.848,118.533L195.757,125.979L193.428,125.979L193.412,125.668L193.359,124.84L193.291,123.664L193.214,122.312L193.138,120.954L193.07,119.763L193.017,118.898L193.001,118.533L192.888,118.533L191.627,125.979Z" style="fill:rgb(75,75,75);"/>
            <path d="M244.961,126.032L245.006,125.987L245.317,124.301L245.226,124.286L244.915,125.972L244.961,125.926L244.961,126.032L244.998,126.024L245.006,125.987L244.961,126.032Z" style="fill:rgb(75,75,75);"/>
            <path d="M243.01,125.979L243.056,126.032L244.961,126.032L244.961,125.926L243.056,125.926L243.102,125.979L243.01,125.979L243.003,126.032L243.056,126.032L243.01,125.979Z" style="fill:rgb(75,75,75);"/>
            <path d="M243.132,125.128L243.063,125.068L243.033,125.19L243.024,125.395L243.024,125.668L243.01,125.979L243.102,125.979L243.116,125.668L243.132,125.395L243.124,125.19L243.124,125.128L243.056,125.068L243.132,125.128Z" style="fill:rgb(75,75,75);"/>
            <path d="M240.179,126.101L240.391,126.131L240.597,126.153L240.808,126.147L241.029,126.131L241.249,126.101L241.461,126.062L241.674,126.003L241.886,125.941L242.076,125.865L242.273,125.775L242.457,125.684L242.614,125.577L242.774,125.47L242.91,125.365L243.033,125.242L243.132,125.128L243.056,125.068L242.957,125.182L242.851,125.288L242.713,125.395L242.57,125.501L242.41,125.592L242.229,125.684L242.046,125.775L241.856,125.85L241.659,125.91L241.446,125.972L241.233,126.01L241.029,126.039L240.808,126.055L240.597,126.062L240.391,126.039L240.194,126.01L240.179,126.101Z" style="fill:rgb(75,75,75);"/>
            <path d="M238.342,123.8L238.349,123.967L238.364,124.134L238.388,124.317L238.418,124.491L238.456,124.658L238.517,124.833L238.584,125.007L238.684,125.167L238.789,125.326L238.912,125.47L239.063,125.614L239.237,125.736L239.435,125.858L239.656,125.956L239.905,126.032L240.179,126.101L240.194,126.01L239.92,125.941L239.686,125.865L239.48,125.767L239.282,125.66L239.123,125.54L238.986,125.409L238.865,125.265L238.758,125.121L238.676,124.962L238.608,124.802L238.546,124.644L238.509,124.476L238.479,124.301L238.456,124.134L238.44,123.967L238.448,123.8L238.342,123.8Z" style="fill:rgb(75,75,75);"/>
            <path d="M241.066,120.885L240.801,120.931L240.543,121L240.292,121.083L240.05,121.189L239.813,121.31L239.587,121.463L239.381,121.623L239.184,121.804L239.002,121.994L238.842,122.206L238.69,122.434L238.577,122.685L238.479,122.943L238.41,123.216L238.364,123.504L238.342,123.8L238.448,123.8L238.456,123.504L238.501,123.231L238.569,122.973L238.668,122.715L238.781,122.479L238.917,122.267L239.078,122.054L239.244,121.865L239.441,121.698L239.647,121.538L239.858,121.402L240.096,121.28L240.322,121.175L240.573,121.091L240.816,121.022L241.066,120.977L241.066,120.885Z" style="fill:rgb(75,75,75);"/>
            <path d="M242.63,120.726L242.547,120.726L242.44,120.742L242.334,120.751L242.213,120.757L242.084,120.771L241.955,120.78L241.818,120.795L241.688,120.809L241.568,120.825L241.453,120.841L241.348,120.847L241.249,120.863L241.173,120.87L241.112,120.878L241.082,120.885L241.066,120.885L241.066,120.977L241.082,120.977L241.127,120.968L241.173,120.962L241.249,120.954L241.348,120.939L241.453,120.931L241.568,120.916L241.688,120.9L241.818,120.885L241.955,120.87L242.084,120.863L242.213,120.847L242.334,120.841L242.44,120.832L242.63,120.832L242.63,120.726Z" style="fill:rgb(75,75,75);"/>
            <path d="M243.655,120.809L243.701,120.771L243.67,120.771L243.602,120.764L243.481,120.757L243.336,120.742L242.995,120.742L242.813,120.726L242.63,120.726L242.63,120.832L242.995,120.832L243.169,120.847L243.481,120.847L243.602,120.855L243.67,120.863L243.701,120.863L243.747,120.825L243.701,120.863L243.739,120.87L243.747,120.825L243.655,120.809Z" style="fill:rgb(75,75,75);"/>
            <path d="M243.829,120.324L243.724,120.324L243.717,120.467L243.692,120.62L243.67,120.757L243.655,120.809L243.747,120.825L243.761,120.771L243.784,120.634L243.806,120.467L243.829,120.324Z" style="fill:rgb(75,75,75);"/>
            <path d="M242.827,119.474L242.827,119.58L243.003,119.588L243.162,119.634L243.313,119.701L243.442,119.793L243.548,119.899L243.639,120.028L243.701,120.164L243.731,120.324L243.822,120.324L243.791,120.15L243.731,119.982L243.625,119.839L243.504,119.716L243.359,119.611L243.192,119.542L243.017,119.497L242.827,119.474Z" style="fill:rgb(75,75,75);"/>
            <path d="M239.571,119.937L239.647,119.982L239.723,119.944L239.821,119.891L239.952,119.845L240.117,119.801L240.301,119.763L240.497,119.724L240.717,119.686L240.937,119.657L241.173,119.625L241.416,119.602L241.659,119.58L241.908,119.565L242.614,119.565L242.827,119.572L242.827,119.481L242.614,119.474L242.388,119.458L242.152,119.458L241.908,119.474L241.659,119.488L241.416,119.512L241.173,119.535L240.937,119.565L240.702,119.594L240.481,119.634L240.285,119.672L240.102,119.71L239.935,119.754L239.792,119.801L239.678,119.853L239.587,119.906L239.663,119.952L239.571,119.937Z" style="fill:rgb(75,75,75);"/>
            <path d="M240.134,118.069L240.102,118.108L239.571,119.937L239.663,119.952L240.194,118.122L240.163,118.161L240.134,118.069L240.11,118.077L240.102,118.108L240.134,118.069Z" style="fill:rgb(75,75,75);"/>
            <path d="M243.511,117.721L243.253,117.706L242.995,117.697L242.281,117.697L242.061,117.713L241.84,117.721L241.629,117.737L241.422,117.75L241.218,117.78L241.029,117.811L240.839,117.85L240.656,117.888L240.475,117.941L240.301,118.001L240.134,118.069L240.163,118.161L240.331,118.092L240.504,118.032L240.671,117.978L240.854,117.941L241.045,117.902L241.233,117.872L241.422,117.842L241.629,117.827L241.84,117.811L242.061,117.804L242.995,117.804L243.253,117.811L243.511,117.811L243.511,117.721Z" style="fill:rgb(75,75,75);"/>
            <path d="M246.115,120.294L246.152,119.982L246.152,119.694L246.1,119.427L246.016,119.177L245.895,118.943L245.741,118.73L245.56,118.541L245.371,118.373L245.15,118.228L244.922,118.092L244.68,117.986L244.444,117.894L244.195,117.827L243.958,117.774L243.724,117.737L243.511,117.721L243.511,117.811L243.724,117.827L243.943,117.865L244.179,117.918L244.413,117.986L244.65,118.077L244.877,118.184L245.105,118.305L245.31,118.449L245.5,118.615L245.667,118.791L245.818,118.987L245.924,119.209L246.008,119.444L246.062,119.694L246.062,119.982L246.023,120.279L246.115,120.294Z" style="fill:rgb(75,75,75);"/>
            <path d="M245.317,124.301L246.115,120.294L246.023,120.279L245.226,124.286L245.317,124.301Z" style="fill:rgb(75,75,75);"/>
            <g transform="matrix(0.995481,0,0,0.9923,162.306,81.1306)">
                <path d="M83.344,43.498L83.03,45.196L81.116,45.196L81.139,44.608L81.139,44.401L81.154,44.31L81.055,44.424L80.94,44.538L80.65,44.754L80.492,44.852L80.117,45.036L79.926,45.113L79.506,45.234L79.294,45.273L79.08,45.303L78.646,45.326L78.233,45.273L77.959,45.204L77.716,45.127L77.501,45.028L77.302,44.913L77.135,44.791L76.99,44.653L76.868,44.507L76.763,44.355L76.67,44.195L76.541,43.858L76.47,43.513L76.433,43.169L76.433,43L76.449,42.702L76.496,42.419L76.563,42.152L76.663,41.891L76.777,41.647L76.922,41.425L77.082,41.212L77.257,41.019L77.456,40.844L77.662,40.683L77.883,40.538L78.12,40.415L78.356,40.31L78.607,40.224L78.858,40.156L79.117,40.109L79.134,40.109L80.01,40.002L80.605,39.957L81.055,39.963L81.665,39.986L81.733,39.994L81.764,39.994L81.78,39.941L81.84,39.498L81.811,39.329L81.75,39.175L81.651,39.038L81.534,38.923L81.398,38.825L81.238,38.756L81.07,38.709L80.672,38.686L80.208,38.679L79.963,38.686L79.469,38.725L79.225,38.748L78.759,38.808L78.34,38.885L78.157,38.923L77.853,39.015L77.662,39.115L78.195,37.271L78.539,37.141L78.715,37.088L79.087,37.01L79.475,36.95L79.895,36.92L80.338,36.904L81.055,36.904L81.574,36.92L81.788,36.934L82.016,36.973L82.252,37.026L82.497,37.096L82.734,37.188L82.968,37.295L83.197,37.425L83.411,37.57L83.603,37.739L83.776,37.921L83.928,38.128L84.044,38.358L84.128,38.604L84.182,38.863L84.182,39.153L84.143,39.459L83.344,43.498ZM81.497,41.501L81.482,41.456L81.453,41.418L81.398,41.394L81.322,41.372L81.024,41.356L80.428,41.425L79.988,41.509L79.765,41.586L79.469,41.732L79.27,41.869L79.087,42.036L79.004,42.137L78.935,42.244L78.836,42.48L78.814,42.61L78.806,42.871L78.842,43.077L78.904,43.231L78.996,43.345L79.11,43.422L79.24,43.467L79.37,43.49L79.499,43.498L79.728,43.49L79.941,43.467L80.14,43.429L80.317,43.376L80.483,43.315L80.765,43.169L80.995,42.993L81.169,42.802L81.29,42.61L81.361,42.427L81.383,42.343L81.453,41.907L81.482,41.693L81.497,41.501Z" style="fill:rgb(75,75,75);"/>
            </g>
            <path d="M259.071,124.94L259.088,124.764L259.146,124.559L259.252,124.377L259.381,124.218L259.542,124.09L259.726,123.998L259.923,123.936L260.134,123.914L260.347,123.936L260.544,123.998L260.726,124.09L260.887,124.218L261.015,124.377L261.122,124.559L261.182,124.764L261.198,124.94L260.97,124.94L260.963,124.802L260.915,124.635L260.84,124.484L260.742,124.354L260.621,124.248L260.476,124.173L260.31,124.119L260.134,124.104L259.959,124.119L259.794,124.173L259.648,124.248L259.527,124.354L259.428,124.484L259.354,124.635L259.308,124.802L259.292,124.94L259.071,124.94Z" style="fill:rgb(75,75,75);"/>
            <path d="M259.755,124.94L259.755,124.484L260.172,124.484L260.264,124.491L260.347,124.506L260.407,124.529L260.461,124.559L260.499,124.605L260.528,124.651L260.544,124.703L260.552,124.757L260.544,124.825L260.528,124.878L260.506,124.924L260.491,124.94L260.172,124.94L260.202,124.931L260.256,124.924L260.301,124.909L260.34,124.894L260.37,124.871L260.385,124.847L260.4,124.811L260.4,124.757L260.392,124.719L260.377,124.688L260.355,124.674L260.332,124.658L260.293,124.651L260.256,124.644L259.945,124.644L259.945,124.94L259.755,124.94Z" style="fill:rgb(75,75,75);"/>
            <path d="M259.071,124.94L259.065,124.985L259.088,125.205L259.146,125.409L259.252,125.592L259.381,125.744L259.542,125.872L259.726,125.972L259.923,126.032L260.134,126.055L260.347,126.032L260.544,125.972L260.726,125.872L260.887,125.744L261.015,125.592L261.122,125.409L261.182,125.205L261.204,124.985L261.198,124.94L260.97,124.94L260.978,124.985L260.963,125.167L260.915,125.334L260.84,125.479L260.742,125.606L260.621,125.714L260.476,125.796L260.31,125.85L260.134,125.865L259.959,125.85L259.794,125.796L259.648,125.714L259.527,125.606L259.428,125.479L259.354,125.334L259.308,125.167L259.292,124.985L259.292,124.94L259.071,124.94Z" style="fill:rgb(75,75,75);"/>
            <path d="M259.755,124.94L259.755,125.403L259.945,125.403L259.945,125.023L260.134,125.023L260.361,125.403L260.515,125.403L260.286,125.023L260.34,125.023L260.392,125.007L260.437,124.992L260.476,124.962L260.491,124.94L260.172,124.94L260.134,124.947L259.945,124.947L259.945,124.94L259.755,124.94Z" style="fill:rgb(75,75,75);"/>
            <path d="M260.134,125.865L260.31,125.85L260.476,125.796L260.621,125.714L260.742,125.606L260.84,125.479L260.915,125.334L260.963,125.167L260.978,124.985L260.963,124.802L260.915,124.635L260.84,124.484L260.742,124.354L260.621,124.248L260.476,124.173L260.31,124.119L260.134,124.104L259.959,124.119L259.794,124.173L259.648,124.248L259.527,124.354L259.428,124.484L259.354,124.635L259.308,124.802L259.292,124.985L259.308,125.167L259.354,125.334L259.428,125.479L259.527,125.606L259.648,125.714L259.794,125.796L259.959,125.85L260.134,125.865ZM260.134,124.947L260.202,124.931L260.256,124.924L260.301,124.909L260.34,124.894L260.37,124.871L260.385,124.847L260.4,124.811L260.4,124.757L260.392,124.719L260.377,124.688L260.355,124.674L260.332,124.658L260.293,124.651L260.256,124.644L259.945,124.644L259.945,124.947L260.134,124.947ZM259.945,125.403L259.755,125.403L259.755,124.484L260.172,124.484L260.264,124.491L260.347,124.506L260.407,124.529L260.461,124.559L260.499,124.605L260.528,124.651L260.544,124.703L260.552,124.757L260.544,124.825L260.528,124.878L260.506,124.924L260.476,124.962L260.437,124.992L260.392,125.007L260.34,125.023L260.286,125.023L260.515,125.403L260.361,125.403L260.134,125.023L259.945,125.023L259.945,125.403ZM259.065,124.985L259.088,124.764L259.146,124.559L259.252,124.377L259.381,124.218L259.542,124.09L259.726,123.998L259.923,123.936L260.134,123.914L260.347,123.936L260.544,123.998L260.726,124.09L260.887,124.218L261.015,124.377L261.122,124.559L261.182,124.764L261.204,124.985L261.182,125.205L261.122,125.409L261.015,125.592L260.887,125.744L260.726,125.872L260.544,125.972L260.347,126.032L260.134,126.055L259.923,126.032L259.726,125.972L259.542,125.872L259.381,125.744L259.252,125.592L259.146,125.409L259.088,125.205L259.065,124.985Z" style="fill:rgb(75,75,75);"/>
            <path d="M245.842,125.979L247.983,125.979L248.749,121.66L248.779,121.494L248.825,121.326L248.87,121.159L248.931,120.992L249.007,120.825L249.098,120.665L249.197,120.514L249.318,120.369L249.455,120.241L249.606,120.119L249.781,120.004L249.978,119.913L250.198,119.839L250.441,119.778L250.707,119.732L251.002,119.716L251.192,119.716L251.534,117.766L251.321,117.78L251.117,117.804L250.927,117.842L250.744,117.894L250.578,117.955L250.418,118.032L250.266,118.115L250.122,118.206L249.986,118.313L249.856,118.419L249.735,118.541L249.614,118.661L249.5,118.791L249.386,118.934L249.272,119.071L249.167,119.223L249.395,117.85L247.261,117.85L245.842,125.979Z" style="fill:rgb(75,75,75);"/>
            <path d="M245.842,125.979L247.983,125.979L248.749,121.66L248.779,121.494L248.825,121.326L248.87,121.159L248.931,120.992L249.007,120.825L249.098,120.665L249.197,120.514L249.318,120.369L249.455,120.241L249.606,120.119L249.781,120.004L249.978,119.913L250.198,119.839L250.441,119.778L250.707,119.732L251.002,119.716L251.192,119.716L251.534,117.766L251.321,117.78L251.117,117.804L250.927,117.842L250.744,117.894L250.578,117.955L250.418,118.032L250.266,118.115L250.122,118.206L249.986,118.313L249.856,118.419L249.735,118.541L249.614,118.661L249.5,118.791L249.386,118.934L249.272,119.071L249.167,119.223L249.395,117.85L247.261,117.85L245.842,125.979Z" style="fill:rgb(75,75,75);"/>
            <path d="M225.741,125.979L227.919,125.979L228.648,121.66L228.679,121.494L228.716,121.334L228.754,121.175L228.808,121.022L228.868,120.87L228.944,120.726L229.035,120.59L229.141,120.461L229.263,120.345L229.399,120.233L229.567,120.141L229.749,120.058L229.961,119.989L230.197,119.93L230.455,119.891L230.75,119.868L230.774,119.868L230.804,119.876L230.842,119.884L230.88,119.884L230.917,119.891L230.949,119.899L230.97,119.906L230.979,119.906L230.986,119.876L231.009,119.785L231.039,119.649L231.078,119.481L231.13,119.284L231.184,119.071L231.252,118.859L231.319,118.645L231.381,118.502L231.457,118.357L231.533,118.214L231.608,118.085L231.676,117.971L231.729,117.88L231.768,117.827L231.782,117.804L231.776,117.804L231.745,117.796L231.708,117.788L231.654,117.78L231.602,117.78L231.541,117.774L231.487,117.766L231.434,117.766L231.198,117.78L230.986,117.804L230.789,117.842L230.607,117.888L230.433,117.948L230.272,118.025L230.128,118.099L229.991,118.19L229.863,118.29L229.741,118.404L229.627,118.518L229.514,118.645L229.399,118.776L229.293,118.921L229.18,119.071L229.065,119.223L229.338,117.85L227.16,117.85L225.741,125.979Z" style="fill:rgb(75,75,75);"/>
            <path d="M225.741,125.979L227.919,125.979L228.648,121.66L228.679,121.494L228.716,121.334L228.754,121.175L228.808,121.022L228.868,120.87L228.944,120.726L229.035,120.59L229.141,120.461L229.263,120.345L229.399,120.233L229.567,120.141L229.749,120.058L229.961,119.989L230.197,119.93L230.455,119.891L230.75,119.868L230.774,119.868L230.804,119.876L230.842,119.884L230.88,119.884L230.917,119.891L230.949,119.899L230.97,119.906L230.979,119.906L230.986,119.876L231.009,119.785L231.039,119.649L231.078,119.481L231.13,119.284L231.184,119.071L231.252,118.859L231.319,118.645L231.381,118.502L231.457,118.357L231.533,118.214L231.608,118.085L231.676,117.971L231.729,117.88L231.768,117.827L231.782,117.804L231.776,117.804L231.745,117.796L231.708,117.788L231.654,117.78L231.602,117.78L231.541,117.774L231.487,117.766L231.434,117.766L231.198,117.78L230.986,117.804L230.789,117.842L230.607,117.888L230.433,117.948L230.272,118.025L230.128,118.099L229.991,118.19L229.863,118.29L229.741,118.404L229.627,118.518L229.514,118.645L229.399,118.776L229.293,118.921L229.18,119.071L229.065,119.223L229.338,117.85L227.16,117.85L225.741,125.979Z" style="fill:rgb(75,75,75);"/>
            <path d="M223.919,120.968L221.146,120.968L221.148,120.962L221.144,120.961L221.163,120.855L221.194,120.696L221.239,120.544L221.292,120.393L221.361,120.257L221.43,120.127L221.512,120.004L221.604,119.891L221.703,119.785L221.8,119.694L221.916,119.611L222.028,119.542L222.158,119.481L222.287,119.437L222.416,119.405L222.552,119.383L222.697,119.375L222.833,119.39L222.962,119.413L223.084,119.444L223.205,119.488L223.319,119.55L223.433,119.618L223.533,119.694L223.623,119.785L223.699,119.891L223.775,120.004L223.828,120.134L223.881,120.279L223.91,120.43L223.926,120.597L223.935,120.78L223.919,120.968ZM225.977,120.27L225.916,119.816L225.809,119.413L225.658,119.065L225.467,118.76L225.24,118.502L224.99,118.29L224.717,118.108L224.42,117.971L224.117,117.856L223.806,117.78L223.494,117.728L223.183,117.697L222.887,117.689L222.271,117.721L221.726,117.811L221.231,117.948L220.792,118.138L220.412,118.366L220.077,118.624L219.781,118.912L219.539,119.216L219.326,119.535L219.152,119.868L219.016,120.196L218.901,120.52L218.818,120.841L218.757,121.135L218.712,121.417L218.682,121.66L218.644,122.282L218.667,122.843L218.75,123.352L218.878,123.8L219.062,124.202L219.282,124.552L219.539,124.863L219.835,125.121L220.154,125.342L220.497,125.53L220.853,125.676L221.224,125.789L221.604,125.881L221.984,125.934L222.363,125.972L222.734,125.979L222.985,125.979L223.222,125.972L223.425,125.972L223.623,125.964L223.798,125.949L223.957,125.934L224.108,125.919L224.245,125.896L224.374,125.872L224.495,125.843L224.618,125.804L224.732,125.767L224.845,125.72L224.967,125.676L225.087,125.614L225.209,125.554L225.513,123.687L225.293,123.816L225.08,123.936L224.861,124.029L224.647,124.112L224.443,124.18L224.23,124.225L224.025,124.263L223.82,124.294L223.615,124.309L223.418,124.317L223.213,124.317L223.016,124.309L222.819,124.294L222.621,124.271L222.431,124.248L222.234,124.218L222.082,124.187L221.93,124.134L221.779,124.067L221.641,123.982L221.505,123.892L221.383,123.779L221.27,123.664L221.163,123.534L221.073,123.406L220.99,123.263L220.928,123.125L220.875,122.98L220.845,122.836L220.83,122.691L220.836,122.563L220.854,122.465L225.779,122.465L225.816,122.002L225.931,121.363L225.984,120.786L225.977,120.27Z" style="fill:rgb(75,75,75);"/>
        </g>
    </g>
</svg>
