<?xml version="1.0" encoding="UTF-8" standalone="no"?>
<!DOCTYPE svg PUBLIC "-//W3C//DTD SVG 1.1//EN" "http://www.w3.org/Graphics/SVG/1.1/DTD/svg11.dtd">
<svg width="100%" height="100%" viewBox="0 0 1134 364" version="1.1" xmlns="http://www.w3.org/2000/svg" xmlns:xlink="http://www.w3.org/1999/xlink" xml:space="preserve" xmlns:serif="http://www.serif.com/" style="fill-rule:evenodd;clip-rule:evenodd;stroke-linejoin:round;stroke-miterlimit:2;">
    <g id="layer1" transform="matrix(1.06669,0,0,1.06669,136.726,14.8123)">
        <path id="path2641" d="M795.385,10.187C724.849,10.187 674.692,45.505 660.229,93.5C644.732,46.435 594.127,11.968 525.791,11.968C452.755,11.968 401.587,49.875 389.26,100.468C376.642,49.873 324.458,11.968 252.791,11.968C168.542,11.968 113.385,62.386 113.385,124.562C113.385,131.101 114.022,137.516 115.198,143.75C101.007,172.593 56.194,192.418 11.541,187.218C-12.578,184.406 -45.021,163.836 -45.021,124.562C-45.021,85.539 -18.404,66.03 11.541,61.937C27.161,59.803 55.754,63.644 79.635,74.656C85.113,61.157 92.79,48.787 102.354,37.781C78.686,21.672 47.452,11.968 11.229,11.968C-73.02,11.968 -128.177,62.386 -128.177,124.562C-128.177,186.751 -73.799,237.156 11.229,237.156C65.459,237.156 108.513,215.478 131.729,183C154.433,215.467 197.024,237.156 252.791,237.156C324.434,237.156 376.589,199.288 389.229,148.718C401.429,199.289 452.09,237.156 525.791,237.156C588.783,237.156 636.697,207.879 655.948,166.437L655.948,303.187L732.354,303.187L732.354,224.593C750.685,231.499 771.856,235.343 795.385,235.343C878.052,235.343 934.791,184.938 934.791,122.75C934.791,60.574 878.052,10.187 795.385,10.187ZM252.791,61.937C276.974,61.937 309.354,73.448 309.354,124.562C309.354,174.157 276.974,187.187 252.791,187.187C228.76,187.187 196.26,174.157 196.26,124.562C196.26,74.352 229.739,61.937 252.791,61.937ZM524.916,61.937C549.099,61.937 581.479,73.448 581.479,124.562C581.479,174.157 549.099,187.187 524.916,187.187C500.885,187.187 468.385,174.157 468.385,124.562C468.385,74.352 501.864,61.937 524.916,61.937ZM792.76,61.937C816.942,61.937 849.323,73.448 849.323,124.562C849.323,174.157 816.942,187.187 792.76,187.187C768.716,187.187 736.229,174.157 736.229,124.562C736.229,74.352 769.708,61.937 792.76,61.937ZM76.604,82.875C76.298,83.804 76.014,84.748 75.729,85.687C76.013,84.748 76.299,83.804 76.604,82.875ZM74.135,91.375C73.893,92.329 73.669,93.286 73.448,94.25C73.67,93.283 73.892,92.332 74.135,91.375ZM73.448,94.25C73.28,94.978 73.103,95.703 72.948,96.437C73.103,95.704 73.28,94.978 73.448,94.25ZM71.229,106.5C71.115,107.363 71.014,108.223 70.916,109.093C71.013,108.229 71.115,107.358 71.229,106.5ZM70.416,114.625C70.367,115.321 70.331,116.018 70.291,116.718C70.33,116.026 70.367,115.313 70.416,114.625ZM70.291,116.718C70.262,117.247 70.221,117.781 70.198,118.312C70.221,117.778 70.261,117.25 70.291,116.718ZM70.166,119.25C70.1,121.014 70.041,122.774 70.041,124.562C70.041,122.775 70.1,121.014 70.166,119.25Z" style="fill:rgb(31,31,31);"/>
    </g>
</svg>
