<?xml version="1.0" encoding="UTF-8" standalone="no"?>
<!DOCTYPE svg PUBLIC "-//W3C//DTD SVG 1.1//EN" "http://www.w3.org/Graphics/SVG/1.1/DTD/svg11.dtd">
<svg width="100%" height="100%" viewBox="0 0 3840 1800" version="1.1" xmlns="http://www.w3.org/2000/svg" xmlns:xlink="http://www.w3.org/1999/xlink" xml:space="preserve" xmlns:serif="http://www.serif.com/" style="fill-rule:evenodd;clip-rule:evenodd;stroke-linejoin:round;stroke-miterlimit:2;">
    <g transform="matrix(11.0332,0,0,11.0332,-1523.91,-3595.36)">
        <path d="M285.9,437.91C285.121,436.987 283.978,436.446 282.77,436.43C281.37,436.43 279.77,437.11 279.77,438.78C279.77,440.45 281.1,440.78 283.03,441.41C285.22,442.08 288.03,443.05 288.03,446.41C288.03,450.08 285.16,451.86 281.81,451.86C279.596,451.922 277.458,451.033 275.94,449.42L278.11,447.42C279.012,448.574 280.386,449.264 281.85,449.3C283.28,449.3 284.94,448.6 284.94,446.76C284.94,444.92 283.16,444.47 281.01,443.76C278.86,443.05 276.69,442.1 276.69,438.91C276.69,435.43 279.85,433.91 282.94,433.91C284.775,433.884 286.556,434.536 287.94,435.74L285.9,437.91Z" style="fill:rgb(31,31,31);fill-rule:nonzero;"/>
        <path d="M298.71,443.05C298.125,442.331 297.247,441.912 296.32,441.91C294.2,441.91 293.14,443.82 293.14,445.63C293.14,447.44 294.22,449.35 296.42,449.35C297.338,449.376 298.225,449.013 298.86,448.35L300.67,450.19C299.525,451.286 297.983,451.871 296.4,451.81C296.305,451.814 296.21,451.817 296.116,451.817C292.747,451.817 289.976,449.045 289.976,445.677C289.976,442.308 292.747,439.537 296.116,439.537C296.184,439.537 296.252,439.538 296.32,439.54C297.967,439.495 299.557,440.154 300.69,441.35L298.71,443.05Z" style="fill:rgb(31,31,31);fill-rule:nonzero;"/>
        <path d="M313.28,444.18L313.28,451.43L310.38,451.43L310.38,445.05C310.38,443.68 310.09,441.99 308.23,441.99C306.709,442.042 305.487,443.307 305.487,444.828C305.487,444.919 305.491,445.01 305.5,445.1L305.5,451.43L302.6,451.43L302.6,433.17L305.5,433.17L305.5,441.46L305.55,441.46C306.234,440.202 307.568,439.428 309,439.46C312,439.5 313.28,441.82 313.28,444.18Z" style="fill:rgb(31,31,31);fill-rule:nonzero;"/>
        <rect x="316.61" y="433.17" width="2.9" height="18.26" style="fill:rgb(31,31,31);fill-rule:nonzero;"/>
        <path d="M334,446.55L325.18,446.55C325.375,448.206 326.823,449.453 328.49,449.4C329.703,449.465 330.866,448.897 331.56,447.9L333.49,449.45C332.323,451.016 330.44,451.89 328.49,451.77C324.91,451.77 322.26,449.47 322.26,445.71C322.255,445.609 322.252,445.507 322.252,445.406C322.252,442.163 324.92,439.496 328.162,439.496C328.238,439.496 328.314,439.497 328.39,439.5C331.62,439.5 333.99,441.6 333.99,445.78C334,446 334,446.29 334,446.55ZM331.12,444.47C331.127,444.392 331.131,444.313 331.131,444.235C331.131,442.825 329.971,441.665 328.561,441.665C328.507,441.665 328.454,441.667 328.4,441.67C326.762,441.599 325.337,442.838 325.18,444.47L331.12,444.47Z" style="fill:rgb(31,31,31);fill-rule:nonzero;"/>
        <path d="M343.13,442.93C342.522,442.148 341.59,441.684 340.6,441.67C339.68,441.67 338.74,442.01 338.74,442.93C338.74,443.85 339.63,444.06 341.25,444.45C342.87,444.84 344.99,445.63 344.99,447.9C344.99,450.73 342.7,451.77 340.16,451.77C338.384,451.805 336.667,451.115 335.41,449.86L337.31,448.07C338.032,448.99 339.141,449.526 340.31,449.52C341.16,449.52 342.17,449.18 342.17,448.14C342.17,447.1 341.28,446.89 339.52,446.48C337.76,446.07 336.09,445.37 336.09,443.19C336.09,440.61 338.41,439.5 340.7,439.5C342.336,439.426 343.926,440.069 345.05,441.26L343.13,442.93Z" style="fill:rgb(31,31,31);fill-rule:nonzero;"/>
        <path d="M346.2,439.84L349.34,439.84L351.75,448.14L351.8,448.14L354.29,439.84L357.38,439.84L359.89,448.14L359.94,448.14L362.4,439.84L365.4,439.84L361.4,451.43L358.4,451.43L355.77,443.32L355.72,443.32L353.12,451.43L350.17,451.43L346.2,439.84Z" style="fill:rgb(31,31,31);fill-rule:nonzero;"/>
        <path d="M368.75,434.16C369.669,434.208 370.4,434.977 370.4,435.898C370.4,436.852 369.615,437.638 368.66,437.638C367.706,437.638 366.921,436.854 366.92,435.9C366.947,434.922 367.772,434.138 368.75,434.16ZM367.33,439.84L370.23,439.84L370.23,451.43L367.33,451.43L367.33,439.84Z" style="fill:rgb(31,31,31);fill-rule:nonzero;"/>
        <path d="M385.35,439.84L385.35,450.39C385.35,454.57 383.35,457.22 378.8,457.22C376.732,457.216 374.718,456.546 373.06,455.31L374.72,453.07C375.818,454.108 377.269,454.694 378.78,454.71C381.58,454.71 382.45,453.02 382.45,450.71L382.45,449.86L382.4,449.86C381.492,451.017 380.079,451.665 378.61,451.6C378.604,451.6 378.598,451.6 378.593,451.6C375.46,451.6 372.883,449.022 372.883,445.89C372.883,445.793 372.885,445.697 372.89,445.6C372.89,442.25 375.06,439.52 378.56,439.52C380.168,439.447 381.696,440.242 382.56,441.6L382.56,439.86L385.35,439.84ZM375.83,445.56C375.985,447.3 377.46,448.65 379.207,448.65C381.066,448.65 382.597,447.119 382.597,445.26C382.597,443.4 381.066,441.87 379.207,441.87C379.191,441.87 379.176,441.87 379.16,441.87C377.06,441.87 375.83,443.51 375.83,445.56Z" style="fill:rgb(31,31,31);fill-rule:nonzero;"/>
        <rect x="388.28" y="444.26" width="5.8" height="2.46" style="fill:rgb(31,31,31);fill-rule:nonzero;"/>
        <path d="M397.31,434.33L400.31,434.33L400.31,441.24L408.31,441.24L408.31,434.33L411.31,434.33L411.31,451.43L408.31,451.43L408.31,443.85L400.31,443.85L400.31,451.43L397.31,451.43L397.31,434.33Z" style="fill:rgb(31,31,31);fill-rule:nonzero;"/>
        <path d="M420.62,439.5C420.72,439.495 420.82,439.492 420.921,439.492C424.212,439.492 426.921,442.201 426.921,445.492C426.921,445.522 426.92,445.551 426.92,445.58C426.92,449.036 424.076,451.88 420.62,451.88C417.164,451.88 414.32,449.036 414.32,445.58C414.32,445.551 414.319,445.522 414.319,445.492C414.319,442.201 417.028,439.492 420.319,439.492C420.42,439.492 420.52,439.495 420.62,439.5ZM420.62,449.35C422.92,449.35 423.98,447.35 423.98,445.58C423.98,443.81 422.92,441.87 420.62,441.87C418.32,441.87 417.27,443.77 417.27,445.58C417.27,447.39 418.33,449.35 420.62,449.35Z" style="fill:rgb(31,31,31);fill-rule:nonzero;"/>
        <rect x="429.68" y="433.17" width="2.9" height="18.26" style="fill:rgb(31,31,31);fill-rule:nonzero;"/>
        <path d="M442.5,442.93C441.892,442.148 440.96,441.684 439.97,441.67C439.05,441.67 438.11,442.01 438.11,442.93C438.11,443.85 439,444.06 440.62,444.45C442.24,444.84 444.36,445.63 444.36,447.9C444.36,450.73 442.07,451.77 439.53,451.77C437.754,451.805 436.037,451.115 434.78,449.86L436.68,448.07C437.402,448.99 438.511,449.526 439.68,449.52C440.53,449.52 441.54,449.18 441.54,448.14C441.54,447.1 440.65,446.89 438.89,446.48C437.13,446.07 435.46,445.37 435.46,443.19C435.46,440.61 437.78,439.5 440.07,439.5C441.706,439.426 443.296,440.069 444.42,441.26L442.5,442.93Z" style="fill:rgb(31,31,31);fill-rule:nonzero;"/>
        <path d="M445.74,442.16L445.74,439.84L447.74,439.84L447.74,436.48L450.59,436.48L450.59,439.84L453.49,439.84L453.49,442.16L450.59,442.16L450.59,447.54C450.59,448.54 450.83,449.33 452.11,449.33C452.532,449.333 452.95,449.251 453.34,449.09L453.44,451.35C452.819,451.565 452.167,451.673 451.51,451.67C448.44,451.67 447.74,449.79 447.74,447.56L447.74,442.16L445.74,442.16Z" style="fill:rgb(31,31,31);fill-rule:nonzero;"/>
        <path d="M466.5,446.55L457.68,446.55C457.876,448.21 459.329,449.458 461,449.4C462.213,449.465 463.376,448.897 464.07,447.9L466,449.45C464.833,451.016 462.95,451.89 461,451.77C457.42,451.77 454.77,449.47 454.77,445.71C454.765,445.609 454.762,445.507 454.762,445.406C454.762,442.163 457.43,439.496 460.672,439.496C460.748,439.496 460.824,439.497 460.9,439.5C464.13,439.5 466.5,441.6 466.5,445.78C466.52,446 466.52,446.29 466.5,446.55ZM463.62,444.47C463.627,444.395 463.63,444.32 463.63,444.245C463.63,442.83 462.465,441.665 461.05,441.665C460.997,441.665 460.943,441.667 460.89,441.67C459.256,441.604 457.837,442.842 457.68,444.47L463.62,444.47Z" style="fill:rgb(31,31,31);fill-rule:nonzero;"/>
        <path d="M470.68,434.16C471.599,434.208 472.33,434.977 472.33,435.898C472.33,436.852 471.545,437.638 470.59,437.638C469.636,437.638 468.851,436.854 468.85,435.9C468.871,434.939 469.668,434.159 470.63,434.159C470.646,434.159 470.663,434.16 470.68,434.16ZM469.26,439.84L472.15,439.84L472.15,451.43L469.26,451.43L469.26,439.84Z" style="fill:rgb(31,31,31);fill-rule:nonzero;"/>
        <path d="M475.53,439.84L478.29,439.84L478.29,441.7C478.959,440.336 480.361,439.476 481.88,439.5C484.88,439.5 486.16,441.82 486.16,444.18L486.16,451.43L483.26,451.43L483.26,445C483.26,443.62 482.95,441.9 481.09,441.9C479.23,441.9 478.38,443.5 478.38,445.04L478.38,451.42L475.48,451.42L475.53,439.84Z" style="fill:rgb(31,31,31);fill-rule:nonzero;"/>
        <path d="M277.57,463.3L283.25,463.3C287.52,463.3 292.25,466.15 292.25,471.85C292.25,477.55 287.54,480.39 283.25,480.39L277.57,480.39L277.57,463.3ZM279.31,478.85L282.77,478.85C287.91,478.85 290.4,475.37 290.4,471.85C290.4,468.33 287.91,464.85 282.77,464.85L279.31,464.85L279.31,478.85Z" style="fill:rgb(31,31,31);fill-rule:nonzero;"/>
        <path d="M305.87,475.18L296.5,475.18C296.511,477.436 298.374,479.286 300.63,479.28C302.088,479.288 303.455,478.552 304.25,477.33L305.48,478.33C304.347,479.864 302.537,480.756 300.63,480.72C300.605,480.72 300.58,480.72 300.555,480.72C297.296,480.72 294.615,478.039 294.615,474.78C294.615,471.549 297.25,468.881 300.48,468.84C304.03,468.84 305.89,471.35 305.89,474.44C305.89,474.62 305.89,474.89 305.87,475.18ZM304.23,473.87C304.231,473.828 304.232,473.787 304.232,473.745C304.232,471.787 302.621,470.175 300.662,470.175C300.601,470.175 300.541,470.177 300.48,470.18C298.398,470.174 296.641,471.794 296.48,473.87L304.23,473.87Z" style="fill:rgb(31,31,31);fill-rule:nonzero;"/>
        <path d="M309.08,469.09L310.65,469.09C310.7,469.7 310.75,470.54 310.75,471.02L310.8,471.02C311.481,469.65 312.89,468.786 314.42,468.8C314.787,468.791 315.154,468.832 315.51,468.92L315.29,470.47C314.912,470.369 314.522,470.319 314.13,470.32C312.39,470.32 310.82,471.58 310.82,474.6L310.82,480.39L309.18,480.39L309.18,471.58C309.18,471 309.16,469.87 309.08,469.09Z" style="fill:rgb(31,31,31);fill-rule:nonzero;"/>
        <path d="M334.16,475.18L324.8,475.18C324.805,477.431 326.659,479.28 328.91,479.28C328.917,479.28 328.923,479.28 328.93,479.28C330.388,479.288 331.755,478.552 332.55,477.33L333.78,478.33C332.646,479.863 330.836,480.755 328.93,480.72C328.905,480.72 328.88,480.72 328.855,480.72C325.596,480.72 322.915,478.039 322.915,474.78C322.915,471.549 325.55,468.881 328.78,468.84C332.33,468.84 334.19,471.35 334.19,474.44C334.192,474.687 334.182,474.934 334.16,475.18ZM332.52,473.87C332.522,473.825 332.523,473.78 332.523,473.735C332.523,471.782 330.916,470.175 328.963,470.175C328.902,470.175 328.841,470.177 328.78,470.18C326.698,470.174 324.941,471.794 324.78,473.87L332.52,473.87Z" style="fill:rgb(31,31,31);fill-rule:nonzero;"/>
        <path d="M345.73,471.68C345.078,470.725 343.986,470.16 342.83,470.18C340.447,470.338 338.572,472.342 338.572,474.73C338.572,477.118 340.447,479.122 342.83,479.28C344.032,479.325 345.181,478.774 345.9,477.81L347.13,478.73C346.084,480.019 344.489,480.743 342.83,480.68C339.571,480.68 336.89,477.999 336.89,474.74C336.89,471.481 339.571,468.8 342.83,468.8C344.461,468.79 346.01,469.527 347.03,470.8L345.73,471.68Z" style="fill:rgb(31,31,31);fill-rule:nonzero;"/>
        <path d="M351.33,471C352.096,469.638 353.558,468.809 355.12,468.85C358,468.85 359.42,470.71 359.42,473.51L359.42,480.44L357.78,480.44L357.78,474.19C357.78,471.82 357.08,470.19 354.71,470.19C352.98,470.19 351.29,471.59 351.29,474.61L351.29,480.4L349.64,480.4L349.64,462.14L351.29,462.14L351.29,471L351.33,471Z" style="fill:rgb(31,31,31);fill-rule:nonzero;"/>
        <path d="M368.62,470.47L365.43,470.47L365.43,477.06C365.43,478.75 366.13,479.14 367.12,479.14C367.617,479.123 368.104,479 368.55,478.78L368.62,480.2C368.004,480.434 367.349,480.549 366.69,480.54C366.614,480.547 366.537,480.55 366.461,480.55C364.985,480.55 363.771,479.335 363.771,477.86C363.771,477.753 363.777,477.646 363.79,477.54L363.79,470.54L361.45,470.54L361.45,469.16L363.79,469.16L363.79,465.98L365.43,465.98L365.43,469.16L368.62,469.16L368.62,470.47Z" style="fill:rgb(31,31,31);fill-rule:nonzero;"/>
        <path d="M381.14,475.18L371.77,475.18C371.781,477.436 373.644,479.286 375.9,479.28C377.358,479.288 378.725,478.552 379.52,477.33L380.75,478.33C379.617,479.864 377.807,480.756 375.9,480.72C375.875,480.72 375.85,480.72 375.825,480.72C372.566,480.72 369.885,478.039 369.885,474.78C369.885,471.549 372.52,468.881 375.75,468.84C379.3,468.84 381.16,471.35 381.16,474.44C381.16,474.62 381.16,474.89 381.14,475.18ZM379.49,473.87C379.492,473.825 379.493,473.78 379.493,473.735C379.493,471.782 377.886,470.175 375.933,470.175C375.872,470.175 375.811,470.177 375.75,470.18C373.668,470.174 371.911,471.794 371.75,473.87L379.49,473.87Z" style="fill:rgb(31,31,31);fill-rule:nonzero;"/>
        <path d="M402.93,477.86L403,477.86L403,463.3L404.74,463.3L404.74,480.39L402.57,480.39L392.62,465.69L392.57,465.69L392.57,480.39L390.83,480.39L390.83,463.3L393,463.3L402.93,477.86Z" style="fill:rgb(31,31,31);fill-rule:nonzero;"/>
        <path d="M414.26,480.68C411.024,480.647 408.38,477.976 408.38,474.74C408.38,471.482 411.061,468.8 414.32,468.8C417.578,468.8 420.26,471.482 420.26,474.74C420.261,474.791 420.262,474.843 420.262,474.894C420.262,478.07 417.648,480.684 414.472,480.684C414.401,480.684 414.331,480.683 414.26,480.68ZM414.26,470.18C414.17,470.175 414.08,470.172 413.99,470.172C411.488,470.172 409.43,472.23 409.43,474.732C409.43,477.234 411.488,479.292 413.99,479.292C416.489,479.292 418.546,477.239 418.55,474.74C418.557,474.643 418.56,474.547 418.56,474.45C418.56,472.107 416.632,470.18 414.29,470.18C414.28,470.18 414.27,470.18 414.26,470.18Z" style="fill:rgb(31,31,31);fill-rule:nonzero;"/>
        <path d="M423.48,469.09L425.05,469.09C425.1,469.7 425.15,470.54 425.15,471.02L425.2,471.02C426.098,469.332 428.043,468.463 429.9,468.92L429.69,470.47C429.311,470.37 428.922,470.32 428.53,470.32C426.79,470.32 425.22,471.58 425.22,474.6L425.22,480.39L423.58,480.39L423.58,471.58C423.58,471 423.55,469.87 423.48,469.09Z" style="fill:rgb(31,31,31);fill-rule:nonzero;"/>
        <path d="M437,480.68C433.741,480.68 431.06,477.999 431.06,474.74C431.06,471.481 433.741,468.8 437,468.8C438.71,468.794 440.316,469.638 441.28,471.05L441.33,471.05L441.33,462.14L442.97,462.14L442.97,480.39L441.33,480.39L441.33,478.49L441.28,478.49C440.294,479.87 438.696,480.688 437,480.68ZM437.17,479.28C439.666,479.28 441.72,477.226 441.72,474.73C441.72,472.234 439.666,470.18 437.17,470.18C434.44,470.18 432.9,472.23 432.9,474.74C432.9,477.25 434.4,479.28 437.13,479.28L437.17,479.28Z" style="fill:rgb(31,31,31);fill-rule:nonzero;"/>
        <path d="M457.36,475.18L448,475.18C448.011,477.436 449.874,479.286 452.13,479.28C453.588,479.288 454.955,478.552 455.75,477.33L456.98,478.33C455.847,479.864 454.037,480.756 452.13,480.72C452.108,480.72 452.087,480.72 452.065,480.72C448.795,480.72 446.105,478.03 446.105,474.76C446.105,471.515 448.755,468.835 452,468.8C455.55,468.8 457.41,471.31 457.41,474.4C457.38,474.62 457.38,474.89 457.36,475.18ZM455.71,473.87C455.712,473.825 455.713,473.78 455.713,473.735C455.713,471.782 454.106,470.175 452.153,470.175C452.092,470.175 452.031,470.177 451.97,470.18C449.888,470.174 448.131,471.794 447.97,473.87L455.71,473.87Z" style="fill:rgb(31,31,31);fill-rule:nonzero;"/>
        <path d="M462.14,469.09C462.19,469.7 462.24,470.54 462.24,471.02C463.033,469.637 464.516,468.787 466.11,468.8C468.98,468.8 470.41,470.66 470.41,473.46L470.41,480.39L468.8,480.39L468.8,474.14C468.8,471.77 468.1,470.14 465.74,470.14C464,470.14 462.31,471.54 462.31,474.56L462.31,480.35L460.67,480.35L460.67,471.54C460.67,470.94 460.67,469.83 460.57,469.05L462.14,469.09Z" style="fill:rgb(31,31,31);fill-rule:nonzero;"/>
        <path d="M366.74,403.27C366.02,401.97 361.8,400.89 361.8,400.89L365.15,400.65C365.15,400.52 365.6,399.1 365.59,398.91L369.39,398.52C369.39,398.52 366.66,396.35 365.69,396.26C363.93,396.09 358.77,398.4 358.77,398.4L345.31,388L350.58,388C349.967,387.428 349.411,386.799 348.92,386.12C348.37,385.078 347.97,383.964 347.73,382.81L346.53,377.29C346.227,375.545 345.522,373.895 344.47,372.47C343.926,371.786 343.341,371.135 342.72,370.52L342.72,368.9L344,368.9C344.017,368.901 344.034,368.901 344.051,368.901C344.817,368.901 345.454,368.286 345.48,367.52L345.48,365.52L336.33,365.52L336.33,363.69L346.24,363.69C347.748,363.759 349.218,363.193 350.29,362.13C351.356,361.011 352.039,359.582 352.24,358.05C352.24,357.501 351.789,357.05 351.24,357.05C350.691,357.05 350.24,357.501 350.24,358.05C350.02,359.048 349.532,359.968 348.83,360.71C348.116,361.372 347.162,361.716 346.19,361.66L336.34,361.66C336.34,361.37 336.39,361.52 336.46,361.35C336.76,360.35 337.93,359.93 339.12,359.92C341.33,359.92 343.7,359.92 346.62,359.81C347.97,359.81 348.62,357.6 348.62,357.6C348.62,357.6 349.24,354.07 349.24,353.6C349.24,353.13 349.02,352.98 348.41,352.77C346.882,352.385 345.4,351.835 343.99,351.13C342.666,350.263 341.167,349.7 339.6,349.48L333.55,349.48C332.653,349.664 331.809,350.046 331.08,350.6C330.351,351.154 330.41,348.38 328.73,347.81L326.26,346.95L327.26,352.89L325.73,358.25C324.455,358.969 323.116,359.568 321.73,360.04C321.16,360.18 320.563,360.166 320,360L321.34,361.36C321.83,361.83 323.34,361.81 324.81,361.67L324.45,362.85C323.235,363.611 321.94,364.238 320.59,364.72C319.981,364.867 319.342,364.836 318.75,364.63L320.13,366.03C320.59,366.49 322.03,366.49 323.47,366.34L322.75,368.78C322.545,370.153 321.282,371.137 319.9,371C317.55,371 288.15,367.52 288.15,367.52C288.15,367.52 284.67,367.52 282.89,365.52C282.009,364.783 281.536,363.665 281.62,362.52L281.62,362.33C281.62,358.75 285.93,358.39 288.62,358.39L312.37,358.39C315.43,358.39 317.91,358.02 319.68,356.3C322.12,353.95 322.36,350.43 322.36,349.14L322.36,346.33C322.507,345.715 322.694,345.11 322.92,344.52C323.43,342.95 325.06,339.83 327.44,339.83L338.44,339.83C339.11,339.83 342.98,333.83 342.58,334.17C342.58,334.17 339.93,335.33 339.28,335.47L328,335.47C325.4,335.47 321.33,339.03 320.33,342.82C319.63,339.13 316.65,335.47 314.33,335.47L301.47,335.47C300.82,335.33 298.18,334.17 298.18,334.17C297.78,333.85 301.24,339.83 301.92,339.83L313.32,339.83C315.69,339.83 317.52,342.69 318.06,344.27C318.327,344.923 318.453,345.625 318.43,346.33L318.43,348.93C318.43,348.93 318.59,351.93 316.95,353.49C316.03,354.36 314.84,354.68 312.95,354.68L302.8,354.78C303.171,353.209 303.729,351.689 304.46,350.25C304.995,349.491 305.729,348.892 306.58,348.52C307.431,348.148 305.58,348.6 303.65,348.6C302.05,348.6 299.13,353.01 298.07,354.6L294.56,354.6C294.97,353.09 295.99,349.37 296.79,348.17C297.463,347.204 298.416,346.468 299.52,346.06C300.624,345.652 298.17,346.06 295.76,346.06C293.71,346.06 289.83,352.59 288.53,354.5C285,354.77 277.72,355.36 277.72,362.44C277.618,364.564 278.431,366.633 279.95,368.12C282.012,370.222 284.808,371.447 287.75,371.54C287.95,371.54 295.75,372.54 295.75,372.54L287.11,387.45L284.2,387.35L278.95,398.35L275.45,399.54C274.627,399.98 273.936,400.633 273.45,401.43C273.198,401.948 273.104,402.529 273.18,403.1L275.24,402.32L276.24,403.18L278.61,402.47L276.61,407L277.86,408.3L277.44,411.99C279.44,411.8 280.93,408.66 280.93,408.66L281.11,404.04L282.82,408.3L283.93,408.41L286.15,412.04C286.584,411.655 286.903,411.156 287.07,410.6C287.212,409.512 287.285,408.417 287.29,407.32C286.56,406.46 284.59,403.73 284.59,403.73L288.17,406.53C288.17,406.41 288.83,405.88 288.93,405.73L292.85,407.27C292.442,405.948 291.885,404.676 291.19,403.48C290.82,403.08 284.74,400.06 284.74,400.06L299.84,385.92C304.1,382.54 306.7,380.18 308.34,379.92C309.98,379.66 323.65,388.74 325.39,388.63L329.63,387.9C329.75,388.9 329.63,390.64 329.91,391.1C329.98,392.34 352.91,401.1 352.91,401.1C351.838,401.126 350.783,401.371 349.81,401.82C349.024,402.412 348.347,403.136 347.81,403.96L351.74,403.96L352.17,405.24L355.82,403.12L355.39,406.98L356.71,407.15L356.8,411.97C358.63,411.2 359.75,407.47 359.75,407.47L359.75,403.84L363.5,407.2L364.89,405.9L368.17,407.47C368.274,406.872 368.215,406.257 368,405.69C367.68,405 366.74,403.27 366.74,403.27ZM335.22,355.47C335.098,355.393 335.025,355.259 335.025,355.115C335.025,355.035 335.047,354.957 335.09,354.89C335.4,354.39 337.01,351.89 338.09,351.72C339.325,351.551 340.582,351.82 341.64,352.48L342.64,352.99C342.845,353.103 342.921,353.364 342.81,353.57C342.741,353.709 342.598,353.798 342.443,353.798C342.375,353.798 342.309,353.782 342.25,353.75L341.25,353.23C341.016,353.104 340.776,352.991 340.53,352.89C340.695,353.179 340.781,353.507 340.78,353.84C340.781,353.868 340.782,353.897 340.782,353.925C340.782,355.045 339.86,355.967 338.74,355.967C337.652,355.967 336.745,355.097 336.7,354.01C336.36,354.44 336.04,354.89 335.7,355.34C335.592,355.492 335.39,355.547 335.22,355.47Z" style="fill:rgb(31,31,31);fill-rule:nonzero;"/>
        <path d="M338.78,355.05C338.817,355.053 338.854,355.055 338.89,355.055C339.56,355.055 340.11,354.504 340.11,353.835C340.11,353.166 339.56,352.615 338.89,352.615C338.854,352.615 338.817,352.617 338.78,352.62C338.743,352.617 338.706,352.615 338.67,352.615C338,352.615 337.45,353.166 337.45,353.835C337.45,354.504 338,355.055 338.67,355.055C338.706,355.055 338.743,355.053 338.78,355.05Z" style="fill:rgb(31,31,31);fill-rule:nonzero;"/>
        <path d="M345.32,371.68C345.353,371.721 345.383,371.764 345.41,371.81C346.485,373.254 347.22,374.922 347.56,376.69C347.56,376.8 347.61,376.91 347.64,377.03L348.64,381.44L359.37,364.76C360.552,365.219 361.795,365.499 363.06,365.59C364.06,365.59 365.43,363.53 365.43,363.53L362.74,362.53L362.29,358.67L365.43,358.89L366,357.89L369.43,358.38C369.11,355.69 368.43,354.62 366.56,354.56C365.068,354.585 363.584,354.79 362.14,355.17L365.39,351.33L364,350L365.78,347.46C364.888,347.389 363.992,347.389 363.1,347.46C360.49,347.84 358.52,355.93 358.52,355.93L358.52,350.93C358.39,350.98 357.31,350.93 357.12,350.93L356.81,347.83C356.81,347.83 353.98,349.58 353.81,352.09C353.68,353.85 356.56,357.29 356.56,357.29L345.32,371.68Z" style="fill:rgb(31,31,31);fill-rule:nonzero;"/>
        <path d="M328.3,397C326.1,396.64 322.41,399.65 322.41,399.65C321.67,399.34 312.88,394.48 312.88,394.48C312.88,394.48 318.64,388.86 315.76,385.55L314.2,383.77C312.352,382.671 310.415,381.728 308.41,380.95C307.41,381.13 305.34,382.78 302.76,384.86L302.34,385.2C304.34,386.63 308.34,390.12 305.7,393.14C304.777,394.13 303.7,394.964 302.51,395.61L302.51,398.47C302.51,398.47 316.76,403.19 316.92,403.47C316.92,403.47 316.75,403.47 315.86,404.47C315.125,405.263 314.9,406.408 315.28,407.42L317.1,406.03L317.56,406.62L319.75,404.94L320.63,409.05L321.9,408.91L322.29,412C324.68,411.22 324.82,407.73 324.82,407.73L323.2,403.73L328.54,407.82L329.23,406.25L331.96,407.11C331.883,406.427 331.726,405.756 331.49,405.11C330.02,401.44 324.87,401.54 324.87,401.54L328.6,400.33L328.39,399.24L331.39,399.16C331.39,399.16 329.27,397.18 328.3,397Z" style="fill:rgb(31,31,31);fill-rule:nonzero;"/>
        <path d="M427.92,339.76L416.75,339.76L410.79,350.73L408.39,339.76L404.2,350.73L400,339.76L397.61,350.73L391.65,339.76L380.47,339.76L380.44,348.89L394.07,354.45L380.59,360.36L394.42,365.12L381.45,371.81L395.45,375.26L383.44,383.16L397.24,384.65L387.17,394.04L400.54,394.04L393.57,403.65L404.2,411.91L414.82,403.65L407.86,394.04L421.23,394.04L411.15,384.65L424.95,383.16L412.94,375.26L426.95,371.81L413.97,365.12L427.8,360.36L414.33,354.45L427.96,348.89L427.92,339.76Z" style="fill:rgb(31,31,31);fill-rule:nonzero;"/>
        <path d="M138.12,402.17C143.821,408.411 151.907,411.952 160.36,411.91C170.82,412.13 182.53,405.84 182.52,393.44C182.52,380.49 172.31,376.63 162.34,372.81C155.97,370.36 145.09,366.97 145.08,356.05C145.08,347.81 152.4,342.28 161.78,342.49C167.17,342.62 172.54,345.22 177.78,349.54L180.63,346.26C174.31,340.7 167.79,338.26 161.69,338.16C150,337.91 140.46,344.77 140.46,356.05C140.46,369.86 152.46,373.64 159.92,376.6C168.54,380.02 177.82,383.35 177.82,393.44C177.82,401.6 170.21,407.79 159.87,407.51C152.82,407.496 146.104,404.457 141.44,399.17L138.12,402.17Z" style="fill:rgb(31,31,31);fill-rule:nonzero;"/>
        <path d="M239.25,410.19L243.84,410.19L243.84,339.86L239.25,339.86L239.25,371.65L202.44,371.65L202.44,339.86L197.84,339.86L197.84,410.19L202.44,410.19L202.44,375.98L239.25,375.98L239.25,410.19Z" style="fill:rgb(31,31,31);fill-rule:nonzero;"/>
    </g>
</svg>
