<?xml version="1.0" encoding="UTF-8" standalone="no"?>
<!DOCTYPE svg PUBLIC "-//W3C//DTD SVG 1.1//EN" "http://www.w3.org/Graphics/SVG/1.1/DTD/svg11.dtd">
<svg width="100%" height="100%" viewBox="0 0 3000 730" version="1.1" xmlns="http://www.w3.org/2000/svg" xmlns:xlink="http://www.w3.org/1999/xlink" xml:space="preserve" xmlns:serif="http://www.serif.com/" style="fill-rule:evenodd;clip-rule:evenodd;stroke-linejoin:round;stroke-miterlimit:2;">
    <g transform="matrix(4.16667,0,0,4.16667,0,0)">
        <path d="M54.752,156.356L70.156,156.356L63.154,134.727L54.752,156.356ZM68.904,174.465L68.904,172.82C70.13,172.598 71.046,172.352 71.648,172.084C72.25,171.814 72.699,171.441 72.994,170.961C73.289,170.481 73.435,169.836 73.435,169.031C73.435,168.272 73.337,167.451 73.14,166.566C72.943,165.684 72.662,164.695 72.293,163.6L70.929,159.273L53.757,159.273L52.503,162.561C51.865,164.215 51.447,165.467 51.252,166.316C51.054,167.166 50.957,167.938 50.957,168.629C50.957,169.971 51.332,170.955 52.08,171.58C52.83,172.207 53.978,172.619 55.527,172.82L55.527,174.465L39.791,174.465L39.791,172.82C41.166,172.619 42.365,171.895 43.384,170.641C44.402,169.391 45.392,167.602 46.351,165.275L61.716,128.154L67.539,128.154L80.068,165.545C80.658,167.287 81.179,168.619 81.634,169.535C82.089,170.451 82.636,171.166 83.275,171.682C83.914,172.195 84.787,172.576 85.892,172.82L85.892,174.465L68.904,174.465Z" style="fill:rgb(0,68,124);fill-rule:nonzero;"/>
        <path d="M102.855,131.775L102.855,151.695L107.02,151.695C109.158,151.695 110.889,151.555 112.217,151.275C113.543,150.996 114.771,150.465 115.9,149.682C117.031,148.9 117.934,147.811 118.609,146.412C119.285,145.016 119.623,143.301 119.623,141.266C119.623,139.143 119.223,137.375 118.426,135.967C117.627,134.559 116.418,133.486 114.795,132.748C113.174,132.01 110.988,131.641 108.236,131.641C106.025,131.641 104.232,131.686 102.855,131.775ZM102.855,154.578L102.855,165.981C102.855,167.59 102.924,168.758 103.059,169.484C103.193,170.211 103.396,170.76 103.666,171.127C103.938,171.496 104.305,171.799 104.771,172.033C105.238,172.268 106.037,172.531 107.168,172.82L107.168,174.465L91.617,174.465L91.617,172.82C93.138,172.463 94.158,172.066 94.675,171.631C95.191,171.195 95.529,170.574 95.687,169.77C95.847,168.965 95.927,167.736 95.927,166.08L95.927,137.074C95.927,135.531 95.867,134.408 95.744,133.703C95.621,133 95.418,132.451 95.134,132.061C94.853,131.67 94.478,131.356 94.011,131.122C93.544,130.887 92.746,130.624 91.617,130.335L91.617,128.689L109.857,128.689C115.605,128.689 119.904,129.641 122.756,131.541C125.605,133.441 127.029,136.393 127.029,140.393C127.029,143.457 126.104,146.061 124.248,148.207C122.393,150.354 119.611,152.029 115.9,153.236L115.9,153.506C117.398,154.064 118.684,154.863 119.752,155.902C120.82,156.943 122.006,158.559 123.309,160.748L126.625,166.248C127.582,167.857 128.406,169.088 129.093,169.938C129.781,170.787 130.481,171.436 131.193,171.883C131.906,172.33 132.854,172.643 134.031,172.82L134.031,174.465L123.824,174.465C122.891,173.279 122.006,172.006 121.17,170.641C120.336,169.277 119.512,167.893 118.701,166.482L115.459,160.883C114.477,159.184 113.672,157.932 113.045,157.127C112.418,156.322 111.842,155.758 111.313,155.434C110.785,155.109 110.221,154.887 109.617,154.764C109.016,154.641 108.113,154.578 106.91,154.578L102.855,154.578Z" style="fill:rgb(0,68,124);fill-rule:nonzero;"/>
        <path d="M134.879,128.689L174.752,128.689L174.752,140.359L171.141,140.359C170.6,138.438 170.064,136.918 169.537,135.799C169.008,134.682 168.449,133.832 167.859,133.25C167.271,132.67 166.639,132.256 165.963,132.01C165.287,131.764 164.273,131.641 162.922,131.641L158.242,131.641L158.242,165.981C158.242,167.299 158.322,168.35 158.482,169.133C158.641,169.916 158.887,170.535 159.219,170.994C159.551,171.451 159.998,171.811 160.564,172.066C161.129,172.324 162.014,172.576 163.217,172.82L163.217,174.465L146.377,174.465L146.377,172.82C147.113,172.664 147.764,172.498 148.33,172.318C148.895,172.139 149.355,171.922 149.711,171.664C150.066,171.408 150.361,171.078 150.596,170.676C150.828,170.273 151.014,169.725 151.148,169.031C151.283,168.34 151.352,167.322 151.352,165.981L151.352,131.641L146.707,131.641C145.553,131.641 144.602,131.742 143.852,131.943C143.102,132.145 142.408,132.563 141.77,133.201C141.131,133.838 140.547,134.742 140.02,135.916C139.49,137.09 138.994,138.572 138.527,140.359L134.879,140.359L134.879,128.689Z" style="fill:rgb(0,68,124);fill-rule:nonzero;"/>
        <path d="M217.795,128.689L217.795,138.816L214.184,138.816C213.816,137.723 213.436,136.762 213.041,135.934C212.648,135.107 212.244,134.414 211.826,133.854C211.408,133.295 210.947,132.848 210.443,132.514C209.939,132.178 209.344,131.949 208.656,131.826C207.969,131.703 207.146,131.641 206.188,131.641L194.543,131.641L194.543,149.213L202.43,149.213C203.51,149.213 204.357,149.074 204.971,148.793C205.586,148.514 206.096,148.039 206.5,147.369C206.906,146.697 207.293,145.647 207.662,144.217L211.125,144.217L211.125,157.094L207.662,157.094C207.316,155.752 206.938,154.74 206.52,154.059C206.102,153.377 205.604,152.891 205.027,152.6C204.449,152.311 203.584,152.164 202.43,152.164L194.543,152.164L194.543,171.514L206.004,171.514C207.207,171.514 208.184,171.418 208.934,171.229C209.682,171.039 210.326,170.715 210.867,170.256C211.408,169.797 211.887,169.199 212.305,168.461C212.723,167.725 213.072,166.959 213.355,166.164C213.637,165.371 214.023,164.215 214.516,162.693L218.164,162.693L217.465,174.465L183.34,174.465L183.34,172.82C184.863,172.463 185.883,172.066 186.398,171.631C186.914,171.195 187.252,170.574 187.412,169.77C187.572,168.965 187.652,167.736 187.652,166.08L187.652,137.074C187.652,135.531 187.59,134.408 187.467,133.703C187.344,133 187.141,132.451 186.859,132.061C186.576,131.67 186.201,131.356 185.736,131.122C185.268,130.887 184.471,130.624 183.34,130.335L183.34,128.689L217.795,128.689Z" style="fill:rgb(0,68,124);fill-rule:nonzero;"/>
        <path d="M241.35,171.379L251.004,171.379C252.061,171.379 252.945,171.324 253.658,171.211C254.369,171.1 254.979,170.926 255.482,170.691C255.984,170.457 256.439,170.133 256.846,169.719C257.25,169.307 257.637,168.764 258.006,168.094C258.375,167.422 258.725,166.578 259.057,165.561C259.389,164.545 259.799,163.018 260.29,160.984L264.012,160.984L263.275,174.465L230.146,174.465L230.146,172.82C231.67,172.463 232.689,172.066 233.205,171.631C233.721,171.195 234.059,170.574 234.219,169.77C234.379,168.965 234.459,167.736 234.459,166.08L234.459,137.074C234.459,135.531 234.396,134.408 234.273,133.703C234.15,133 233.947,132.451 233.666,132.061C233.383,131.67 233.008,131.356 232.543,131.122C232.074,130.887 231.277,130.624 230.146,130.335L230.146,128.689L245.66,128.689L245.66,130.335C244.58,130.602 243.813,130.842 243.357,131.055C242.902,131.268 242.529,131.553 242.234,131.91C241.939,132.268 241.719,132.814 241.57,133.553C241.424,134.291 241.35,135.465 241.35,137.074L241.35,171.379Z" style="fill:rgb(0,68,124);fill-rule:nonzero;"/>
        <path d="M275.264,164.035C275.754,166.002 276.418,167.557 277.252,168.697C278.088,169.836 279.17,170.682 280.496,171.229C281.822,171.777 283.529,172.051 285.617,172.051C288.492,172.051 290.697,171.369 292.232,170.004C293.768,168.641 294.535,166.65 294.535,164.035C294.535,162.359 294.217,160.949 293.578,159.811C292.939,158.67 291.895,157.596 290.445,156.59C288.996,155.584 286.785,154.41 283.813,153.07C280.938,151.773 278.666,150.504 276.994,149.264C275.324,148.023 274.078,146.676 273.254,145.223C272.432,143.77 272.02,142.182 272.02,140.461C272.02,137.957 272.664,135.783 273.955,133.938C275.244,132.094 277.137,130.668 279.629,129.663C282.123,128.656 284.979,128.154 288.197,128.154C290.064,128.154 291.889,128.242 293.67,128.422C295.451,128.602 297.68,129.004 300.357,129.629L300.357,138.684L296.711,138.684C296.145,136.717 295.432,135.186 294.572,134.09C293.713,132.994 292.705,132.229 291.551,131.791C290.396,131.356 288.898,131.139 287.055,131.139C285.457,131.139 284.027,131.406 282.762,131.943C281.496,132.479 280.496,133.289 279.758,134.375C279.021,135.459 278.652,136.75 278.652,138.248C278.652,139.834 278.967,141.176 279.594,142.272C280.219,143.367 281.195,144.385 282.523,145.322C283.85,146.262 285.814,147.313 288.418,148.475C291.563,149.906 294.002,151.236 295.734,152.467C297.465,153.695 298.816,155.098 299.787,156.674C300.758,158.25 301.242,160.09 301.242,162.191C301.242,164.539 300.838,166.523 300.027,168.143C299.217,169.764 298.092,171.084 296.654,172.1C295.217,173.117 293.498,173.856 291.496,174.313C289.492,174.772 287.301,175 284.918,175C281.061,175 276.613,174.408 271.578,173.223L271.578,164.035L275.264,164.035Z" style="fill:rgb(0,68,124);fill-rule:nonzero;"/>
        <rect x="325.205" y="154.611" width="31.102" height="4.174" style="fill:rgb(0,68,124);fill-rule:nonzero;"/>
        <path d="M388.131,171.379L397.786,171.379C398.842,171.379 399.725,171.324 400.438,171.211C401.151,171.1 401.758,170.926 402.262,170.691C402.766,170.457 403.221,170.133 403.625,169.719C404.032,169.307 404.418,168.764 404.788,168.094C405.155,167.422 405.506,166.578 405.836,165.561C406.168,164.545 406.581,163.018 407.071,160.984L410.792,160.984L410.055,174.465L376.928,174.465L376.928,172.82C378.452,172.463 379.471,172.066 379.987,171.631C380.502,171.195 380.84,170.574 381,169.77C381.159,168.965 381.239,167.736 381.239,166.08L381.239,137.074C381.239,135.531 381.178,134.408 381.055,133.703C380.932,133 380.729,132.451 380.448,132.061C380.165,131.67 379.79,131.356 379.323,131.122C378.856,130.887 378.057,130.624 376.928,130.335L376.928,128.689L392.442,128.689L392.442,130.335C391.36,130.602 390.592,130.842 390.139,131.055C389.684,131.268 389.309,131.553 389.014,131.91C388.719,132.268 388.499,132.814 388.352,133.553C388.204,134.291 388.131,135.465 388.131,137.074L388.131,171.379Z" style="fill:rgb(0,68,124);fill-rule:nonzero;"/>
        <path d="M430.129,156.356L445.534,156.356L438.532,134.727L430.129,156.356ZM444.28,174.465L444.28,172.82C445.508,172.598 446.424,172.352 447.026,172.084C447.627,171.814 448.077,171.441 448.372,170.961C448.667,170.481 448.813,169.836 448.813,169.031C448.813,168.272 448.715,167.451 448.518,166.566C448.321,165.684 448.04,164.695 447.67,163.6L446.307,159.273L429.135,159.273L427.881,162.561C427.243,164.215 426.825,165.467 426.629,166.316C426.432,167.166 426.334,167.938 426.334,168.629C426.334,169.971 426.708,170.955 427.458,171.58C428.208,172.207 429.356,172.619 430.903,172.82L430.903,174.465L415.167,174.465L415.167,172.82C416.542,172.619 417.741,171.895 418.762,170.641C419.78,169.391 420.77,167.602 421.727,165.275L437.094,128.154L442.917,128.154L455.446,165.545C456.036,167.287 456.557,168.619 457.012,169.535C457.467,170.451 458.014,171.166 458.653,171.682C459.292,172.195 460.163,172.576 461.268,172.82L461.268,174.465L444.28,174.465Z" style="fill:rgb(0,68,124);fill-rule:nonzero;"/>
        <path d="M495.641,156.322C496.526,157.664 497.268,158.838 497.87,159.844C498.473,160.85 499.092,161.979 499.731,163.231L500.211,163.231C500.086,161.867 499.977,159.156 499.879,155.098C499.78,151.041 499.731,147.381 499.731,144.115L499.731,137.074C499.731,135.531 499.682,134.402 499.584,133.688C499.485,132.971 499.307,132.424 499.049,132.043C498.792,131.664 498.436,131.356 497.981,131.122C497.526,130.887 496.735,130.624 495.604,130.335L495.604,128.689L508.87,128.689L508.87,130.335C507.764,130.602 506.985,130.848 506.53,131.07C506.075,131.295 505.708,131.586 505.424,131.943C505.143,132.301 504.928,132.838 504.78,133.553C504.633,134.268 504.559,135.441 504.559,137.074L504.559,174.666L499.952,174.666L479.426,143.344C478.149,141.4 477.241,139.981 476.7,139.086C476.159,138.191 475.655,137.309 475.188,136.436L474.563,136.436C474.735,138.158 474.858,141.272 474.93,145.775C475.004,150.281 475.042,154.77 475.042,159.24L475.042,166.08C475.042,167.578 475.096,168.674 475.208,169.367C475.317,170.061 475.502,170.607 475.76,171.01C476.018,171.412 476.399,171.748 476.903,172.016C477.405,172.285 478.223,172.553 479.352,172.82L479.352,174.465L465.903,174.465L465.903,172.82C467.426,172.463 468.446,172.066 468.961,171.631C469.477,171.195 469.815,170.574 469.975,169.77C470.133,168.965 470.213,167.736 470.213,166.08L470.213,137.074C470.213,135.531 470.153,134.408 470.03,133.703C469.907,133 469.704,132.451 469.422,132.061C469.139,131.67 468.764,131.356 468.297,131.122C467.831,130.887 467.032,130.624 465.903,130.335L465.903,128.689L477.436,128.689L495.641,156.322Z" style="fill:rgb(0,68,124);fill-rule:nonzero;"/>
        <path d="M549.477,174.297L546.602,175L543.913,172.385C542.315,173.279 540.645,173.939 538.901,174.363C537.157,174.789 535.155,175 532.895,175C526.678,175 521.999,173.063 518.854,169.184C515.709,165.305 514.137,159.541 514.137,151.897C514.137,147.135 514.997,142.953 516.716,139.354C518.435,135.754 520.905,132.988 524.124,131.055C527.342,129.122 531.125,128.154 535.473,128.154C537.758,128.154 539.958,128.272 542.071,128.506C544.182,128.74 546.53,129.148 549.108,129.732L549.108,138.951L545.461,138.951C544.797,136.939 544.01,135.369 543.102,134.24C542.192,133.111 541.106,132.307 539.84,131.826C538.575,131.346 536.971,131.104 535.032,131.104C532.354,131.104 530.006,131.887 527.993,133.451C525.979,135.018 524.413,137.324 523.294,140.377C522.176,143.428 521.617,147.111 521.617,151.426C521.617,155.809 522.09,159.553 523.038,162.66C523.982,165.768 525.389,168.109 527.256,169.686C529.124,171.262 531.42,172.051 534.147,172.051C537.045,172.051 539.196,171.475 540.596,170.322C541.997,169.172 542.696,167.4 542.696,165.008L542.696,162.996C542.696,160.984 542.581,159.531 542.346,158.637C542.114,157.742 541.702,157.049 541.112,156.557C540.522,156.066 539.551,155.664 538.202,155.35L538.202,153.707L553.088,153.707L553.088,155.35C552.204,155.617 551.542,155.926 551.098,156.272C550.657,156.619 550.319,157.049 550.084,157.563C549.852,158.078 549.692,158.709 549.606,159.457C549.52,160.207 549.477,161.273 549.477,162.66L549.477,174.297Z" style="fill:rgb(0,68,124);fill-rule:nonzero;"/>
        <path d="M588.768,156.322C589.653,157.664 590.395,158.838 590.997,159.844C591.6,160.85 592.219,161.979 592.858,163.231L593.338,163.231C593.213,161.867 593.104,159.156 593.006,155.098C592.907,151.041 592.858,147.381 592.858,144.115L592.858,137.074C592.858,135.531 592.809,134.402 592.711,133.688C592.612,132.971 592.434,132.424 592.176,132.043C591.918,131.664 591.563,131.356 591.108,131.122C590.653,130.887 589.862,130.624 588.731,130.335L588.731,128.689L601.997,128.689L601.997,130.335C600.891,130.602 600.112,130.848 599.657,131.07C599.202,131.295 598.834,131.586 598.551,131.943C598.27,132.301 598.055,132.838 597.907,133.553C597.76,134.268 597.686,135.441 597.686,137.074L597.686,174.666L593.079,174.666L572.553,143.344C571.276,141.4 570.368,139.981 569.827,139.086C569.286,138.191 568.782,137.309 568.315,136.436L567.69,136.436C567.862,138.158 567.985,141.272 568.057,145.775C568.131,150.281 568.168,154.77 568.168,159.24L568.168,166.08C568.168,167.578 568.223,168.674 568.334,169.367C568.444,170.061 568.629,170.607 568.887,171.01C569.145,171.412 569.526,171.748 570.03,172.016C570.532,172.285 571.35,172.553 572.479,172.82L572.479,174.465L559.03,174.465L559.03,172.82C560.553,172.463 561.573,172.066 562.088,171.631C562.604,171.195 562.942,170.574 563.102,169.77C563.26,168.965 563.34,167.736 563.34,166.08L563.34,137.074C563.34,135.531 563.28,134.408 563.157,133.703C563.034,133 562.831,132.451 562.549,132.061C562.266,131.67 561.891,131.356 561.424,131.122C560.958,130.887 560.159,130.624 559.03,130.335L559.03,128.689L570.563,128.689L588.768,156.322Z" style="fill:rgb(0,68,124);fill-rule:nonzero;"/>
        <path d="M643.682,128.689L643.682,138.816L640.069,138.816C639.702,137.723 639.321,136.762 638.928,135.934C638.534,135.107 638.129,134.414 637.711,133.854C637.293,133.295 636.833,132.848 636.329,132.514C635.825,132.178 635.229,131.949 634.542,131.826C633.854,131.703 633.032,131.641 632.073,131.641L620.428,131.641L620.428,149.213L628.315,149.213C629.395,149.213 630.243,149.074 630.858,148.793C631.471,148.514 631.981,148.039 632.387,147.369C632.792,146.697 633.178,145.647 633.547,144.217L637.01,144.217L637.01,157.094L633.547,157.094C633.204,155.752 632.823,154.74 632.405,154.059C631.987,153.377 631.489,152.891 630.913,152.6C630.334,152.311 629.469,152.164 628.315,152.164L620.428,152.164L620.428,171.514L631.889,171.514C633.092,171.514 634.069,171.418 634.819,171.229C635.567,171.039 636.213,170.715 636.752,170.256C637.293,169.797 637.772,169.199 638.19,168.461C638.608,167.725 638.958,166.959 639.241,166.164C639.522,165.371 639.911,164.215 640.401,162.693L644.049,162.693L643.35,174.465L609.225,174.465L609.225,172.82C610.749,172.463 611.768,172.066 612.284,171.631C612.799,171.195 613.137,170.574 613.297,169.77C613.458,168.965 613.538,167.736 613.538,166.08L613.538,137.074C613.538,135.531 613.475,134.408 613.352,133.703C613.229,133 613.028,132.451 612.745,132.061C612.461,131.67 612.086,131.356 611.622,131.122C611.155,130.887 610.356,130.624 609.225,130.335L609.225,128.689L643.682,128.689Z" style="fill:rgb(0,68,124);fill-rule:nonzero;"/>
        <path d="M656.366,164.035C656.856,166.002 657.52,167.557 658.356,168.697C659.19,169.836 660.272,170.682 661.598,171.229C662.924,171.777 664.631,172.051 666.721,172.051C669.594,172.051 671.799,171.369 673.334,170.004C674.87,168.641 675.637,166.65 675.637,164.035C675.637,162.359 675.319,160.949 674.68,159.811C674.042,158.67 672.997,157.596 671.547,156.59C670.098,155.584 667.887,154.41 664.915,153.07C662.04,151.773 659.768,150.504 658.096,149.264C656.426,148.023 655.18,146.676 654.356,145.223C653.534,143.77 653.122,142.182 653.122,140.461C653.122,137.957 653.768,135.783 655.057,133.938C656.346,132.094 658.239,130.668 660.733,129.663C663.225,128.656 666.081,128.154 669.299,128.154C671.167,128.154 672.991,128.242 674.772,128.422C676.553,128.602 678.782,129.004 681.461,129.629L681.461,138.684L677.813,138.684C677.247,136.717 676.536,135.186 675.674,134.09C674.815,132.994 673.807,132.229 672.653,131.791C671.499,131.356 670,131.139 668.157,131.139C666.561,131.139 665.129,131.406 663.864,131.943C662.598,132.479 661.598,133.289 660.862,134.375C660.124,135.459 659.756,136.75 659.756,138.248C659.756,139.834 660.069,141.176 660.696,142.272C661.321,143.367 662.297,144.385 663.625,145.322C664.952,146.262 666.917,147.313 669.52,148.475C672.665,149.906 675.104,151.236 676.836,152.467C678.567,153.695 679.918,155.098 680.889,156.674C681.86,158.25 682.344,160.09 682.344,162.191C682.344,164.539 681.94,166.523 681.129,168.143C680.319,169.764 679.194,171.084 677.756,172.1C676.321,173.117 674.6,173.856 672.598,174.313C670.596,174.772 668.403,175 666.02,175C662.163,175 657.715,174.408 652.68,173.223L652.68,164.035L656.366,164.035Z" style="fill:rgb(0,68,124);fill-rule:nonzero;"/>
        <path d="M693.145,164.035C693.635,166.002 694.299,167.557 695.135,168.697C695.969,169.836 697.051,170.682 698.377,171.229C699.704,171.777 701.411,172.051 703.5,172.051C706.374,172.051 708.579,171.369 710.114,170.004C711.649,168.641 712.417,166.65 712.417,164.035C712.417,162.359 712.098,160.949 711.459,159.811C710.821,158.67 709.776,157.596 708.327,156.59C706.877,155.584 704.667,154.41 701.694,153.07C698.819,151.773 696.547,150.504 694.875,149.264C693.206,148.023 691.959,146.676 691.135,145.223C690.313,143.77 689.901,142.182 689.901,140.461C689.901,137.957 690.547,135.783 691.836,133.938C693.125,132.094 695.018,130.668 697.512,129.663C700.004,128.656 702.86,128.154 706.079,128.154C707.946,128.154 709.77,128.242 711.551,128.422C713.333,128.602 715.561,129.004 718.241,129.629L718.241,138.684L714.592,138.684C714.026,136.717 713.315,135.186 712.454,134.09C711.594,132.994 710.586,132.229 709.432,131.791C708.278,131.356 706.78,131.139 704.936,131.139C703.34,131.139 701.909,131.406 700.643,131.943C699.377,132.479 698.377,133.289 697.641,134.375C696.903,135.459 696.536,136.75 696.536,138.248C696.536,139.834 696.848,141.176 697.475,142.272C698.1,143.367 699.077,144.385 700.405,145.322C701.731,146.262 703.696,147.313 706.299,148.475C709.444,149.906 711.883,151.236 713.616,152.467C715.346,153.695 716.698,155.098 717.668,156.674C718.639,158.25 719.124,160.09 719.124,162.191C719.124,164.539 718.719,166.523 717.909,168.143C717.098,169.764 715.973,171.084 714.536,172.1C713.1,173.117 711.379,173.856 709.377,174.313C707.375,174.772 705.182,175 702.799,175C698.942,175 694.495,174.408 689.459,173.223L689.459,164.035L693.145,164.035Z" style="fill:rgb(0,68,124);fill-rule:nonzero;"/>
        <path d="M28.628,167.136C27.83,168.58 26.537,169.672 24.753,170.41C22.968,171.148 20.462,171.52 17.24,171.52C15.025,171.52 13.019,171.441 11.224,171.285L11.224,152.137L16.945,152.137C20.144,152.137 22.654,152.483 24.476,153.178C26.296,153.871 27.644,154.924 28.519,156.335C29.39,157.746 29.83,159.537 29.83,161.709C29.83,163.883 29.429,165.691 28.628,167.136ZM11.224,131.816C11.984,131.772 12.627,131.727 14.156,131.684C15.679,131.639 16.347,131.59 17.382,131.613C18.933,131.652 20.375,131.744 21.701,132.001C23.031,132.26 24.181,132.689 25.154,133.295C26.125,133.897 26.89,134.711 27.443,135.731C27.998,136.752 28.273,138.029 28.273,139.576C28.273,142.712 27.281,145.104 25.3,146.747C23.32,148.395 20.4,149.219 15.714,149.219L11.224,149.219L11.224,131.816ZM34.666,154.703C31.902,151.637 28.39,151.189 25.039,150.454L25.039,150.193C27.128,149.387 28.859,148.513 30.187,147.571C31.517,146.63 32.593,145.445 33.418,144.01C34.242,142.58 34.656,140.886 34.656,138.937C34.656,136.588 34.076,134.666 32.919,133.176C31.763,131.688 29.998,130.561 27.623,129.799C25.248,129.036 22.103,128.658 18.189,128.658L0,128.658L0,130.305C1.132,130.596 1.931,130.859 2.4,131.094C2.867,131.328 3.242,131.643 3.525,132.034C3.808,132.426 4.009,132.976 4.134,133.682C4.257,134.385 4.318,135.512 4.318,137.055L4.318,166.077C4.318,167.734 4.238,168.966 4.078,169.773C3.917,170.578 3.582,171.199 3.064,171.637C2.548,172.073 1.527,172.471 0,172.829L0,174.477L19.013,174.477C22.826,174.477 26.078,174.043 28.759,173.182C31.441,172.32 33.527,170.925 35.017,168.999C36.505,167.073 37.25,164.586 37.25,161.541C37.25,158.898 36.39,156.617 34.666,154.703Z" style="fill:rgb(0,68,124);fill-rule:nonzero;"/>
        <path d="M378.846,59.517C376.67,64.295 371.075,72.318 359.614,72.318C348.231,72.318 342.631,64.405 340.426,59.617L333.469,59.137C334.241,62.414 341.034,78.35 359.614,78.35C378.403,78.35 385.135,62.055 385.774,59.04L378.846,59.517Z" style="fill:rgb(0,68,124);fill-rule:nonzero;"/>
        <path d="M388.655,58.84C386.43,64.933 379.934,80.324 359.614,80.469C339.405,80.325 333.198,65.093 330.633,58.942L323.26,58.432C324.18,62.041 331.506,86.768 359.614,86.768C387.981,86.768 395.18,61.572 395.987,58.334L388.655,58.84Z" style="fill:rgb(0,68,124);fill-rule:nonzero;"/>
        <path d="M398.465,55.062L399.776,51.02L373.379,56.091L373.227,57.982L398.465,55.062Z" style="fill:rgb(0,68,124);fill-rule:nonzero;"/>
        <path d="M320.094,55.062L318.782,51.02L345.178,56.091L345.333,57.982L320.094,55.062Z" style="fill:rgb(0,68,124);fill-rule:nonzero;"/>
        <path d="M384.661,41.755C384.2,41.895 383.672,42.152 383.182,41.566C382.536,40.799 383.901,38.349 384.43,37.693L375.239,37.693L376.11,40.221C376.11,40.221 376.639,41.755 374.665,41.667L362.653,41.667L362.653,10.319L332.27,48.765L355.497,48.765L355.473,62.621C355.473,62.621 355.44,64.956 353.989,65.613L364.086,65.613C362.631,64.956 362.6,62.621 362.6,62.621L362.575,48.765L376.018,48.765C376.018,48.765 376.686,49.124 376.112,50.027C375.948,50.284 375.028,52.125 375.028,52.125L384.526,52.125C384.526,52.125 383.086,50.233 382.862,49.337C382.483,47.82 384.002,48.113 384.924,48.418C385.844,48.722 386.897,49.25 386.897,49.25L386.897,40.964C386.897,40.964 385.618,41.464 384.661,41.755ZM355.471,41.667L346.565,41.667L355.473,30.432L355.471,41.667Z" style="fill:rgb(0,68,124);fill-rule:nonzero;"/>
        <path d="M359.28,95.84C334.02,95.84 313.469,75.291 313.469,50.032C313.469,24.772 334.02,4.22 359.28,4.22C384.538,4.22 405.09,24.772 405.09,50.032C405.09,75.291 384.538,95.84 359.28,95.84ZM359.28,0.064C331.727,0.064 309.311,22.479 309.311,50.032C309.311,77.583 331.727,100 359.28,100C386.831,100 409.247,77.583 409.247,50.032C409.247,22.479 386.831,0.064 359.28,0.064Z" style="fill:rgb(0,68,124);fill-rule:nonzero;"/>
    </g>
</svg>
