<?xml version="1.0" encoding="UTF-8" standalone="no"?>
<!DOCTYPE svg PUBLIC "-//W3C//DTD SVG 1.1//EN" "http://www.w3.org/Graphics/SVG/1.1/DTD/svg11.dtd">
<svg width="100%" height="100%" viewBox="0 0 1200 675" version="1.1" xmlns="http://www.w3.org/2000/svg" xmlns:xlink="http://www.w3.org/1999/xlink" xml:space="preserve" xmlns:serif="http://www.serif.com/" style="fill-rule:evenodd;clip-rule:evenodd;stroke-linejoin:round;stroke-miterlimit:2;">
    <g id="layer102">
        <path d="M571.5,430.8C571.3,430.1 570,425.8 568.5,421.2C567,416.6 566,412.6 566.4,412.3C567.9,410.8 569.9,413.4 571.5,419.2C572.4,422.6 573.5,425.9 573.8,426.4C574.1,426.9 575.5,424 576.9,419.9C578.9,414.1 579.9,412.5 581.5,412.5C583,412.5 583.9,413.9 585.5,419.2C586.7,422.9 587.9,426.2 588.3,426.6C588.6,426.9 589.9,423.8 591.1,419.6C592.8,413.8 593.7,412 595.1,412C596.7,412 596.5,413 593.6,421.8C591,429.4 589.9,431.6 588.3,431.8C586.6,432.1 586,431 584.1,424.5C582.8,420.4 581.5,417 581.1,417C580.7,417 579.4,420.4 578.1,424.5C576.3,430.5 575.5,432 573.9,432C572.8,432 571.8,431.4 571.5,430.8Z" style="fill:rgb(0,81,146);fill-rule:nonzero;"/>
        <path d="M609.2,422.3C609.5,413.9 609.8,412.5 611.3,412.2C612.8,411.9 613,412.9 613,421.9C613,431.4 612.9,432 611,432C609,432 608.9,431.5 609.2,422.3Z" style="fill:rgb(0,81,146);fill-rule:nonzero;"/>
        <path d="M627,422L627,411.8L635,412.2C640.9,412.4 643.4,413 644.7,414.3C646.4,416 646.4,416.2 644.7,419.2C643.6,421.1 643.3,422.7 643.8,423.4C644.3,424 645,426.2 645.4,428.3C646,431.6 645.9,432 644,432C642.5,432 642,431.3 642,429.3C642,425.1 640.7,423.8 635.7,423.3L631.1,422.8L630.8,427.1C630.6,430.3 630,431.6 628.8,431.8C627.2,432.1 627,431.1 627,422ZM641.5,418C641.5,415.7 641.1,415.5 636.3,415.2L631,414.9L631,421.1L636.3,420.8C641.1,420.5 641.5,420.3 641.5,418Z" style="fill:rgb(0,81,146);fill-rule:nonzero;"/>
        <path d="M678,422C678,412.7 678.1,412 680,412C681.8,412 682,412.7 682,420.5L682,429L688.1,429C692.5,429 694.1,429.3 693.8,430.3C693.5,431.1 690.7,431.6 685.7,431.8L678,432.1L678,422Z" style="fill:rgb(0,81,146);fill-rule:nonzero;"/>
        <path d="M706,432L706,412L714.6,412C721,412 723.1,412.3 722.8,413.3C722.5,414 720,414.6 716.2,414.8C710.4,415.1 710,415.2 710,417.5C710,419.9 710.3,420 716,420C720.7,420 722,420.3 722,421.5C722,422.7 720.7,423 716,423L710,423L710,429L716.5,429C721.6,429 723,429.3 723,430.5C723,431.7 721.4,432 714.5,432L706,432Z" style="fill:rgb(0,81,146);fill-rule:nonzero;"/>
        <path d="M736,432L736,412L743.5,412C749.6,412 751.4,412.4 753,414C754.6,415.6 754.8,416.4 753.9,418.6C753.2,420.5 753.3,421.7 754,422.4C754.5,422.9 755,424.6 755,426.2C755,430.1 750.9,432 742.5,432L736,432ZM750.9,427.6C753.2,424.8 751.1,423 745.4,423C740.1,423 740,423 740,426C740,428.9 740.1,429 744.9,429C747.8,429 750.2,428.4 750.9,427.6ZM750.5,417.5C750.5,415.8 749.7,415.5 745.3,415.2C740.2,414.9 740,415 740,417.5C740,420 740.2,420.1 745.3,419.8C749.7,419.5 750.5,419.2 750.5,417.5Z" style="fill:rgb(0,81,146);fill-rule:nonzero;"/>
        <path d="M769,432.1L769,411.9L777.3,412.2C787,412.6 788.4,414.4 779.3,414.8C773.4,415.1 773,415.2 773,417.5C773,419.9 773.3,420 779,420C783.7,420 785,420.3 785,421.5C785,422.7 783.7,423 779,423L773,423L773,429L779.6,429C784.4,429 786.1,429.3 785.8,430.3C785.5,431.1 782.6,431.6 777.2,431.8L769,432.1Z" style="fill:rgb(0,81,146);fill-rule:nonzero;"/>
        <path d="M799.2,422.3C799.5,413.4 799.7,412.5 801.5,412.2C803,412 805.1,414 809.5,419.6L815.5,427.3L815.8,419.7C816,413.7 816.4,412 817.5,412C818.7,412 819,413.9 819,422C819,431.1 818.8,432 817.1,432C816,432 813,429 809.4,424.5L803.5,417L803.2,424.5C802.9,431.2 802.7,432 800.9,432C799,432 798.9,431.4 799.2,422.3Z" style="fill:rgb(0,81,146);fill-rule:nonzero;"/>
        <path d="M853,422L853,412L861.1,412C867.1,412 869.1,412.3 868.8,413.3C868.5,414 866.1,414.6 862.7,414.8C857.4,415.1 857,415.3 857,417.5C857,419.9 857.3,420 862.5,420C866.7,420 868,420.3 868,421.5C868,422.7 866.7,423 862.5,423L857,423L857,427.5C857,431.3 856.7,432 855,432C853.1,432 853,431.3 853,422Z" style="fill:rgb(0,81,146);fill-rule:nonzero;"/>
        <path d="M885.5,430.8C882.2,428.9 881.1,426.7 881.1,422C881.1,415 884.5,412 892.5,412C896.4,412 897.7,412.5 900.2,415C903,417.8 903.2,418.6 902.7,422.8C902,428.9 898.4,432 892,432C889.5,432 886.6,431.4 885.5,430.8ZM896.4,427.9C898.4,426.3 899,425 899,422C899,414.9 891.4,411.6 886.5,416.5C883.8,419.1 883.4,421.6 885.1,425.4C887.2,430 892.3,431.1 896.4,427.9Z" style="fill:rgb(0,81,146);fill-rule:nonzero;"/>
        <path d="M920.5,430.8C917.1,429 916,426.8 916,422.1C916.1,414.9 919.4,412 927.5,412C935.6,412 940,418.6 937,426.4C935.2,431.1 925.7,433.7 920.5,430.8ZM931.4,427.9C933.4,426.3 934,425 934,422C934,414.9 926.4,411.6 921.5,416.5C917.7,420.2 918.5,426.1 923.1,428.6C926.5,430.5 928.3,430.3 931.4,427.9Z" style="fill:rgb(0,81,146);fill-rule:nonzero;"/>
        <path d="M951,432.2L951,412L957,412C968.2,412 972,415.3 970.7,423.7C969.7,429.7 967.1,431.4 958.5,431.8L951,432.2ZM965.4,427.4C967.7,425.1 968.3,421.5 966.9,418.8C965.2,415.6 964.1,415 959.3,415L955,415L955,429L959.4,429C962.1,429 964.5,428.4 965.4,427.4Z" style="fill:rgb(0,81,146);fill-rule:nonzero;"/>
        <path d="M985.2,429.3C982.9,427 982.8,426.5 984.2,426.2C985.1,426 987.2,426.9 988.9,428.1C992.1,430.5 996.6,430.2 997.7,427.4C998.5,425.2 996.8,423.9 991.4,422.9C985.8,421.8 984,420.5 984,417.4C984,414.3 987.6,412 992.5,412C996.5,412 1001,414.2 1001,416.1C1001,417.5 998.2,417.2 995.5,415.4C992.1,413.2 987.8,414.3 988.2,417.2C988.4,418.9 989.6,419.6 994,420.5C1001.1,421.9 1002,422.5 1002,426C1002,432.1 990.2,434.4 985.2,429.3Z" style="fill:rgb(0,81,146);fill-rule:nonzero;"/>
        <path d="M1015,432L1015,412L1023.5,412C1030.4,412 1032,412.3 1032,413.5C1032,414.7 1030.6,415 1025.5,415C1019.2,415 1019,415.1 1019,417.5C1019,419.9 1019.3,420 1025,420C1029.7,420 1031,420.3 1031,421.5C1031,422.7 1029.7,423 1025,423L1019,423L1019,429L1025.5,429C1030.6,429 1032,429.3 1032,430.5C1032,431.7 1030.4,432 1023.5,432L1015,432Z" style="fill:rgb(0,81,146);fill-rule:nonzero;"/>
        <path d="M1046,422L1046,412L1052.3,412.1C1062,412.3 1063.5,413 1063.3,417.1C1062.9,422.1 1062.9,423.1 1063.6,427.8C1064.2,431.7 1064,432.2 1062.4,431.8C1061.1,431.6 1060.4,430.5 1060.2,428.5C1059.8,424.6 1057.6,423 1052.8,423L1049,423L1049,427.5C1049,430.8 1048.6,432 1047.5,432C1046.3,432 1046,430.2 1046,422ZM1059.5,418C1059.5,415.7 1059.1,415.5 1054.3,415.2L1049,414.9L1049,421.1L1054.3,420.8C1059.1,420.5 1059.5,420.3 1059.5,418Z" style="fill:rgb(0,81,146);fill-rule:nonzero;"/>
        <path d="M1081.5,426.3C1075.5,413.3 1075,411 1078.3,412.3C1079.1,412.6 1081,416 1082.5,419.9C1084.1,423.8 1085.6,427 1086,427C1086.4,427 1087.9,423.8 1089.5,419.9C1091.9,413.8 1094.2,410.8 1095.5,412.1C1095.7,412.3 1094,416.9 1091.7,422.3C1086.7,434 1085.3,434.6 1081.5,426.3Z" style="fill:rgb(0,81,146);fill-rule:nonzero;"/>
        <path d="M1109,422C1109,413.8 1109.3,412 1110.5,412C1111.7,412 1112,413.8 1112,422C1112,430.2 1111.7,432 1110.5,432C1109.3,432 1109,430.2 1109,422Z" style="fill:rgb(0,81,146);fill-rule:nonzero;"/>
        <path d="M1128.6,429.4C1126.5,427.3 1126,425.8 1126,422.1C1126.1,415.3 1129.5,412 1136.5,412C1141.5,412 1146.8,415.2 1147,418.3C1147,419.8 1143.4,418.9 1141.8,417C1139.3,414.2 1135.4,413.5 1132.6,415.3C1127.7,418.6 1128.6,426.7 1134.1,429C1137.1,430.3 1137.2,430.2 1143.6,425.5C1145.3,424.3 1146.2,425.2 1145.4,427.4C1144.5,429.8 1139.7,432 1135.2,432C1132.3,432 1130.6,431.3 1128.6,429.4Z" style="fill:rgb(0,81,146);fill-rule:nonzero;"/>
        <path d="M1160,432L1160,412L1168.5,412C1175.4,412 1177,412.3 1177,413.5C1177,414.7 1175.6,415 1170.5,415C1164.2,415 1164,415.1 1164,417.5C1164,419.9 1164.3,420 1170,420C1174.7,420 1176,420.3 1176,421.5C1176,422.7 1174.7,423 1170,423L1164,423L1164,429L1170.5,429C1175.6,429 1177,429.3 1177,430.5C1177,431.7 1175.4,432 1168.5,432L1160,432Z" style="fill:rgb(0,81,146);fill-rule:nonzero;"/>
        <path d="M47.4,383.1C44.7,382.1 41.1,380.6 39.4,379.7C34.6,377.2 28.2,370.1 25.3,364.1C23,359.2 22.6,357.3 22.6,349C22.6,340.7 23,338.8 25.3,333.9C32.7,318.6 53,309 71.3,312C75.3,312.7 80.3,313.9 82.5,314.8C87.9,316.9 99.1,324 98.5,324.9C98.3,325.3 96.5,328 94.7,330.8L91.2,335.9L85.7,332.4C70.5,322.9 54.7,322.6 44.2,331.6C39,336 36,342.2 36,348.6C36.1,369.7 62.8,378.9 87.5,366.5C91.3,364.6 94.4,363.1 94.6,363.3C96,365 99.9,374.3 99.5,375.1C98.4,376.8 88.8,381.2 81.8,383.1C72.7,385.7 54.7,385.6 47.4,383.1Z" style="fill:rgb(0,81,146);fill-rule:nonzero;"/>
        <path d="M444,383C436.6,381 433.1,379.6 427.7,376.3L424,374L427,367.9C428.7,364.6 430.4,362 430.8,362.2C431.2,362.4 434.4,364 438,365.8C446.8,370.1 457.4,372.3 468.1,371.8C477.7,371.4 482.6,369.3 484.8,364.6C486,362.3 485.9,361.5 484.6,359.5C481.9,355.4 479.4,354.8 462,354C443.9,353.1 440.7,352.3 434.7,347C432.1,344.7 430.5,342.2 429.4,338.4C428,333.5 428,332.5 429.4,327.7C432,318.9 438.8,314.3 452.8,312C460.4,310.8 471.9,311.7 480,314.2C484.7,315.6 494,319.8 494,320.5C494,321.1 489,331.2 488.4,331.9C488.2,332.1 485.7,331.3 482.8,330.1C474.3,326.7 466.4,325 459.1,325C447.7,325 441.7,328 442.2,333.4C442.7,338.5 446.5,339.9 462.1,340.5C479.4,341.2 486.1,342.6 491.1,346.2C498.7,351.7 501.1,362.5 496.9,371.6C494.4,376.9 490.1,380.4 483,383.1C476.1,385.7 453.7,385.7 444,383Z" style="fill:rgb(0,81,146);fill-rule:nonzero;"/>
        <path d="M586.2,382.6C575.1,378.4 569.3,373.2 564.7,363.2C562.9,359.4 562.5,356.6 562.5,348.5C562.5,340 562.9,337.8 564.9,334C570.8,322.8 579,316.5 592.5,312.9C601.9,310.5 610.6,310.8 620.1,314C626.6,316.2 638,322.9 638,324.5C638,325.1 636.4,327.9 634.5,330.8C630.7,336.4 630.8,336.4 625.2,332.2C620,328.2 609.7,325 602.5,325C585.7,325 572.5,338.9 576,352.8C580.7,371.4 603.9,377.6 626.8,366.4C630.9,364.4 634.3,363 634.5,363.2C635.7,364.5 639.7,374.6 639.2,375.1C637.2,377 627.5,381.3 621.2,383C610.7,385.9 594.7,385.7 586.2,382.6Z" style="fill:rgb(0,81,146);fill-rule:nonzero;"/>
        <path d="M689.6,383.4C679.3,379.7 673.9,373.1 672,362.2C671.3,358.1 671,347.3 671.2,334.5L671.5,313.5L678.3,313.2L685,312.9L685,337.1C685,363.9 685.4,366 691.3,369.5C693.9,371.2 696.3,371.5 705,371.5C713.7,371.5 716.1,371.2 718.7,369.5C724.6,366 725,363.9 725,337.1L725,312.9L731.8,313.2L738.5,313.5L738.8,334.5C739,347.3 738.7,357.8 738,361.5C735.7,373.2 730.2,379.8 719.6,383.3C713.3,385.4 695.3,385.5 689.6,383.4Z" style="fill:rgb(0,81,146);fill-rule:nonzero;"/>
        <path d="M136,383.1L136,314L150,314L150,340L188,340L188,314L201,314L201,383L188,383L188,354L150.1,354L149.8,368.3L149.5,382.5L142.8,382.8L136,383.1Z" style="fill:rgb(0,81,146);fill-rule:nonzero;"/>
        <path d="M244,383L244,314L306.1,314L305.8,320.3L305.5,326.5L281.2,326.8L256.9,327L257.2,333.8L257.5,340.5L270.3,340.8L283,341.1L283,354L256.9,354L257.2,361.8L257.5,369.5L282.3,369.8L307,370L307,383L244,383Z" style="fill:rgb(0,81,146);fill-rule:nonzero;"/>
        <path d="M343,383L343,314L404,314L404,327L355.9,327L356.2,333.8L356.5,340.5L369.3,340.8L382,341.1L382,354L356,354L356,383L343,383Z" style="fill:rgb(0,81,146);fill-rule:nonzero;"/>
        <path d="M773.2,348.3L773.5,313.5L780.3,313.2L787,312.9L787,370L827,370L827,383L773,383L773.2,348.3Z" style="fill:rgb(0,81,146);fill-rule:nonzero;"/>
        <path d="M856,383L856,313L869,313L869,383L856,383Z" style="fill:rgb(0,81,146);fill-rule:nonzero;"/>
        <path d="M910,383L910,313L922.9,313L931.7,323.8C936.5,329.7 945.2,340.5 951,347.7C956.8,355 961.8,360.9 962.3,360.9C962.7,361 963,350.2 963,337L963,313L976,313L976,383L968.8,383C961.7,382.9 961.4,382.9 959,379.5C954.5,373.5 924.9,337.1 923.9,336.5C923.4,336.1 923,345 923,359.4L923,383L910,383Z" style="fill:rgb(0,81,146);fill-rule:nonzero;"/>
        <path d="M1008.2,366.3C1012.6,357.1 1020.2,341.3 1025.1,331.3L1033.9,313L1051.8,313L1053.5,316.8C1054.5,318.8 1062,334.2 1070.2,350.9C1078.3,367.6 1085,381.7 1085,382.1C1085,382.6 1081.7,383 1077.7,383L1070.4,383L1063,368L1022.4,368L1018.9,375.3L1015.5,382.5L1000.1,383.1L1008.2,366.3ZM1056,354C1056,353.4 1053,347.1 1049.4,339.9C1043.4,327.9 1042.8,326.9 1041.5,328.6C1040.7,329.7 1040,330.8 1040,331.2C1040,331.6 1037.5,337 1034.5,343.1C1031.5,349.2 1029,354.4 1029,354.6C1029,354.8 1035.1,355 1042.5,355C1051,355 1056,354.6 1056,354Z" style="fill:rgb(0,81,146);fill-rule:nonzero;"/>
        <path d="M1106.2,348.3L1106.5,313.5L1131.5,313.5C1160,313.5 1164,314.2 1170,319.9C1181,330.3 1176.1,348.2 1160.6,354.2C1160.2,354.4 1162.5,358.8 1165.7,364C1169,369.2 1172.9,375.6 1174.4,378.3L1177.2,383L1160.2,383L1151.6,369L1142.9,355L1120,355L1120,383L1106,383L1106.2,348.3ZM1158.5,339.8C1161.3,338.5 1162.5,335.3 1161.6,331.7C1160.6,327.7 1157.2,327 1138,327L1120,327L1120,341L1138,341C1149.5,341 1156.8,340.6 1158.5,339.8Z" style="fill:rgb(0,81,146);fill-rule:nonzero;"/>
    </g>
    <g id="layer103">
        <path d="M518,339.1C518,338.1 518.5,334.8 519.2,331.6L520.3,325.9L515.2,320.7C512.3,317.8 510,315.1 510,314.8C510,314.4 512.1,313.8 514.8,313.5C524.9,312.2 524.5,312.4 528,304.9C529.7,301.1 531.5,298.2 531.9,298.4C532.3,298.7 533.9,301.8 535.4,305.4C538.5,312.5 537.6,312 549.4,313.5L554.3,314.2L548.6,319.8C544.3,324 543,325.9 543.4,327.4C543.7,328.6 544.2,331.9 544.6,334.8C545.4,341.1 544.9,341.2 537,336.8L531.3,333.7L524.6,337.3C518.9,340.5 518,340.7 518,339.1Z" style="fill:rgb(198,165,91);fill-rule:nonzero;"/>
        <path d="M488,283.3C488,277.5 488,277.5 483.5,274.5C481.1,272.9 479,271.2 479,270.9C479,270.6 481.4,269.6 484.4,268.7C489.4,267.1 489.8,266.7 490.9,262.7C492.8,255.5 493.4,255.3 497,260.4C500.3,265 500.4,265 506.2,265L512.1,265L508.9,269.5C505.7,273.9 505.7,274.2 506.8,278.3C509.2,286.6 509.5,286 503.7,284.3C500.8,283.5 498.3,282.6 498.1,282.4C497.9,282.2 496.1,283.3 494.1,284.9C487.9,289.7 488,289.7 488,283.3Z" style="fill:rgb(198,165,91);fill-rule:nonzero;"/>
        <path d="M371.6,286.1C371.2,285.5 370.1,285 369.1,285C367.8,285 367.4,284.1 367.3,281.5C367.2,278.7 367.6,278 369,278C370.1,278 371.2,277.6 371.5,277C372.5,275.4 374,275.9 374,277.8C374,278.8 374.4,280 374.9,280.6C375.4,281.1 375,282.7 374,284.3C372.9,286 372,286.7 371.6,286.1Z" style="fill:rgb(198,165,91);fill-rule:nonzero;"/>
        <path d="M399.2,265.9C397.9,264.3 396,263 394.9,263C392.7,263 392.4,261.7 394.3,260.1C395.1,259.5 395.5,257.8 395.2,256C394.7,252.8 395.1,252.5 397.9,254C399.2,254.6 400.3,254.5 401.6,253.5C404.4,251.4 405,251.7 405,255C405,256.9 405.7,258.4 407,259.2C409.7,260.9 409.5,261.7 406.1,262.5C404.1,262.9 403,264 402.4,265.9L401.5,268.7L399.2,265.9Z" style="fill:rgb(198,165,91);fill-rule:nonzero;"/>
        <path d="M442,263.5C441.4,261.8 440.7,259.9 440.5,259.2C440.2,258.5 438.7,257.7 437,257.4C432.6,256.5 432.5,255.5 436.5,253C439.5,251.1 440,250.3 440,246.9C440,242.4 440.3,242.3 443.8,245C445.9,246.7 447.2,246.9 450.7,246.4L455,245.8L453.5,249.4C452,252.9 452.1,253.3 454,256C455.1,257.5 456,259.1 456,259.4C456,259.7 454.2,260 452.1,260C448.8,260 447.7,260.6 445.6,263.2L443.1,266.4L442,263.5Z" style="fill:rgb(198,165,91);fill-rule:nonzero;"/>
    </g>
</svg>
