<?xml version="1.0" encoding="UTF-8" standalone="no"?>
<!DOCTYPE svg PUBLIC "-//W3C//DTD SVG 1.1//EN" "http://www.w3.org/Graphics/SVG/1.1/DTD/svg11.dtd">
<svg width="100%" height="100%" viewBox="0 0 20 10" version="1.1" xmlns="http://www.w3.org/2000/svg" xmlns:xlink="http://www.w3.org/1999/xlink" xml:space="preserve" xmlns:serif="http://www.serif.com/" style="fill-rule:evenodd;clip-rule:evenodd;">
    <g id="Ebene-1" serif:id="Ebene 1" transform="matrix(1,0,0,1,-311.154,-486.744)">
        <g id="g1472" transform="matrix(1.25,0,0,-1.25,316.499,494.791)">
            <path id="path1474" d="M0,0C-0.234,-0.059 -0.476,-0.088 -0.716,-0.088C-2.34,-0.088 -3.305,1.183 -3.305,2.742C-3.305,4.234 -2.224,5.469 -0.702,5.469C-0.432,5.469 -0.161,5.447 -0.029,5.41L0.066,3.8C-0.074,3.918 -0.424,3.984 -0.607,3.984C-1.316,3.984 -1.843,3.469 -1.843,2.749C-1.843,1.801 -1.222,1.397 -0.592,1.397C-0.351,1.397 -0.059,1.448 0.124,1.595" style="fill:rgb(100,101,103);fill-rule:nonzero;"/>
        </g>
        <g transform="matrix(1.24687,0,0,-1.25313,316.498,494.798)">
            <g id="g1476">
                <g id="g1478">
                    <path id="path1480" d="M0,0C-0.234,-0.059 -0.476,-0.088 -0.718,-0.088C-2.346,-0.088 -3.313,1.18 -3.313,2.735C-3.313,4.223 -2.229,5.455 -0.704,5.455C-0.432,5.455 -0.161,5.433 -0.028,5.396L0.066,3.79C-0.073,3.908 -0.424,3.974 -0.608,3.974C-1.319,3.974 -1.847,3.46 -1.847,2.742C-1.847,1.797 -1.224,1.393 -0.593,1.393C-0.352,1.393 -0.058,1.444 0.125,1.591L0,0Z" style="fill:none;fill-rule:nonzero;stroke:rgb(100,101,103);stroke-width:0.02px;"/>
                </g>
            </g>
        </g>
        <rect id="path1482" x="316.927" y="488.12" width="1.719" height="6.615" style="fill:rgb(100,101,103);fill-rule:nonzero;"/>
        <g id="g1484" transform="matrix(1.24687,0,0,-1.25313,-115.849,1196.21)">
            <rect id="path1486" x="347.088" y="559.778" width="1.378" height="5.279" style="fill:none;fill-rule:nonzero;stroke:rgb(100,101,103);stroke-width:0.02px;"/>
        </g>
        <g id="g1488" transform="matrix(1.25,0,0,-1.25,319.012,488.121)">
            <path id="path1490" d="M0,0L3.248,0L3.406,-1.338L2.33,-1.338L2.311,-5.292L0.936,-5.292L0.936,-1.338L-0.139,-1.338" style="fill:rgb(100,101,103);fill-rule:nonzero;"/>
        </g>
        <g transform="matrix(1.24687,0,0,-1.25313,319.011,488.128)">
            <g id="g1492">
                <g id="g1494">
                    <path id="path1496" d="M0,0L3.256,0L3.415,-1.335L2.337,-1.335L2.318,-5.279L0.939,-5.279L0.939,-1.335L-0.139,-1.335L0,0Z" style="fill:none;fill-rule:nonzero;stroke:rgb(100,101,103);stroke-width:0.02px;"/>
                </g>
            </g>
        </g>
        <g id="g1498" transform="matrix(1.25,0,0,-1.25,323.607,488.121)">
            <path id="path1500" d="M0,0L3.248,0L3.386,-1.338L2.311,-1.338L2.311,-5.292L0.936,-5.292L0.936,-1.338L-0.139,-1.338" style="fill:rgb(100,101,103);fill-rule:nonzero;"/>
        </g>
        <g transform="matrix(1.24687,0,0,-1.25313,323.607,488.128)">
            <g id="g1502">
                <g id="g1504">
                    <path id="path1506" d="M0,0L3.255,0L3.395,-1.335L2.317,-1.335L2.317,-5.279L0.938,-5.279L0.938,-1.335L-0.14,-1.335L0,0Z" style="fill:none;fill-rule:nonzero;stroke:rgb(100,101,103);stroke-width:0.02px;"/>
                </g>
            </g>
        </g>
        <rect id="path1508" x="328.036" y="488.12" width="1.744" height="6.615" style="fill:rgb(100,101,103);fill-rule:nonzero;"/>
        <g id="g1510" transform="matrix(1.24687,0,0,-1.25313,-115.849,1196.21)">
            <rect id="path1512" x="355.996" y="559.778" width="1.399" height="5.279" style="fill:none;fill-rule:nonzero;stroke:rgb(100,101,103);stroke-width:0.02px;"/>
        </g>
        <g id="g1514" transform="matrix(1.25,0,0,-1.25,316.28,494.572)">
            <path id="path1516" d="M0,0C-0.234,-0.059 -0.477,-0.088 -0.716,-0.088C-2.341,-0.088 -3.306,1.183 -3.306,2.742C-3.306,4.234 -2.225,5.469 -0.703,5.469C-0.432,5.469 -0.161,5.447 -0.03,5.41L0.065,3.8C-0.074,3.918 -0.424,3.984 -0.608,3.984C-1.316,3.984 -1.844,3.469 -1.844,2.749C-1.844,1.801 -1.223,1.397 -0.592,1.397C-0.352,1.397 -0.06,1.448 0.124,1.595" style="fill:rgb(255,237,0);fill-rule:nonzero;"/>
        </g>
        <rect id="path1518" x="316.707" y="487.901" width="1.719" height="6.615" style="fill:rgb(255,237,0);fill-rule:nonzero;"/>
        <g id="g1520" transform="matrix(1.25,0,0,-1.25,318.817,487.901)">
            <path id="path1522" d="M0,0L3.248,0L3.386,-1.338L2.311,-1.338L2.311,-5.292L0.936,-5.292L0.936,-1.338L-0.139,-1.338" style="fill:rgb(255,237,0);fill-rule:nonzero;"/>
        </g>
        <g id="g1524" transform="matrix(1.25,0,0,-1.25,323.389,487.901)">
            <path id="path1526" d="M0,0L3.248,0L3.386,-1.338L2.311,-1.338L2.311,-5.292L0.936,-5.292L0.936,-1.338L-0.139,-1.338" style="fill:rgb(255,237,0);fill-rule:nonzero;"/>
        </g>
        <rect id="path1528" x="327.841" y="487.901" width="1.719" height="6.615" style="fill:rgb(255,237,0);fill-rule:nonzero;"/>
    </g>
</svg>
