<?xml version="1.0" encoding="UTF-8" standalone="no"?>
<!DOCTYPE svg PUBLIC "-//W3C//DTD SVG 1.1//EN" "http://www.w3.org/Graphics/SVG/1.1/DTD/svg11.dtd">
<svg width="100%" height="100%" viewBox="0 0 413 122" version="1.1" xmlns="http://www.w3.org/2000/svg" xmlns:xlink="http://www.w3.org/1999/xlink" xml:space="preserve" xmlns:serif="http://www.serif.com/" style="fill-rule:evenodd;clip-rule:evenodd;stroke-linecap:round;stroke-linejoin:round;stroke-miterlimit:1.5;">
    <g transform="matrix(1,0,0,1,-0.0376344,-2.13163e-14)">
        <path d="M389.668,68.594L389.668,52.079L375.896,52.079L375.896,117.871L389.469,117.871L389.469,81.141C389.469,81.141 395.025,66.148 411.875,66.148L411.875,51.909C405.476,52.227 396.637,52.552 389.668,68.594Z" style="fill:rgb(31,31,31);stroke:rgb(0,110,180);stroke-width:1px;"/>
        <g transform="matrix(1,0,0,1,1.03763,2.13163e-14)">
            <path d="M321.537,90.58L362.781,90.58L362.781,72.926C362.781,72.926 363.028,50.878 340.732,50.878C318.437,50.878 329.711,50.878 329.711,50.878C329.711,50.878 308.026,50.095 308.026,72.563C308.026,95.08 308.026,85.862 308.026,93.647C308.175,95.913 308.054,114.838 326.305,117.963C343.964,119.9 360.158,117.578 360.158,117.578L360.158,105.538C360.158,105.538 354.784,107.497 341.596,107.497C328.407,107.497 333.308,107.497 333.308,107.497C333.308,107.497 321.559,107.469 321.559,95.748L321.537,90.58ZM321.706,79.887L348.794,79.887L348.794,71.079C348.794,71.079 349.168,62.169 339.884,62.169C330.6,62.169 331.214,62.169 331.214,62.169C331.214,62.169 321.784,61.152 321.784,71.598L321.706,79.887Z" style="fill:rgb(31,31,31);stroke:rgb(0,110,180);stroke-width:1px;"/>
        </g>
        <path d="M269.569,47.537L283.108,33.997L283.108,51.771L300.946,51.771L300.946,63.064L283.21,63.064L283.21,98.657C283.21,98.657 282.982,106.838 291.391,106.838L300.086,106.838L300.086,118.215C300.086,118.215 289.929,119.792 281.108,116.943C270.286,113.585 270.229,100.397 270.229,97.507L270.229,63.104L258.984,63.104L258.984,51.771L269.53,51.771L269.569,47.537Z" style="fill:rgb(31,31,31);stroke:rgb(0,110,180);stroke-width:1px;"/>
        <g transform="matrix(1,0,0,1,1.03763,2.13163e-14)">
            <path d="M201.52,64.461L201.52,51.771C201.52,51.771 224.371,49.762 233.505,51.771C242.64,53.78 249.512,58.392 249.512,69.497L249.512,117.578L214.594,117.578C214.594,117.578 195.6,117.27 195.6,98.584C195.6,79.897 211.785,77.733 216.451,77.733L235.682,77.733L235.682,71.626C235.682,71.626 235.795,62.895 226.951,62.895C218.108,62.895 203.302,63.812 201.52,64.461ZM236.6,87.518L236.6,107.497L216.414,107.497C216.414,107.497 208.629,106.435 208.629,99.713C208.629,92.99 211.313,87.618 220.724,87.618C230.134,87.618 236.6,87.518 236.6,87.518Z" style="fill:rgb(31,31,31);stroke:rgb(0,110,180);stroke-width:1px;"/>
        </g>
        <path d="M135.347,63.038C135.347,63.038 146.044,52.63 145.9,52.486C145.755,52.341 162.89,105.647 162.89,105.647L180.203,51.771L195.407,51.771L172.521,117.578L153.538,117.578L135.347,63.038Z" style="fill:rgb(31,31,31);stroke:rgb(0,110,180);stroke-width:1px;"/>
        <g id="Ebene1">
            <g transform="matrix(0.655218,-0.655218,0.655218,0.655218,-49.6065,52.4729)">
                <rect x="32.14" y="91.703" width="46.549" height="46.549" style="fill:rgb(31,31,31);"/>
            </g>
            <g transform="matrix(0.655218,-0.655218,0.655218,0.655218,-19.1065,21.9729)">
                <rect x="32.14" y="91.703" width="46.549" height="46.549" style="fill:rgb(31,31,31);"/>
            </g>
            <g transform="matrix(0.65643,-0.65643,0.655218,0.655218,11.3545,-8.43168)">
                <rect x="32.14" y="91.703" width="46.549" height="46.549" style="fill:rgb(31,31,31);"/>
            </g>
            <g transform="matrix(0.655218,-0.655218,0.655218,0.655218,-80.1065,21.9729)">
                <rect x="32.14" y="91.703" width="46.549" height="46.549" style="fill:rgb(31,31,31);"/>
            </g>
        </g>
    </g>
</svg>
